<?xml version="1.0" encoding="utf-8"?>
<!-- Generator: Adobe Illustrator 24.1.2, SVG Export Plug-In . SVG Version: 6.00 Build 0)  -->
<svg version="1.1" id="Layer_1" xmlns="http://www.w3.org/2000/svg" xmlns:xlink="http://www.w3.org/1999/xlink" x="0px" y="0px"
	 viewBox="0 0 86.9 81" style="enable-background:new 0 0 86.9 81;" xml:space="preserve">
<style type="text/css">
	.st0{fill:#FCD2AB;}
</style>
<g>
	<path class="st0" d="M36.3,31.4c-2.8-3.9-3.3-8.6-3.1-13.2c0.1-3.4,0.1-8.9,3.5-10.9c1.9-1.1,4.5-1.1,6.6-1.2
		C45.3,6,47.6,6,49.6,6.8c4.1,1.6,5,6.5,5.1,10.4c0.1,5.6-1.4,11-4.4,15.7c1.2-0.3,2.4-0.6,3.6-0.9c-0.1-0.1-0.1-0.1-0.2-0.2
		c0.3,0.3,0.6,0.6,0.9,0.9c0-0.1-0.1-0.1-0.1-0.2c0.1,0.4,0.2,0.9,0.4,1.3c0,0.4-0.5,0.5,0,0.3c0.4-0.2,0.7-0.5,1-0.7
		c0.8-0.5,1.7-0.9,2.6-1.2c1.8-0.6,3.7-1,5.6-1.2c3.9-0.5,8.6-1.3,12.4,0.3c3.6,1.5,4.7,4.9,3.9,8.5c-0.8,3.7-3,6.2-6.7,7.2
		c-4.8,1.3-9.7-0.3-14.3-1.6c-0.5,1.7-0.9,3.4-1.4,5.1c3.8,0.7,7.4,2.8,9.6,6.1c2.4,3.6,3,8.2,1.7,12.4c-0.6,1.9-1.7,3-3.6,3.8
		c-1.7,0.7-3.5,1.2-5.2,1.4c-3.4,0.4-7.2-0.1-9.6-2.7c-3.1-3.3-2.6-8.7-2.4-12.8c0.1-1.3-1.1-2.4-2.3-2.6c-1.4-0.2-2.4,0.6-2.9,1.9
		C41,63.9,36.6,71,29.4,69.7c-1.8-0.3-3.7-1-5.5-1.7c-1.4-0.6-1.7-1.3-2-2.7c-0.6-2.8-0.2-5.9,0.6-8.6c1.1-3.3,3.1-6.2,5.8-8.4
		c2.1-1.7-0.2-5.1-2.6-4.4c-3.8,1.2-7.9,1.9-11.8,0.7c-2.7-0.8-5.5-2.9-6.4-5.7c-0.6-1.8-0.3-3.7,0.2-5.5c0.3-1,0.6-2.1,1-3.1
		c0.2-0.6,0.4-1.6,1-2c1.1-0.8,3.5-0.6,4.7-0.6c1.9,0,3.7,0.3,5.5,0.8c4.3,1.2,8.2,3.4,11.8,6.1c1.1,0.8,2.9,0.2,3.6-0.9
		c0.8-1.3,0.2-2.8-0.9-3.6c-3.9-2.9-8.3-5.3-13.1-6.6c-2.4-0.6-4.9-1-7.3-1c-2.3,0-5.2,0.1-7.2,1.5c-2.2,1.5-3,4.3-3.7,6.7
		c-0.8,2.6-1.3,5.4-0.9,8.1c0.7,4.3,4,8,7.9,9.9c5.4,2.6,11.5,2,17.1,0.3c-0.9-1.5-1.7-2.9-2.6-4.4c-6.3,5.2-9.3,13.9-7.8,22
		c0.4,2.2,1.5,4.2,3.4,5.5c1.9,1.2,4.3,1.9,6.4,2.4c4.6,1.2,9.2,0.6,13.1-2.2c4.3-3.1,6.7-7.9,8.6-12.7c-1.7-0.2-3.5-0.5-5.2-0.7
		c-0.3,5.1-0.4,10.9,2.8,15.2c3.1,4.2,8.2,6,13.4,5.7c5-0.3,11.5-1.9,14-6.7c2.7-5.3,2.4-11.7-0.1-17c-2.6-5.4-8-9.3-13.8-10.4
		c-3.3-0.6-4.7,4.1-1.4,5.1c5.6,1.6,11.7,3.2,17.5,1.5c5.3-1.6,9-5.7,10.1-11.2c0.6-2.9,0.5-6-0.8-8.7c-1.1-2.4-3.2-4.3-5.6-5.4
		c-5.3-2.4-11.4-1.6-17-0.8c-3,0.4-5.9,1.2-8.6,2.7c-1.3,0.7-2.8,1.6-3.5,3c-1,1.8-0.5,3.6,1.1,4.8c1.2,0.9,2.9,0.1,3.6-0.9
		c3.3-5.1,5.1-11.2,5.1-17.3c0.1-5.7-1.3-12.1-6.5-15.4C51,1.4,48,0.9,45.2,0.8c-2.8-0.1-6,0.1-8.7,0.9c-6.1,1.8-7.9,7.8-8.4,13.5
		c-0.5,6.4-0.3,13.5,3.7,18.9c0.8,1.2,2.3,1.7,3.6,0.9C36.4,34.3,37.1,32.6,36.3,31.4L36.3,31.4z"/>
</g>
</svg>
