<?xml version="1.0" encoding="utf-8"?>
<!-- Generator: Adobe Illustrator 24.1.2, SVG Export Plug-In . SVG Version: 6.00 Build 0)  -->
<svg version="1.1" id="Layer_1" xmlns="http://www.w3.org/2000/svg" xmlns:xlink="http://www.w3.org/1999/xlink" x="0px" y="0px"
	 viewBox="0 0 46.1 44.7" style="enable-background:new 0 0 46.1 44.7;" xml:space="preserve">
<style type="text/css">
	.st0{fill:#D07E5A;}
</style>
<path class="st0" d="M20,1.3L2.7,14.9c-1.4,1.1-2.3,2.8-2.3,4.6v21.8c0,1.6,1.3,2.8,2.8,2.8h11.1c0.9,0,1.6-0.7,1.6-1.6L16,30
	c0-3.8,3.1-7.2,6.8-7.4c4-0.1,7.3,3.1,7.3,7.1v12.9c0,0.9,0.7,1.6,1.6,1.6h11.1c1.6,0,2.8-1.3,2.8-2.8V19.6c0-1.8-0.8-3.5-2.3-4.6
	L26,1.3C24.3,0,21.8,0,20,1.3z"/>
</svg>
