<?xml version="1.0" encoding="utf-8"?>
<!-- Generator: Adobe Illustrator 24.1.2, SVG Export Plug-In . SVG Version: 6.00 Build 0)  -->
<svg version="1.1" id="Layer_1" xmlns="http://www.w3.org/2000/svg" xmlns:xlink="http://www.w3.org/1999/xlink" x="0px" y="0px"
	 viewBox="0 0 1921.9 1077.1" style="enable-background:new 0 0 1921.9 1077.1;" xml:space="preserve">
<style type="text/css">
	.st0{fill:#FEF2E3;}
	.st1{fill:#F5A373;}
	.st2{fill:#6E6F70;}
	.st3{fill:#929497;}
	.st4{fill:#FCD2AB;}
</style>
<g>
	<rect x="1.9" class="st0" width="1920" height="1080"/>
</g>
<g>
	<path class="st1" d="M790.8,473.2c4.1-0.2,8-0.5,11.6-1l0.4,2.9c-3.8,0.6-7.7,1.1-11.8,1.3c-4.1,0.2-8.5,0.3-13.1,0.3l-0.5-3.3
		C782.2,473.5,786.7,473.4,790.8,473.2z M801.3,457.8h-22.9v-3.2h22.9V457.8z M794.8,459.9c1.4,0.4,2.5,1.1,3.3,1.9s1.2,1.9,1.2,3
		s-0.4,2.1-1.2,3s-1.9,1.5-3.3,2c-1.4,0.5-3.1,0.7-5,0.7s-3.5-0.2-4.9-0.7s-2.5-1.1-3.3-2s-1.2-1.9-1.2-3c0-1.2,0.4-2.2,1.2-3
		s1.9-1.5,3.3-1.9s3.1-0.7,5-0.7C791.8,459.2,793.4,459.5,794.8,459.9z M803,479.4c2,0.5,3.5,1.2,4.5,2.1s1.6,2.1,1.6,3.4
		s-0.5,2.5-1.6,3.4c-1,0.9-2.5,1.6-4.5,2.1s-4.4,0.7-7.2,0.7s-5.2-0.3-7.2-0.7s-3.5-1.2-4.5-2.1s-1.5-2-1.5-3.4
		c0-1.3,0.5-2.5,1.6-3.4s2.5-1.6,4.5-2.1s4.3-0.7,7.1-0.7C798.7,478.7,801.1,478.9,803,479.4z M787,462.4c-0.8,0.2-1.4,0.5-1.9,1
		s-0.7,0.9-0.7,1.5s0.2,1.1,0.7,1.5c0.4,0.4,1.1,0.8,1.9,1c0.8,0.2,1.8,0.3,2.9,0.3c1.1,0,2.1-0.1,2.9-0.4c0.8-0.2,1.4-0.6,1.9-1
		c0.4-0.4,0.6-0.9,0.6-1.5s-0.2-1.1-0.7-1.5s-1.1-0.7-1.9-1c-0.8-0.2-1.8-0.3-2.9-0.3C788.7,462.1,787.8,462.2,787,462.4z
		 M790.9,482.2c-1.3,0.2-2.3,0.6-3,1c-0.7,0.5-1,1-1,1.7c0,0.6,0.3,1.2,1,1.6s1.7,0.8,3,1s3,0.4,4.9,0.4c2,0,3.6-0.1,4.9-0.4
		s2.3-0.6,3-1s1-1,1-1.6c0-0.7-0.3-1.2-1-1.7s-1.7-0.8-3-1s-3-0.3-4.9-0.3C793.9,481.8,792.3,482,790.9,482.2z M792,456h-4.2v-4.9
		h4.2V456z M792,474.9h-4.2v-5.6h4.2V474.9z M808.9,478.3h-4.2v-26.9h4.2V478.3z M814.5,466.7h-7.3v-3.5h7.3V466.7z"/>
	<path class="st1" d="M845.5,461.4H826V458h19.5V461.4z M840,464.9c1.3,0.8,2.3,1.9,3,3.3s1.1,3,1.1,4.8s-0.4,3.4-1.1,4.8
		c-0.7,1.4-1.7,2.5-3,3.3s-2.7,1.2-4.3,1.2s-3-0.4-4.3-1.2s-2.3-1.9-3-3.3s-1.1-3-1.1-4.8s0.4-3.4,1.1-4.8c0.7-1.4,1.7-2.5,3-3.3
		s2.7-1.2,4.3-1.2C837.3,463.8,838.7,464.2,840,464.9z M833.2,468.1c-0.7,0.5-1.3,1.1-1.7,2s-0.6,1.9-0.6,3s0.2,2.1,0.6,3
		s1,1.5,1.7,2s1.5,0.7,2.4,0.7s1.7-0.2,2.5-0.7c0.7-0.5,1.3-1.1,1.7-2s0.6-1.8,0.6-3c0-1.1-0.2-2.1-0.6-3c-0.4-0.9-1-1.5-1.7-2
		s-1.6-0.7-2.5-0.7C834.8,467.4,833.9,467.6,833.2,468.1z M837.9,460h-4.2v-7.6h4.2V460z M850.2,477.1h-7v-3.4h7V477.1z
		 M850.6,468.1h-7v-3.5h7V468.1z M852.6,489.2h-3.9v-36.9h3.9V489.2z M860.2,491.1h-4v-39.6h4V491.1z"/>
	<path class="st1" d="M887,466.5c-0.9,2.1-2.2,4-3.9,5.6s-3.7,2.8-6,3.6l-2.2-3.3c2-0.7,3.8-1.7,5.3-3s2.7-2.8,3.5-4.4
		c0.8-1.7,1.2-3.4,1.2-5.2v-3.9h3.5v3.9C888.4,462.1,888,464.4,887,466.5z M897.9,458H876v-3.4h21.9V458z M885.7,488.4h-4.2v-10.8
		h4.2V488.4z M908.6,490.3h-27.1v-3.5h27.1V490.3z M890.4,464.6c0.8,1.6,2,3,3.5,4.2s3.3,2.1,5.3,2.7l-2.1,3.3
		c-2.3-0.8-4.3-1.9-6-3.4s-3-3.3-3.9-5.3s-1.4-4.2-1.4-6.5v-3.9h3.5v3.9C889.2,461.4,889.6,463.1,890.4,464.6z M907.4,480.4h-4.2
		v-28.9h4.2V480.4z"/>
</g>
<g>
	<path class="st2" d="M778.4,548.3h6.5c1.2,0,2.3,0.2,3.1,0.6c0.8,0.4,1.5,1,1.9,1.7s0.6,1.5,0.6,2.4c0,0.7-0.1,1.3-0.4,1.8
		c-0.3,0.5-0.6,0.9-1.1,1.2s-1,0.5-1.6,0.7v0.2c0.6,0,1.2,0.2,1.8,0.6s1,0.9,1.4,1.5s0.5,1.4,0.5,2.3c0,0.9-0.2,1.8-0.7,2.5
		s-1.1,1.3-2,1.7s-2,0.6-3.4,0.6h-6.9v-17.8H778.4z M786.3,555.6c0.5-0.2,0.9-0.6,1.2-1s0.4-0.9,0.4-1.5c0-0.5-0.1-1-0.3-1.3
		s-0.6-0.7-1.1-0.9s-1.1-0.3-1.7-0.3h-3.7v5.4h3.6C785.3,556,785.9,555.9,786.3,555.6z M787,563.5c0.5-0.2,0.9-0.5,1.2-0.9
		s0.4-0.8,0.4-1.3c0-0.6-0.1-1.1-0.4-1.6c-0.3-0.5-0.7-0.9-1.2-1.1c-0.5-0.3-1.1-0.4-1.8-0.4h-4v5.7h3.9
		C785.8,563.8,786.5,563.7,787,563.5z"/>
	<path class="st2" d="M794,550.5c-0.3-0.1-0.5-0.3-0.6-0.6s-0.2-0.5-0.2-0.8s0.1-0.5,0.2-0.8s0.3-0.4,0.6-0.6
		c0.3-0.1,0.5-0.2,0.8-0.2s0.6,0.1,0.9,0.2c0.3,0.1,0.5,0.3,0.6,0.6c0.1,0.2,0.2,0.5,0.2,0.8s-0.1,0.5-0.2,0.8
		c-0.1,0.2-0.3,0.4-0.6,0.6c-0.3,0.1-0.5,0.2-0.9,0.2C794.5,550.7,794.2,550.6,794,550.5z M793.5,552.7h2.6v13.4h-2.6V552.7z"/>
	<path class="st2" d="M798.8,552.7h2.5v2.1h0.1c0.2-0.7,0.7-1.3,1.3-1.7s1.3-0.6,2.1-0.6c0.4,0,0.8,0,1.1,0.1v2.5
		c-0.1,0-0.3-0.1-0.6-0.1s-0.5-0.1-0.8-0.1c-0.6,0-1.1,0.1-1.6,0.4c-0.5,0.3-0.9,0.6-1.1,1.1c-0.3,0.5-0.4,1-0.4,1.6v8.2h-2.6V552.7
		z"/>
	<path class="st2" d="M814.5,554.8h-7.3v-2.1h7.3V554.8z M811.8,549.5v12.7c0,0.5,0.1,0.8,0.2,1.1c0.1,0.3,0.3,0.4,0.6,0.5
		c0.2,0.1,0.5,0.1,0.8,0.1c0.4,0,0.8,0,1.3,0v2.3c-0.5,0.1-1,0.1-1.6,0.1c-0.7,0-1.4-0.1-2-0.4s-1.1-0.7-1.4-1.2s-0.5-1.2-0.5-2
		v-13.2L811.8,549.5L811.8,549.5z"/>
	<path class="st2" d="M819.6,566.2H817v-17.9h2.6v6.7h0.2c0.3-0.7,0.8-1.3,1.5-1.7s1.5-0.6,2.5-0.6c0.9,0,1.8,0.2,2.4,0.6
		c0.7,0.4,1.2,1,1.6,1.7c0.4,0.8,0.6,1.7,0.6,2.8v8.5h-2.6v-8.2c0-0.6-0.1-1.2-0.3-1.7s-0.6-0.8-1-1.1c-0.4-0.2-0.9-0.4-1.5-0.4
		s-1.2,0.1-1.6,0.4c-0.5,0.3-0.9,0.6-1.1,1.1c-0.3,0.5-0.4,1.1-0.4,1.8v8H819.6z"/>
	<path class="st2" d="M837.5,556.3c-0.3-0.2-0.5-0.4-0.6-0.6s-0.2-0.6-0.2-0.9c0-0.3,0.1-0.6,0.2-0.9c0.2-0.3,0.4-0.5,0.6-0.6
		c0.3-0.2,0.6-0.2,0.9-0.2c0.3,0,0.6,0.1,0.9,0.2c0.3,0.2,0.5,0.4,0.6,0.6c0.2,0.3,0.2,0.6,0.2,0.9c0,0.3-0.1,0.6-0.2,0.9
		s-0.4,0.5-0.6,0.6c-0.3,0.2-0.6,0.2-0.9,0.2C838.1,556.6,837.8,556.5,837.5,556.3z M837.5,566.1c-0.3-0.2-0.5-0.4-0.6-0.6
		s-0.2-0.6-0.2-0.9c0-0.3,0.1-0.6,0.2-0.9s0.4-0.5,0.6-0.6s0.6-0.2,0.9-0.2c0.3,0,0.6,0.1,0.9,0.2s0.5,0.4,0.6,0.6s0.2,0.6,0.2,0.9
		c0,0.3-0.1,0.6-0.2,0.9s-0.4,0.5-0.6,0.6s-0.6,0.2-0.9,0.2S837.8,566.3,837.5,566.1z"/>
	<path class="st2" d="M855.2,566.2h-2.7V551h-0.1l-4.3,2.8v-2.6l4.4-2.9h2.7L855.2,566.2L855.2,566.2z"/>
	<path class="st2" d="M868.8,548.8c1,0.5,1.8,1.5,2.5,2.7c0.6,1.3,1,2.9,1,5s-0.3,3.8-0.8,5.3c-0.6,1.5-1.4,2.6-2.4,3.4
		c-1.1,0.8-2.3,1.2-3.7,1.2c-1.1,0-2-0.2-2.9-0.6c-0.9-0.4-1.6-1-2.1-1.7s-0.9-1.6-1-2.6h2.7c0.1,0.5,0.3,1,0.6,1.3
		c0.3,0.4,0.7,0.7,1.1,0.9c0.5,0.2,1,0.3,1.6,0.3c0.9,0,1.7-0.3,2.4-0.8s1.2-1.3,1.5-2.2c0.4-1,0.5-2.1,0.5-3.5h-0.2
		c-0.3,0.5-0.7,0.9-1.2,1.3c-0.5,0.4-1,0.6-1.6,0.8s-1.2,0.3-1.8,0.3c-1.1,0-2-0.3-2.9-0.8s-1.6-1.2-2.1-2.1s-0.8-1.9-0.8-3
		s0.3-2.2,0.8-3.1c0.5-0.9,1.3-1.7,2.3-2.2s2.1-0.8,3.4-0.8C866.7,548,867.8,548.3,868.8,548.8z M863.5,550.8
		c-0.6,0.3-1,0.8-1.4,1.4c-0.3,0.6-0.5,1.2-0.5,1.9s0.2,1.3,0.5,1.9s0.8,1,1.3,1.3c0.6,0.3,1.2,0.5,1.9,0.5s1.3-0.2,1.9-0.5
		s1.1-0.8,1.4-1.4c0.3-0.6,0.5-1.2,0.5-1.8c0-0.7-0.2-1.3-0.5-1.8s-0.8-1-1.4-1.4c-0.6-0.3-1.2-0.5-1.9-0.5
		C864.7,550.3,864.1,550.5,863.5,550.8z"/>
	<path class="st2" d="M884,548.8c1,0.5,1.8,1.5,2.5,2.7c0.6,1.3,1,2.9,1,5s-0.3,3.8-0.8,5.3c-0.6,1.5-1.4,2.6-2.4,3.4
		c-1.1,0.8-2.3,1.2-3.7,1.2c-1.1,0-2-0.2-2.9-0.6c-0.9-0.4-1.6-1-2.1-1.7s-0.9-1.6-1-2.6h2.7c0.1,0.5,0.3,1,0.6,1.3
		c0.3,0.4,0.7,0.7,1.1,0.9c0.5,0.2,1,0.3,1.6,0.3c0.9,0,1.7-0.3,2.4-0.8s1.2-1.3,1.5-2.2c0.4-1,0.5-2.1,0.5-3.5h-0.2
		c-0.3,0.5-0.7,0.9-1.2,1.3c-0.5,0.4-1,0.6-1.6,0.8s-1.2,0.3-1.8,0.3c-1.1,0-2-0.3-2.9-0.8s-1.6-1.2-2.1-2.1s-0.8-1.9-0.8-3
		s0.3-2.2,0.8-3.1c0.5-0.9,1.3-1.7,2.3-2.2s2.1-0.8,3.4-0.8C881.9,548,883,548.3,884,548.8z M878.8,550.8c-0.6,0.3-1,0.8-1.4,1.4
		c-0.3,0.6-0.5,1.2-0.5,1.9s0.2,1.3,0.5,1.9s0.8,1,1.3,1.3c0.6,0.3,1.2,0.5,1.9,0.5s1.3-0.2,1.9-0.5s1.1-0.8,1.4-1.4
		c0.3-0.6,0.5-1.2,0.5-1.8c0-0.7-0.2-1.3-0.5-1.8s-0.8-1-1.4-1.4c-0.6-0.3-1.2-0.5-1.9-0.5C880,550.3,879.4,550.5,878.8,550.8z"/>
	<path class="st2" d="M896.6,566.2h-2.7V551h-0.1l-4.3,2.8v-2.6l4.4-2.9h2.7L896.6,566.2L896.6,566.2z"/>
	<path class="st2" d="M900.5,566.1c-0.3-0.2-0.5-0.4-0.6-0.6s-0.2-0.6-0.2-0.9c0-0.3,0.1-0.6,0.2-0.9s0.4-0.5,0.6-0.6
		s0.6-0.2,0.9-0.2c0.3,0,0.6,0.1,0.9,0.2s0.5,0.4,0.6,0.6s0.2,0.6,0.2,0.9c0,0.3-0.1,0.6-0.2,0.9s-0.4,0.5-0.6,0.6s-0.6,0.2-0.9,0.2
		S900.8,566.3,900.5,566.1z"/>
	<path class="st2" d="M908.2,565.8c-1-0.4-1.7-1-2.3-1.7s-0.8-1.6-0.9-2.6h2.7c0,0.5,0.2,1,0.6,1.3c0.3,0.4,0.8,0.7,1.3,0.9
		s1.1,0.3,1.8,0.3s1.4-0.1,1.9-0.4c0.6-0.3,1-0.6,1.3-1s0.5-0.9,0.5-1.5s-0.2-1.1-0.5-1.6s-0.8-0.8-1.4-1.1s-1.3-0.4-2.2-0.4h-1.5
		v-2.2h1.5c0.7,0,1.3-0.1,1.8-0.4c0.5-0.2,0.9-0.6,1.2-1s0.4-0.9,0.4-1.5c0-0.5-0.1-1-0.4-1.4c-0.3-0.4-0.6-0.7-1.1-1
		c-0.5-0.2-1-0.3-1.6-0.3s-1.2,0.1-1.7,0.3s-0.9,0.5-1.3,0.9c-0.3,0.4-0.5,0.9-0.5,1.4h-2.6c0-1,0.3-1.8,0.9-2.6s1.3-1.3,2.2-1.7
		s1.9-0.6,3-0.6s2.2,0.2,3,0.6c0.9,0.4,1.5,1,2,1.8c0.5,0.7,0.7,1.6,0.7,2.5c0,0.7-0.1,1.3-0.4,1.8s-0.6,1-1.1,1.4s-1,0.6-1.7,0.8
		v0.1c0.8,0.1,1.5,0.4,2.1,0.7c0.6,0.4,1,0.9,1.3,1.5s0.4,1.3,0.4,2c0,1-0.3,1.9-0.8,2.6c-0.6,0.8-1.3,1.4-2.3,1.9
		c-1,0.4-2.1,0.7-3.3,0.7C910.3,566.4,909.2,566.2,908.2,565.8z"/>
	<path class="st2" d="M920.8,566.1c-0.3-0.2-0.5-0.4-0.6-0.6s-0.2-0.6-0.2-0.9c0-0.3,0.1-0.6,0.2-0.9s0.4-0.5,0.6-0.6
		s0.6-0.2,0.9-0.2c0.3,0,0.6,0.1,0.9,0.2s0.5,0.4,0.6,0.6s0.2,0.6,0.2,0.9c0,0.3-0.1,0.6-0.2,0.9s-0.4,0.5-0.6,0.6s-0.6,0.2-0.9,0.2
		C921.4,566.3,921.1,566.3,920.8,566.1z"/>
	<path class="st2" d="M930.7,566.2H928V551h-0.1l-4.3,2.8v-2.6l4.4-2.9h2.7L930.7,566.2L930.7,566.2z"/>
	<path class="st2" d="M943.4,550.7L943.4,550.7l-9.2-0.1v-2.3h12v2.4l-8,15.5h-2.8L943.4,550.7z"/>
	<path class="st2" d="M777.5,589.6h13.9v2.3h-5.6v15.6h-2.7v-15.6h-5.6L777.5,589.6L777.5,589.6z"/>
	<path class="st2" d="M799.9,595.2c-0.3-0.2-0.5-0.4-0.6-0.6s-0.2-0.6-0.2-0.9c0-0.3,0.1-0.6,0.2-0.9s0.4-0.5,0.6-0.6
		c0.3-0.2,0.6-0.2,0.9-0.2c0.3,0,0.6,0.1,0.9,0.2c0.3,0.2,0.5,0.4,0.6,0.6s0.2,0.6,0.2,0.9c0,0.3-0.1,0.6-0.2,0.9s-0.4,0.5-0.6,0.6
		s-0.6,0.2-0.9,0.2S800.2,595.3,799.9,595.2z M799.9,604.9c-0.3-0.2-0.5-0.4-0.6-0.6s-0.2-0.6-0.2-0.9c0-0.3,0.1-0.6,0.2-0.9
		c0.2-0.3,0.4-0.5,0.6-0.6s0.6-0.2,0.9-0.2c0.3,0,0.6,0.1,0.9,0.2s0.5,0.4,0.6,0.6c0.2,0.3,0.2,0.6,0.2,0.9c0,0.3-0.1,0.6-0.2,0.9
		s-0.4,0.5-0.6,0.6s-0.6,0.2-0.9,0.2C800.5,605.2,800.2,605.1,799.9,604.9z"/>
	<path class="st2" d="M813.6,606.7c-1-0.7-1.7-1.8-2.2-3.1c-0.5-1.4-0.8-3-0.8-5c0-1.9,0.3-3.6,0.8-5s1.3-2.4,2.3-3.2
		c1-0.7,2.2-1.1,3.5-1.1c1.4,0,2.5,0.4,3.5,1.1c1,0.7,1.7,1.8,2.3,3.2c0.5,1.4,0.8,3,0.8,5c0,1.9-0.3,3.6-0.8,5s-1.3,2.4-2.2,3.1
		s-2.2,1.1-3.5,1.1C815.7,607.7,814.6,607.4,813.6,606.7z M819.2,604.6c0.6-0.5,1-1.3,1.3-2.3s0.5-2.3,0.4-3.7
		c0-1.5-0.2-2.7-0.5-3.7s-0.7-1.8-1.3-2.3s-1.3-0.8-2.1-0.8s-1.5,0.3-2.1,0.8s-1,1.3-1.3,2.3s-0.5,2.3-0.5,3.7
		c0,1.5,0.2,2.7,0.5,3.7s0.8,1.8,1.3,2.3s1.3,0.8,2.1,0.8C817.9,605.4,818.6,605.1,819.2,604.6z"/>
	<path class="st2" d="M832.8,607.5H830v-15.2h-0.1l-4.3,2.8v-2.6l4.4-2.9h2.7L832.8,607.5L832.8,607.5z"/>
	<path class="st2" d="M839.5,606.7c-1-0.7-1.7-1.8-2.2-3.1c-0.5-1.4-0.8-3-0.8-5c0-1.9,0.3-3.6,0.8-5s1.3-2.4,2.3-3.2
		c1-0.7,2.2-1.1,3.5-1.1c1.4,0,2.5,0.4,3.5,1.1c1,0.7,1.7,1.8,2.3,3.2c0.5,1.4,0.8,3,0.8,5c0,1.9-0.3,3.6-0.8,5s-1.3,2.4-2.2,3.1
		s-2.2,1.1-3.5,1.1C841.7,607.7,840.5,607.4,839.5,606.7z M845.1,604.6c0.6-0.5,1-1.3,1.3-2.3s0.5-2.3,0.4-3.7
		c0-1.5-0.2-2.7-0.5-3.7s-0.7-1.8-1.3-2.3s-1.3-0.8-2.1-0.8s-1.5,0.3-2.1,0.8s-1,1.3-1.3,2.3s-0.5,2.3-0.5,3.7
		c0,1.5,0.2,2.7,0.5,3.7s0.8,1.8,1.3,2.3s1.3,0.8,2.1,0.8C843.9,605.4,844.6,605.1,845.1,604.6z"/>
	<path class="st2" d="M852.2,607.4c-0.3-0.2-0.5-0.4-0.6-0.6s-0.2-0.6-0.2-0.9c0-0.3,0.1-0.6,0.2-0.9s0.4-0.5,0.6-0.6
		c0.3-0.2,0.6-0.2,0.9-0.2c0.3,0,0.6,0.1,0.9,0.2c0.3,0.2,0.5,0.4,0.6,0.6s0.2,0.6,0.2,0.9c0,0.3-0.1,0.6-0.2,0.9s-0.4,0.5-0.6,0.6
		s-0.6,0.2-0.9,0.2C852.7,607.7,852.4,607.6,852.2,607.4z"/>
	<path class="st2" d="M866.7,590.2c1,0.5,1.8,1.5,2.5,2.7c0.6,1.3,1,2.9,1,5s-0.3,3.8-0.8,5.3c-0.6,1.5-1.4,2.6-2.4,3.4
		c-1.1,0.8-2.3,1.2-3.7,1.2c-1.1,0-2-0.2-2.9-0.6c-0.9-0.4-1.6-1-2.1-1.7s-0.9-1.6-1-2.6h2.7c0.1,0.5,0.3,1,0.6,1.3
		c0.3,0.4,0.7,0.7,1.1,0.9c0.5,0.2,1,0.3,1.6,0.3c0.9,0,1.7-0.3,2.4-0.8s1.2-1.3,1.5-2.2c0.4-1,0.5-2.1,0.5-3.5h-0.2
		c-0.3,0.5-0.7,0.9-1.2,1.3c-0.5,0.4-1,0.6-1.6,0.8s-1.2,0.3-1.8,0.3c-1.1,0-2-0.3-2.9-0.8s-1.6-1.2-2.1-2.1s-0.8-1.9-0.8-3
		s0.3-2.2,0.8-3.1c0.5-0.9,1.3-1.7,2.3-2.2s2.1-0.8,3.4-0.8C864.6,589.4,865.7,589.6,866.7,590.2z M861.4,592.1
		c-0.6,0.3-1,0.8-1.4,1.4c-0.3,0.6-0.5,1.2-0.5,1.9s0.2,1.3,0.5,1.9s0.8,1,1.3,1.3c0.6,0.3,1.2,0.5,1.9,0.5s1.3-0.2,1.9-0.5
		c0.6-0.4,1.1-0.8,1.4-1.4c0.3-0.6,0.5-1.2,0.5-1.8c0-0.7-0.2-1.3-0.5-1.8s-0.8-1-1.4-1.4c-0.6-0.3-1.2-0.5-1.9-0.5
		C862.7,591.6,862,591.8,861.4,592.1z"/>
	<path class="st2" d="M881.9,590.2c1,0.5,1.8,1.5,2.5,2.7c0.6,1.3,1,2.9,1,5s-0.3,3.8-0.8,5.3c-0.6,1.5-1.4,2.6-2.4,3.4
		c-1.1,0.8-2.3,1.2-3.7,1.2c-1.1,0-2-0.2-2.9-0.6c-0.9-0.4-1.6-1-2.1-1.7s-0.9-1.6-1-2.6h2.7c0.1,0.5,0.3,1,0.6,1.3
		c0.3,0.4,0.7,0.7,1.1,0.9c0.5,0.2,1,0.3,1.6,0.3c0.9,0,1.7-0.3,2.4-0.8s1.2-1.3,1.5-2.2c0.4-1,0.5-2.1,0.5-3.5h-0.2
		c-0.3,0.5-0.7,0.9-1.2,1.3c-0.5,0.4-1,0.6-1.6,0.8s-1.2,0.3-1.8,0.3c-1.1,0-2-0.3-2.9-0.8s-1.6-1.2-2.1-2.1s-0.8-1.9-0.8-3
		s0.3-2.2,0.8-3.1c0.5-0.9,1.3-1.7,2.3-2.2s2.1-0.8,3.4-0.8C879.8,589.4,880.9,589.6,881.9,590.2z M876.7,592.1
		c-0.6,0.3-1,0.8-1.4,1.4c-0.3,0.6-0.5,1.2-0.5,1.9s0.2,1.3,0.5,1.9s0.8,1,1.3,1.3c0.6,0.3,1.2,0.5,1.9,0.5s1.3-0.2,1.9-0.5
		c0.6-0.4,1.1-0.8,1.4-1.4c0.3-0.6,0.5-1.2,0.5-1.8c0-0.7-0.2-1.3-0.5-1.8s-0.8-1-1.4-1.4c-0.6-0.3-1.2-0.5-1.9-0.5
		C877.9,591.6,877.3,591.8,876.7,592.1z"/>
	<path class="st2" d="M890.8,607.1c-0.9-0.4-1.6-1-2.2-1.8c-0.5-0.7-0.8-1.6-0.9-2.5h2.6c0.1,0.5,0.2,1,0.6,1.4s0.7,0.7,1.2,0.9
		s1,0.4,1.6,0.4c0.7,0,1.3-0.2,1.9-0.5s1-0.8,1.3-1.3c0.3-0.6,0.5-1.2,0.5-1.9s-0.2-1.4-0.5-1.9s-0.8-1-1.4-1.3
		c-0.6-0.3-1.3-0.5-2-0.5s-1.4,0.1-1.9,0.4c-0.5,0.3-0.9,0.7-1.2,1.2H888l1.2-10h10.1v2.3h-7.9l-0.6,5h0.2c0.4-0.4,0.9-0.6,1.5-0.9
		c0.6-0.2,1.2-0.3,1.9-0.3c1.1,0,2.1,0.3,3,0.8s1.6,1.2,2.1,2.1s0.8,1.9,0.7,3.1c0,1.2-0.3,2.2-0.8,3.1c-0.5,0.9-1.3,1.6-2.3,2.2
		s-2.1,0.8-3.3,0.8C892.7,607.7,891.7,607.5,890.8,607.1z"/>
	<path class="st2" d="M911.2,592.1L911.2,592.1L902,592v-2.3h12v2.4l-8,15.5h-2.8L911.2,592.1z"/>
	<path class="st2" d="M914,607.4c-0.3-0.2-0.5-0.4-0.6-0.6s-0.2-0.6-0.2-0.9c0-0.3,0.1-0.6,0.2-0.9s0.4-0.5,0.6-0.6
		c0.3-0.2,0.6-0.2,0.9-0.2c0.3,0,0.6,0.1,0.9,0.2c0.3,0.2,0.5,0.4,0.6,0.6s0.2,0.6,0.2,0.9c0,0.3-0.1,0.6-0.2,0.9s-0.4,0.5-0.6,0.6
		s-0.6,0.2-0.9,0.2C914.6,607.7,914.3,607.6,914,607.4z"/>
	<path class="st2" d="M919.3,605.5l6.2-6.3c0.8-0.8,1.3-1.4,1.7-1.9s0.7-0.9,0.9-1.4s0.3-1,0.3-1.5c0-0.6-0.1-1.1-0.4-1.5
		s-0.7-0.8-1.2-1s-1.1-0.4-1.7-0.4c-0.7,0-1.2,0.1-1.7,0.4c-0.5,0.3-0.9,0.6-1.1,1.1s-0.4,1-0.4,1.7h-2.6c0-1.1,0.3-2,0.8-2.8
		s1.2-1.5,2.1-1.9c0.9-0.5,1.9-0.7,3-0.7s2.1,0.2,3,0.7c0.9,0.4,1.6,1,2.1,1.8s0.7,1.6,0.7,2.6c0,0.7-0.1,1.3-0.4,2
		c-0.3,0.6-0.7,1.3-1.3,2.1s-1.5,1.7-2.6,2.8l-3.6,3.7v0.1h8.2v2.3h-12V605.5z"/>
	<path class="st2" d="M937,606.9c-1-0.5-1.8-1.5-2.5-2.7c-0.6-1.3-1-3-1-5c0-2.1,0.3-3.8,0.9-5.3c0.6-1.5,1.4-2.6,2.4-3.4
		c1-0.8,2.3-1.1,3.7-1.1c1.1,0,2.1,0.2,2.9,0.6c0.9,0.4,1.5,1,2.1,1.7c0.5,0.7,0.9,1.6,1,2.5h-2.7c-0.1-0.5-0.3-0.9-0.6-1.3
		c-0.3-0.4-0.7-0.7-1.1-0.9s-1-0.3-1.6-0.3c-0.9,0-1.7,0.3-2.3,0.8c-0.7,0.5-1.1,1.2-1.5,2.2c-0.3,1-0.5,2.1-0.5,3.5h0.2
		c0.3-0.5,0.7-0.9,1.2-1.3c0.5-0.4,1-0.6,1.6-0.8s1.2-0.3,1.8-0.3c1.1,0,2,0.3,2.9,0.8s1.6,1.2,2.1,2.1s0.8,1.9,0.8,3
		c0,1.2-0.3,2.2-0.8,3.1c-0.5,0.9-1.3,1.7-2.3,2.2s-2.1,0.8-3.3,0.8C939.1,607.7,938,607.4,937,606.9z M942.2,605
		c0.6-0.3,1-0.8,1.4-1.4c0.3-0.6,0.5-1.2,0.5-1.9s-0.2-1.3-0.5-1.9s-0.8-1-1.3-1.3c-0.6-0.3-1.2-0.5-1.9-0.5s-1.3,0.2-1.9,0.5
		s-1,0.8-1.4,1.4c-0.3,0.6-0.5,1.2-0.5,1.9s0.2,1.3,0.5,1.8c0.3,0.6,0.8,1,1.4,1.4c0.6,0.4,1.2,0.5,1.9,0.5
		C941,605.5,941.7,605.3,942.2,605z"/>
	<path class="st2" d="M949.1,605.5l6.2-6.3c0.8-0.8,1.3-1.4,1.7-1.9s0.7-0.9,0.9-1.4s0.3-1,0.3-1.5c0-0.6-0.1-1.1-0.4-1.5
		s-0.7-0.8-1.2-1s-1.1-0.4-1.7-0.4c-0.7,0-1.2,0.1-1.7,0.4c-0.5,0.3-0.9,0.6-1.1,1.1s-0.4,1-0.4,1.7h-2.6c0-1.1,0.3-2,0.8-2.8
		s1.2-1.5,2.1-1.9c0.9-0.5,1.9-0.7,3-0.7s2.1,0.2,3,0.7c0.9,0.4,1.6,1,2.1,1.8s0.7,1.6,0.7,2.6c0,0.7-0.1,1.3-0.4,2
		c-0.3,0.6-0.7,1.3-1.3,2.1s-1.5,1.7-2.6,2.8l-3.6,3.7v0.1h8.2v2.3h-12V605.5z"/>
	<path class="st2" d="M973.1,590.2c1,0.5,1.8,1.5,2.5,2.7c0.6,1.3,1,2.9,1,5s-0.3,3.8-0.8,5.3c-0.6,1.5-1.4,2.6-2.4,3.4
		c-1.1,0.8-2.3,1.2-3.7,1.2c-1.1,0-2-0.2-2.9-0.6c-0.9-0.4-1.6-1-2.1-1.7s-0.9-1.6-1-2.6h2.7c0.1,0.5,0.3,1,0.6,1.3
		c0.3,0.4,0.7,0.7,1.1,0.9c0.5,0.2,1,0.3,1.6,0.3c0.9,0,1.7-0.3,2.4-0.8s1.2-1.3,1.5-2.2c0.4-1,0.5-2.1,0.5-3.5h-0.2
		c-0.3,0.5-0.7,0.9-1.2,1.3c-0.5,0.4-1,0.6-1.6,0.8s-1.2,0.3-1.8,0.3c-1.1,0-2-0.3-2.9-0.8s-1.6-1.2-2.1-2.1s-0.8-1.9-0.8-3
		s0.3-2.2,0.8-3.1c0.5-0.9,1.3-1.7,2.3-2.2s2.1-0.8,3.4-0.8C971,589.4,972.1,589.6,973.1,590.2z M967.9,592.1
		c-0.6,0.3-1,0.8-1.4,1.4c-0.3,0.6-0.5,1.2-0.5,1.9s0.2,1.3,0.5,1.9s0.8,1,1.3,1.3c0.6,0.3,1.2,0.5,1.9,0.5s1.3-0.2,1.9-0.5
		c0.6-0.4,1.1-0.8,1.4-1.4c0.3-0.6,0.5-1.2,0.5-1.8c0-0.7-0.2-1.3-0.5-1.8s-0.8-1-1.4-1.4c-0.6-0.3-1.2-0.5-1.9-0.5
		C969.1,591.6,968.5,591.8,967.9,592.1z"/>
	<path class="st2" d="M778.4,630.9h11.2v2.3h-8.5v5.4h7.9v2.3h-7.9v5.5h8.6v2.3h-11.3V630.9z"/>
	<path class="st2" d="M798.7,639c-0.3-0.2-0.5-0.4-0.6-0.6s-0.2-0.6-0.2-0.9c0-0.3,0.1-0.6,0.2-0.9c0.2-0.3,0.4-0.5,0.6-0.6
		s0.6-0.2,0.9-0.2c0.3,0,0.6,0.1,0.9,0.2s0.5,0.4,0.6,0.6c0.2,0.3,0.2,0.6,0.2,0.9c0,0.3-0.1,0.6-0.2,0.9s-0.4,0.5-0.6,0.6
		c-0.3,0.2-0.6,0.2-0.9,0.2S799,639.2,798.7,639z M798.7,648.8c-0.3-0.2-0.5-0.4-0.6-0.6s-0.2-0.6-0.2-0.9c0-0.3,0.1-0.6,0.2-0.9
		s0.4-0.5,0.6-0.6c0.3-0.2,0.6-0.2,0.9-0.2c0.3,0,0.6,0.1,0.9,0.2c0.3,0.2,0.5,0.4,0.6,0.6s0.2,0.6,0.2,0.9c0,0.3-0.1,0.6-0.2,0.9
		s-0.4,0.5-0.6,0.6s-0.6,0.2-0.9,0.2S799,648.9,798.7,648.8z"/>
	<path class="st2" d="M818,648.8h-2.6v-17.9h2.6v6.7h0.2c0.3-0.7,0.8-1.3,1.5-1.7s1.5-0.6,2.5-0.6c0.9,0,1.8,0.2,2.4,0.6
		c0.7,0.4,1.2,1,1.6,1.7c0.4,0.8,0.6,1.7,0.6,2.8v8.5h-2.6v-8.2c0-0.6-0.1-1.2-0.3-1.7s-0.6-0.8-1-1.1c-0.4-0.2-0.9-0.4-1.5-0.4
		s-1.2,0.1-1.6,0.4c-0.5,0.3-0.9,0.6-1.1,1.1c-0.3,0.5-0.4,1.1-0.4,1.8v8H818z"/>
	<path class="st2" d="M832.1,635.4v14.3c0,0.9-0.2,1.7-0.5,2.3s-0.8,1.1-1.4,1.4c-0.6,0.3-1.4,0.5-2.4,0.5c-0.1,0-0.3,0-0.5,0v-2.3
		c0.1,0,0.3,0,0.4,0c0.4,0,0.7-0.1,1-0.2c0.3-0.1,0.4-0.4,0.6-0.6c0.1-0.3,0.2-0.6,0.2-1v-14.3h2.6V635.4z M829.9,633.1
		c-0.3-0.1-0.5-0.3-0.6-0.6c-0.1-0.2-0.2-0.5-0.2-0.8s0.1-0.5,0.2-0.8c0.1-0.2,0.3-0.4,0.6-0.6c0.3-0.1,0.5-0.2,0.8-0.2
		s0.6,0.1,0.9,0.2c0.3,0.1,0.5,0.3,0.6,0.6c0.1,0.2,0.2,0.5,0.2,0.8s-0.1,0.5-0.2,0.8c-0.1,0.2-0.3,0.4-0.6,0.6
		c-0.3,0.1-0.5,0.2-0.9,0.2C830.4,633.3,830.1,633.3,829.9,633.1z"/>
	<path class="st2" d="M841.5,648.8h-2.7v-15.2h-0.1l-4.3,2.8v-2.6l4.4-2.9h2.7L841.5,648.8L841.5,648.8z"/>
	<path class="st2" d="M845.6,646.9l6.2-6.3c0.8-0.8,1.3-1.4,1.7-1.9s0.7-0.9,0.9-1.4s0.3-1,0.3-1.5c0-0.6-0.1-1.1-0.4-1.5
		s-0.7-0.8-1.2-1s-1.1-0.4-1.7-0.4c-0.7,0-1.2,0.1-1.7,0.4c-0.5,0.3-0.9,0.6-1.1,1.1s-0.4,1-0.4,1.7h-2.6c0-1.1,0.3-2,0.8-2.8
		s1.2-1.5,2.1-1.9c0.9-0.5,1.9-0.7,3-0.7s2.1,0.2,3,0.7c0.9,0.4,1.6,1,2.1,1.8s0.7,1.6,0.7,2.6c0,0.7-0.1,1.3-0.4,2
		c-0.3,0.6-0.7,1.3-1.3,2.1s-1.5,1.7-2.6,2.8l-3.6,3.7v0.1h8.2v2.3h-12V646.9z"/>
	<path class="st2" d="M866.9,648.8h-2.7v-15.2h-0.1l-4.3,2.8v-2.6l4.4-2.9h2.7L866.9,648.8L866.9,648.8z"/>
	<path class="st2" d="M871,646.9l6.2-6.3c0.8-0.8,1.3-1.4,1.7-1.9s0.7-0.9,0.9-1.4s0.3-1,0.3-1.5c0-0.6-0.1-1.1-0.4-1.5
		s-0.7-0.8-1.2-1s-1.1-0.4-1.7-0.4c-0.7,0-1.2,0.1-1.7,0.4c-0.5,0.3-0.9,0.6-1.1,1.1s-0.4,1-0.4,1.7H871c0-1.1,0.3-2,0.8-2.8
		s1.2-1.5,2.1-1.9c0.9-0.5,1.9-0.7,3-0.7s2.1,0.2,3,0.7c0.9,0.4,1.6,1,2.1,1.8s0.7,1.6,0.7,2.6c0,0.7-0.1,1.3-0.4,2
		c-0.3,0.6-0.7,1.3-1.3,2.1s-1.5,1.7-2.6,2.8l-3.6,3.7v0.1h8.2v2.3h-12V646.9z"/>
	<path class="st2" d="M892.3,648.8h-2.7v-15.2h-0.1l-4.3,2.8v-2.6l4.4-2.9h2.7L892.3,648.8L892.3,648.8z"/>
	<path class="st2" d="M896,643.1l7.9-12.2h1.7v3.2h-1.1l-5.6,8.7v0.1h10.8v2.3H896V643.1z M904.7,644.7v-1V631h2.6v17.9h-2.6V644.7z
		"/>
	<path class="st2" d="M918.5,648.8h-2.7v-15.2h-0.1l-4.3,2.8v-2.6l4.4-2.9h2.7L918.5,648.8L918.5,648.8z"/>
	<path class="st2" d="M922.2,643.1l7.9-12.2h1.7v3.2h-1.1l-5.6,8.7v0.1h10.8v2.3h-13.7L922.2,643.1L922.2,643.1z M930.8,644.7v-1
		V631h2.6v17.9h-2.6V644.7z"/>
	<path class="st2" d="M942.3,650.2c-1.5-0.8-2.6-2-3.4-3.5c-0.8-1.5-1.2-3.3-1.2-5.4c0-1.9,0.4-3.7,1.3-5.2c0.8-1.5,2-2.7,3.5-3.6
		s3.2-1.3,5.1-1.3c1.9,0,3.7,0.4,5.2,1.2s2.7,1.9,3.5,3.3c0.8,1.4,1.2,3,1.2,4.8c0,1.2-0.2,2.3-0.6,3.2c-0.4,0.9-0.9,1.6-1.6,2.1
		s-1.5,0.7-2.4,0.7c-0.6,0-1.1-0.1-1.5-0.3s-0.8-0.5-1.1-0.8s-0.4-0.7-0.4-1.1l2-1c0,0.4,0.1,0.8,0.3,1s0.5,0.3,0.8,0.3
		c0.5,0,0.9-0.2,1.2-0.5c0.4-0.3,0.6-0.8,0.8-1.4s0.3-1.3,0.3-2.1c0-1.5-0.3-2.8-1-3.9c-0.7-1.1-1.6-2-2.8-2.6s-2.5-0.9-4.1-0.9
		s-2.9,0.4-4.1,1.1c-1.2,0.7-2.1,1.7-2.7,2.9c-0.6,1.2-1,2.6-1,4.1c0,1.6,0.3,3.1,0.9,4.3c0.6,1.2,1.5,2.2,2.6,2.8s2.6,1,4.2,1
		c0.9,0,1.7-0.1,2.4-0.1c0.7-0.1,1.4-0.2,2-0.4v2c-0.7,0.2-1.4,0.3-2.1,0.4s-1.5,0.1-2.3,0.1C945.5,651.4,943.8,651,942.3,650.2z
		 M944.8,645.8c-0.6-0.4-1.1-1-1.5-1.8s-0.5-1.7-0.5-2.7c0-1.1,0.2-2,0.5-2.7c0.4-0.8,0.9-1.4,1.5-1.8c0.6-0.4,1.3-0.6,2.1-0.6
		c0.5,0,1,0.1,1.3,0.3c0.4,0.2,0.7,0.4,0.9,0.6c0.2,0.2,0.4,0.5,0.5,0.8h0.1v-1.5h2.1v8.2h-2.1c-0.2,0.3-0.3,0.6-0.6,0.8
		c-0.2,0.3-0.5,0.5-0.9,0.7s-0.9,0.3-1.4,0.3C946.1,646.4,945.4,646.2,944.8,645.8z M948.8,644c0.4-0.3,0.6-0.6,0.8-1.1
		s0.3-1,0.3-1.6s-0.1-1.2-0.3-1.6c-0.2-0.5-0.5-0.8-0.8-1.1s-0.8-0.4-1.3-0.4s-0.9,0.1-1.3,0.4c-0.4,0.3-0.6,0.6-0.8,1.1
		s-0.3,1-0.3,1.6s0.1,1.1,0.3,1.6s0.5,0.8,0.8,1.1c0.4,0.3,0.8,0.4,1.3,0.4S948.4,644.2,948.8,644z"/>
	<path class="st2" d="M962.5,648.8h-2.6v-13.4h2.5v2.2h0.2c0.3-0.7,0.8-1.3,1.5-1.7s1.5-0.6,2.5-0.6c0.9,0,1.7,0.2,2.4,0.6
		c0.7,0.4,1.2,1,1.6,1.7s0.6,1.7,0.6,2.8v8.5h-2.6v-8.2c0-0.6-0.1-1.2-0.3-1.7s-0.5-0.8-1-1.1s-0.9-0.4-1.5-0.4s-1.1,0.1-1.6,0.4
		c-0.5,0.3-0.8,0.6-1.1,1.1s-0.4,1.1-0.4,1.8v8H962.5z"/>
	<path class="st2" d="M979.9,642.9l-1.3,0.1c-0.9,0.1-1.6,0.3-2.1,0.6s-0.7,0.8-0.7,1.5c0,0.4,0.1,0.8,0.3,1.1s0.5,0.5,0.9,0.7
		s0.8,0.2,1.3,0.2c0.7,0,1.3-0.1,1.8-0.4c0.5-0.3,0.9-0.6,1.2-1.1s0.4-1,0.4-1.5v-4.2c0-0.5-0.1-0.9-0.3-1.3
		c-0.2-0.4-0.5-0.6-0.9-0.8s-0.9-0.3-1.5-0.3c-0.8,0-1.4,0.2-1.8,0.5c-0.5,0.3-0.8,0.7-0.9,1.2h-2.6c0.1-0.7,0.4-1.4,0.8-2
		c0.5-0.6,1.1-1,1.9-1.4c0.8-0.3,1.7-0.5,2.7-0.5c0.9,0,1.7,0.1,2.5,0.4c0.8,0.3,1.4,0.7,2,1.4c0.5,0.7,0.8,1.6,0.8,2.9v8.9h-2.6
		V647h-0.1c-0.2,0.4-0.4,0.7-0.8,1c-0.3,0.3-0.8,0.6-1.3,0.8s-1.2,0.3-1.9,0.3c-0.9,0-1.6-0.2-2.3-0.5s-1.2-0.8-1.6-1.4
		c-0.4-0.6-0.6-1.3-0.6-2.2c0-1.4,0.5-2.4,1.4-3s2.1-0.9,3.6-1c0.2,0,1-0.1,2.3-0.1h1.3v1.9C981.7,642.7,981,642.8,979.9,642.9z"/>
	<path class="st2" d="M993.1,648.8h-2.8l-4.9-13.4h2.8l3.4,10.3h0.1l3.4-10.3h2.8L993.1,648.8z"/>
	<path class="st2" d="M1001.6,648.2c-1-0.6-1.7-1.4-2.2-2.4s-0.8-2.2-0.8-3.6s0.3-2.6,0.8-3.7s1.2-1.9,2.2-2.5
		c0.9-0.6,2-0.9,3.2-0.9c1.1,0,2.1,0.2,3,0.7s1.6,1.2,2.2,2.2c0.5,1,0.8,2.3,0.8,3.8v0.9h-10.7v-2h8.1c0-0.7-0.1-1.3-0.4-1.8
		c-0.3-0.5-0.7-0.9-1.2-1.3s-1.1-0.5-1.8-0.5s-1.3,0.2-1.9,0.5c-0.5,0.3-1,0.8-1.3,1.4s-0.5,1.2-0.5,1.9v1.5c0,0.9,0.2,1.6,0.5,2.3
		c0.3,0.6,0.8,1.1,1.3,1.4s1.2,0.5,2,0.5c0.5,0,0.9-0.1,1.3-0.2c0.4-0.1,0.7-0.3,1-0.5s0.5-0.5,0.6-0.7h2.7
		c-0.2,0.7-0.6,1.4-1.1,1.9s-1.2,1-1.9,1.3s-1.6,0.5-2.6,0.5C1003.7,649.1,1002.6,648.8,1001.6,648.2z"/>
	<path class="st2" d="M1012.9,635.4h2.5v2.2h0.1c0.2-0.7,0.7-1.3,1.3-1.7s1.3-0.6,2.1-0.6c0.4,0,0.8,0,1.1,0.1v2.5
		c-0.1,0-0.3-0.1-0.6-0.1s-0.5-0.1-0.8-0.1c-0.6,0-1.1,0.1-1.6,0.4c-0.5,0.3-0.9,0.6-1.1,1.1c-0.3,0.5-0.4,1-0.4,1.6v8.2h-2.6V635.4
		z"/>
	<path class="st2" d="M1020.9,648.8c-0.3-0.2-0.5-0.4-0.6-0.6s-0.2-0.6-0.2-0.9c0-0.3,0.1-0.6,0.2-0.9s0.4-0.5,0.6-0.6
		c0.3-0.2,0.6-0.2,0.9-0.2c0.3,0,0.6,0.1,0.9,0.2c0.3,0.2,0.5,0.4,0.6,0.6s0.2,0.6,0.2,0.9c0,0.3-0.1,0.6-0.2,0.9s-0.4,0.5-0.6,0.6
		s-0.6,0.2-0.9,0.2C1021.4,649,1021.1,648.9,1020.9,648.8z"/>
	<path class="st2" d="M1028.5,648.2c-1-0.6-1.7-1.4-2.2-2.5c-0.5-1-0.8-2.2-0.8-3.6c0-1.4,0.3-2.6,0.8-3.6c0.5-1.1,1.2-1.9,2.2-2.5
		c0.9-0.6,2-0.9,3.3-0.9c1,0,1.9,0.2,2.7,0.6c0.8,0.4,1.5,0.9,1.9,1.6s0.8,1.5,0.9,2.4h-2.6c-0.1-0.4-0.3-0.8-0.5-1.2
		c-0.3-0.3-0.6-0.6-1-0.8s-0.9-0.3-1.4-0.3c-0.7,0-1.4,0.2-1.9,0.6s-1,0.9-1.3,1.6s-0.5,1.5-0.5,2.5s0.2,1.8,0.5,2.5
		s0.7,1.3,1.3,1.6c0.5,0.4,1.2,0.6,1.9,0.6c0.5,0,0.9-0.1,1.4-0.3c0.4-0.2,0.7-0.4,1-0.8c0.3-0.3,0.5-0.8,0.6-1.2h2.6
		c-0.1,0.9-0.4,1.7-0.9,2.3s-1.1,1.2-1.9,1.6c-0.8,0.4-1.7,0.6-2.7,0.6C1030.6,649.1,1029.5,648.8,1028.5,648.2z"/>
	<path class="st2" d="M1041.7,648.2c-1-0.6-1.7-1.4-2.2-2.4s-0.8-2.3-0.8-3.6c0-1.4,0.3-2.6,0.8-3.6s1.3-1.9,2.2-2.4
		c1-0.6,2.1-0.9,3.3-0.9c1.2,0,2.3,0.3,3.3,0.9c0.9,0.6,1.7,1.4,2.2,2.4s0.8,2.3,0.8,3.6c0,1.4-0.3,2.6-0.8,3.6s-1.2,1.9-2.2,2.4
		c-0.9,0.6-2,0.9-3.3,0.9C1043.8,649.1,1042.7,648.8,1041.7,648.2z M1047,646.3c0.5-0.4,0.9-1,1.2-1.7c0.3-0.7,0.4-1.5,0.4-2.4
		s-0.1-1.7-0.4-2.4s-0.7-1.3-1.2-1.7s-1.2-0.6-2-0.6s-1.5,0.2-2,0.6c-0.5,0.4-1,1-1.2,1.7c-0.3,0.7-0.4,1.5-0.4,2.4s0.1,1.7,0.4,2.4
		s0.7,1.3,1.2,1.7s1.2,0.6,2,0.6S1046.5,646.7,1047,646.3z"/>
	<path class="st2" d="M1053.4,635.4h2.5v2.2h0.2c0.3-0.7,0.8-1.3,1.4-1.7s1.4-0.6,2.3-0.6c0.6,0,1.1,0.1,1.6,0.3s0.9,0.4,1.2,0.8
		c0.3,0.4,0.6,0.8,0.8,1.3h0.1c0.2-0.5,0.5-0.9,0.9-1.3c0.4-0.4,0.8-0.6,1.4-0.8c0.5-0.2,1.1-0.3,1.7-0.3c0.8,0,1.6,0.2,2.2,0.5
		s1.1,0.9,1.5,1.5c0.4,0.7,0.5,1.5,0.5,2.5v9h-2.6v-8.7c0-0.9-0.2-1.5-0.7-1.9s-1.1-0.6-1.8-0.6c-0.6,0-1,0.1-1.4,0.4
		c-0.4,0.2-0.7,0.6-0.9,1c-0.2,0.4-0.3,0.9-0.3,1.4v8.6h-2.6v-8.9c0-0.5-0.1-0.9-0.3-1.3c-0.2-0.4-0.5-0.6-0.9-0.8s-0.8-0.3-1.3-0.3
		s-0.9,0.1-1.4,0.4c-0.4,0.3-0.8,0.6-1,1.1c-0.3,0.5-0.4,1-0.4,1.6v8.3h-2.6L1053.4,635.4L1053.4,635.4z"/>
	<path class="st2" d="M786.7,672.3c0.9,0.5,1.6,1.1,2.1,2s0.8,1.8,0.8,2.8c0,1.1-0.3,2-0.8,2.9s-1.2,1.5-2.1,2
		c-0.9,0.5-1.9,0.7-3,0.7s-2.1-0.2-3-0.7s-1.6-1.1-2.1-2c-0.5-0.8-0.8-1.8-0.8-2.9c0-1.1,0.3-2,0.8-2.8s1.2-1.5,2.1-2
		c0.9-0.5,1.9-0.7,3-0.7S785.8,671.9,786.7,672.3z M781.9,674.1c-0.6,0.3-1,0.7-1.3,1.2s-0.5,1.1-0.5,1.8s0.2,1.3,0.5,1.8
		s0.7,0.9,1.3,1.2s1.2,0.4,1.8,0.4c0.7,0,1.3-0.1,1.8-0.4c0.5-0.3,1-0.7,1.3-1.2s0.5-1.1,0.5-1.8s-0.2-1.3-0.5-1.8s-0.7-0.9-1.3-1.2
		c-0.5-0.3-1.2-0.4-1.8-0.4C783.1,673.7,782.4,673.8,781.9,674.1z M783.6,690.6h-2.3v-6h2.3V690.6z M796.4,691.8h-15.1v-1.9h15.1
		V691.8z M795.7,686.2h-2.3v-16.1h2.3V686.2z"/>
	<path class="st2" d="M805.4,679.1c-0.5,1.1-1.2,2.1-2.1,3c-0.9,0.8-2,1.5-3.3,1.9l-1.1-1.8c1.1-0.4,2.1-0.9,2.9-1.6
		c0.8-0.7,1.5-1.5,1.9-2.4s0.6-1.8,0.6-2.8v-1.1h1.9v1.1C806.1,676.7,805.9,678,805.4,679.1z M811.3,674.9h-12V673h12V674.9z
		 M805.2,691h-2.4v-5.8h2.4V691z M817.8,691.8h-15v-1.9h15V691.8z M806.5,673.7h-2.4v-3.4h2.4V673.7z M807.2,678
		c0.4,0.8,1.1,1.6,1.9,2.2c0.8,0.7,1.8,1.2,2.9,1.5l-1.1,1.9c-1.3-0.4-2.4-1-3.3-1.8c-0.9-0.8-1.7-1.8-2.2-2.9
		c-0.5-1.1-0.8-2.3-0.8-3.6v-1.1h1.9v1.1C806.5,676.3,806.7,677.2,807.2,678z M816.1,678.7h-5.5v-1.9h5.5V678.7z M817.2,686.6h-2.3
		v-16.5h2.3V686.6z"/>
	<path class="st2" d="M827.4,680.5c2.3-0.1,4.5-0.3,6.5-0.5l0.1,1.7c-2.1,0.3-4.3,0.6-6.6,0.7c-2.3,0.1-4.7,0.2-7.2,0.2l-0.2-1.9
		C822.6,680.6,825.1,680.5,827.4,680.5z M831.1,673.4h-9.8v-1.9h9.8V673.4z M834.3,684.6c1.1,0.3,2,0.8,2.6,1.4s0.9,1.3,0.9,2.1
		c0,0.9-0.3,1.6-0.9,2.2s-1.5,1.1-2.6,1.4s-2.5,0.5-4,0.5s-2.9-0.2-4-0.5s-2-0.8-2.6-1.4c-0.6-0.6-0.9-1.3-0.9-2.2
		c0-0.8,0.3-1.5,0.9-2.1c0.6-0.6,1.5-1.1,2.6-1.4c1.1-0.3,2.5-0.5,4-0.5C831.9,684.1,833.2,684.3,834.3,684.6z M826.8,681.6h-2.3
		v-5.4h2.3V681.6z M827.6,686.2c-0.8,0.2-1.4,0.4-1.8,0.8c-0.4,0.3-0.6,0.7-0.6,1.2s0.2,0.9,0.6,1.2s1,0.6,1.8,0.8s1.7,0.3,2.8,0.3
		s2-0.1,2.8-0.3s1.3-0.4,1.7-0.8s0.6-0.7,0.6-1.2s-0.2-0.8-0.6-1.2c-0.4-0.3-1-0.6-1.8-0.8s-1.7-0.3-2.7-0.3
		C829.3,685.9,828.4,686,827.6,686.2z M832.3,675.7c-0.1,0.9-0.2,1.9-0.5,3l-2.3-0.2c0.2-1.1,0.4-2.1,0.4-3c0.1-0.9,0.1-1.8,0.1-2.8
		v-1.3h2.3v1.3C832.4,673.8,832.4,674.8,832.3,675.7z M837.6,683.8h-2.4v-13.7h2.4V683.8z M840.7,677.9h-4.1v-2h4.1V677.9z"/>
	<path class="st2" d="M850.5,672c0.9,0.5,1.6,1.1,2.1,1.9c0.5,0.8,0.8,1.7,0.8,2.8c0,1-0.3,2-0.8,2.8s-1.2,1.5-2.1,1.9
		c-0.9,0.5-1.9,0.7-2.9,0.7c-1.1,0-2.1-0.2-3-0.7s-1.6-1.1-2.1-1.9c-0.5-0.8-0.8-1.7-0.8-2.8c0-1,0.3-1.9,0.8-2.8
		c0.5-0.8,1.2-1.4,2.1-1.9s1.9-0.7,3-0.7C848.7,671.3,849.7,671.6,850.5,672z M845.8,673.8c-0.5,0.3-1,0.7-1.3,1.2s-0.5,1.1-0.5,1.7
		c0,0.7,0.2,1.3,0.5,1.8s0.7,0.9,1.3,1.2c0.5,0.3,1.2,0.4,1.8,0.4c0.7,0,1.3-0.1,1.8-0.4c0.5-0.3,1-0.7,1.3-1.2s0.5-1.1,0.5-1.8
		s-0.2-1.2-0.5-1.7s-0.7-0.9-1.3-1.2c-0.5-0.3-1.1-0.4-1.8-0.4C846.9,673.3,846.3,673.5,845.8,673.8z M859.9,692.2h-2.3v-6.1h-12.7
		v-1.9h15V692.2z M858.3,675.2h-6.7v-1.9h6.7V675.2z M858.3,680.1h-6.7v-1.9h6.7V680.1z M859.9,683.2h-2.3v-13.1h2.3V683.2z"/>
	<path class="st2" d="M869.7,680.8c-0.5,1.6-1.3,3-2.2,4.2c-1,1.2-2.1,2.1-3.4,2.8l-1.5-2c1.2-0.5,2.2-1.3,3.1-2.3
		c0.9-1,1.6-2.2,2.1-3.6s0.8-2.7,0.8-4.1V672h1.9v3.8C870.5,677.5,870.3,679.2,869.7,680.8z M871.7,679.7c0.5,1.3,1.2,2.4,2.1,3.4
		c0.9,1,1.9,1.8,3,2.3l-1.4,1.9c-1.2-0.6-2.4-1.5-3.3-2.6c-1-1.2-1.7-2.5-2.3-4.1s-0.8-3.1-0.8-4.8V672h2v3.8
		C871,677.1,871.2,678.4,871.7,679.7z M881.2,692.3h-2.4v-22.2h2.4V692.3z"/>
	<path class="st2" d="M896.6,680.7c-0.5,1.6-1.2,3-2.2,4.2c-0.9,1.2-2,2.2-3.2,2.8l-1.5-1.9c1.1-0.5,2.1-1.3,3-2.4
		c0.9-1,1.5-2.2,2-3.6c0.5-1.3,0.7-2.7,0.7-4.1v-3.8h1.9v3.8C897.4,677.4,897.2,679.1,896.6,680.7z M898.6,679.7
		c0.5,1.3,1.1,2.4,2,3.4s1.8,1.7,2.9,2.2l-1.4,1.9c-1.2-0.6-2.3-1.5-3.2-2.7s-1.6-2.5-2.1-4s-0.8-3.1-0.8-4.8v-3.8h1.9v3.8
		C897.9,677.1,898.1,678.4,898.6,679.7z M907.2,679.4h-6.1v-1.9h6.1V679.4z M908.3,692.3H906v-22.2h2.3V692.3z"/>
	<path class="st2" d="M931.4,682.9h-20.2V681h20.2V682.9z M927.7,673.4h-14v-1.9h14V673.4z M922.4,692.3h-2.3v-10h2.3V692.3z
		 M928.8,676.2c0,0.8-0.1,1.7-0.2,2.7c-0.1,1-0.3,2.1-0.6,3.3l-2.3-0.3c0.3-1.1,0.5-2.2,0.6-3.2s0.2-1.8,0.2-2.6s0-1.6,0-2.7v-2h2.3
		v2C928.9,674.5,928.8,675.4,928.8,676.2z"/>
	<path class="st2" d="M948.7,677c-0.8,1.6-2,3-3.6,4.2c-1.5,1.2-3.4,2.1-5.5,2.8l-1-1.9c1.8-0.6,3.4-1.3,4.7-2.3
		c1.3-0.9,2.3-2,3.1-3.2s1.1-2.5,1.1-3.9v-1h2.5C949.9,673.7,949.5,675.4,948.7,677z M948.9,673.8h-9.2v-2h9.2V673.8z M944.8,690.9
		h-2.4v-6.1h2.4V690.9z M957.3,691.8h-14.8v-1.9h14.8V691.8z M954.8,678.8h-5v-2h5V678.8z M956.7,686.4h-2.3v-16.3h2.3V686.4z"/>
	<path class="st2" d="M966.5,681.3c-0.6,1.5-1.3,2.9-2.3,4.1c-1,1.2-2.1,2.1-3.3,2.7l-1.4-1.8c1.1-0.5,2.1-1.3,3-2.3
		s1.6-2.2,2.1-3.4c0.5-1.3,0.8-2.5,0.8-3.8v-3.3h1.9v3.3C967.3,678.2,967.1,679.8,966.5,681.3z M972.8,674.3h-12.5v-1.9h12.5V674.3z
		 M968.5,680.3c0.5,1.2,1.2,2.3,2.1,3.2c0.9,0.9,1.9,1.7,3,2.1l-1.3,1.8c-1.3-0.6-2.4-1.4-3.3-2.5c-1-1.1-1.7-2.4-2.3-3.8
		c-0.5-1.4-0.8-2.9-0.8-4.5v-3.3h1.9v3.3C967.8,677.9,968,679.1,968.5,680.3z M978,692.2h-2.4v-22.1h2.4V692.2z"/>
	<path class="st2" d="M1001.3,689.6H981v-1.9h20.3V689.6z M998.8,678.6h-13v4.3h-2.3v-6.1h13v-3.1h-13v-1.9h15.3V678.6z
		 M999.3,683.8h-15.8v-1.9h15.8V683.8z M992.2,688.5h-2.3v-5.4h2.3V688.5z"/>
	<path class="st2" d="M1011.9,689.8c-1-0.4-1.7-1-2.3-1.7s-0.8-1.6-0.9-2.6h2.7c0,0.5,0.2,1,0.6,1.3c0.3,0.4,0.8,0.7,1.3,0.9
		s1.1,0.3,1.8,0.3s1.4-0.1,1.9-0.4c0.6-0.3,1-0.6,1.3-1s0.5-0.9,0.5-1.5s-0.2-1.1-0.5-1.6s-0.8-0.8-1.4-1.1
		c-0.6-0.3-1.3-0.4-2.2-0.4h-1.5v-2.2h1.5c0.7,0,1.3-0.1,1.8-0.4c0.5-0.2,0.9-0.6,1.2-1s0.4-0.9,0.4-1.5c0-0.5-0.1-1-0.4-1.4
		c-0.3-0.4-0.6-0.7-1.1-1c-0.5-0.2-1-0.3-1.6-0.3s-1.2,0.1-1.7,0.3s-0.9,0.5-1.3,0.9c-0.3,0.4-0.5,0.9-0.5,1.4h-2.6
		c0-1,0.3-1.8,0.9-2.6s1.3-1.3,2.2-1.7s1.9-0.6,3-0.6s2.2,0.2,3,0.6s1.5,1,2,1.8c0.5,0.7,0.7,1.6,0.7,2.5c0,0.7-0.1,1.3-0.4,1.8
		c-0.3,0.5-0.6,1-1.1,1.4s-1,0.6-1.7,0.8v0.1c0.8,0.1,1.5,0.4,2.1,0.7c0.6,0.4,1,0.9,1.3,1.5s0.4,1.3,0.4,2c0,1-0.3,1.9-0.8,2.6
		c-0.6,0.8-1.3,1.4-2.3,1.9c-1,0.4-2.1,0.7-3.3,0.7C1013.9,690.4,1012.8,690.2,1011.9,689.8z"/>
	<path class="st2" d="M1030.9,690.2h-2.7V675h-0.1l-4.3,2.8v-2.6l4.4-2.9h2.7V690.2z"/>
	<path class="st2" d="M1037.8,689.8c-1-0.4-1.8-1-2.3-1.8s-0.8-1.6-0.8-2.6c0-0.8,0.2-1.5,0.5-2.1c0.3-0.7,0.8-1.2,1.3-1.6
		c0.6-0.4,1.2-0.7,1.9-0.8v-0.1c-0.6-0.1-1.1-0.4-1.6-0.8c-0.5-0.4-0.8-0.8-1.1-1.4c-0.3-0.6-0.4-1.2-0.4-1.8c0-0.9,0.3-1.7,0.8-2.5
		c0.5-0.7,1.2-1.3,2.1-1.7s1.9-0.6,3-0.6s2.1,0.2,3,0.6c0.9,0.4,1.6,1,2.1,1.7s0.8,1.5,0.8,2.5c0,0.6-0.1,1.2-0.4,1.8
		s-0.6,1-1.1,1.4s-1,0.6-1.6,0.8v0.1c0.7,0.1,1.3,0.4,1.9,0.8c0.6,0.4,1,1,1.4,1.6c0.3,0.7,0.5,1.4,0.5,2.1c0,1-0.3,1.8-0.8,2.6
		c-0.6,0.8-1.3,1.4-2.3,1.8c-1,0.4-2.1,0.6-3.4,0.6S1038.8,690.2,1037.8,689.8z M1043.2,687.8c0.6-0.2,1-0.6,1.3-1.1s0.5-1,0.5-1.5
		c0-0.6-0.2-1.2-0.5-1.7s-0.8-0.9-1.4-1.1c-0.6-0.3-1.2-0.4-2-0.4s-1.4,0.1-2,0.4c-0.6,0.3-1,0.7-1.4,1.1c-0.3,0.5-0.5,1-0.5,1.7
		c0,0.6,0.1,1.1,0.4,1.5c0.3,0.5,0.8,0.8,1.3,1.1c0.6,0.2,1.2,0.4,2,0.4C1042,688.2,1042.6,688,1043.2,687.8z M1042.9,679.5
		c0.5-0.2,0.9-0.6,1.2-1c0.3-0.4,0.4-0.9,0.4-1.5s-0.1-1-0.4-1.5c-0.3-0.4-0.6-0.8-1.1-1s-1.1-0.3-1.7-0.3s-1.2,0.1-1.7,0.3
		s-0.9,0.6-1.1,1c-0.3,0.4-0.4,0.9-0.4,1.5c0,0.5,0.1,1,0.4,1.5s0.7,0.8,1.2,1s1,0.4,1.7,0.4
		C1041.8,679.9,1042.4,679.7,1042.9,679.5z"/>
	<path class="st2" d="M1052.7,675.3h5.6v-3.7h2.3v11.2h-10.2v-11.2h2.3L1052.7,675.3L1052.7,675.3z M1058.3,680.9v-3.7h-5.6v3.7
		H1058.3z M1055.7,690.9h-2.4v-6h2.4V690.9z M1068.3,691.8h-15v-1.9h15V691.8z M1066.1,678.2h-6.2v-1.9h6.2V678.2z M1067.8,686.5
		h-2.3v-16.4h2.3V686.5z"/>
	<path class="st2" d="M1081.2,676.1c-0.8,1.4-2,2.6-3.6,3.6s-3.5,1.7-5.7,2.2l-0.8-1.9c1.9-0.4,3.6-1,4.9-1.7s2.3-1.6,3-2.6
		s1-2.1,1-3.3v-1.3h2.5C1082.4,673,1082,674.7,1081.2,676.1z M1081.4,673h-9.2v-1.9h9.2V673z M1089.1,687.9H1077v3.1h-2.3v-4.9h12.2
		v-2h-12.2v-1.9h14.5L1089.1,687.9L1089.1,687.9z M1089.8,692.1h-15.2v-1.9h15.2V692.1z M1089.1,681.4h-2.3v-11.3h2.3V681.4z"/>
	<path class="st2" d="M1098.5,688.2l6.2-6.3c0.8-0.8,1.3-1.4,1.7-1.9c0.4-0.5,0.7-0.9,0.9-1.4c0.2-0.5,0.3-1,0.3-1.5
		c0-0.6-0.1-1.1-0.4-1.5s-0.7-0.8-1.2-1s-1.1-0.4-1.7-0.4c-0.7,0-1.2,0.1-1.7,0.4c-0.5,0.3-0.9,0.6-1.1,1.1s-0.4,1-0.4,1.7h-2.6
		c0-1.1,0.3-2,0.8-2.8s1.2-1.5,2.1-1.9c0.9-0.5,1.9-0.7,3-0.7s2.1,0.2,3,0.7c0.9,0.4,1.6,1,2.1,1.8s0.7,1.6,0.7,2.6
		c0,0.7-0.1,1.3-0.4,2c-0.3,0.6-0.7,1.3-1.3,2.1c-0.6,0.8-1.5,1.7-2.6,2.8l-3.6,3.7v0.1h8.2v2.3h-12V688.2z"/>
	<path class="st2" d="M1115.7,689.3c-1-0.7-1.7-1.8-2.2-3.1c-0.5-1.4-0.8-3-0.8-5c0-1.9,0.3-3.6,0.8-5s1.3-2.4,2.3-3.2
		c1-0.7,2.2-1.1,3.5-1.1c1.4,0,2.5,0.4,3.5,1.1c1,0.7,1.7,1.8,2.3,3.2c0.5,1.4,0.8,3,0.8,5c0,1.9-0.3,3.6-0.8,5s-1.3,2.4-2.2,3.1
		s-2.2,1.1-3.5,1.1C1117.9,690.4,1116.7,690,1115.7,689.3z M1121.3,687.3c0.6-0.5,1-1.3,1.3-2.3s0.5-2.3,0.4-3.7
		c0-1.5-0.2-2.7-0.5-3.7s-0.7-1.8-1.3-2.3c-0.6-0.5-1.3-0.8-2.1-0.8c-0.8,0-1.5,0.3-2.1,0.8s-1,1.3-1.3,2.3s-0.5,2.3-0.5,3.7
		c0,1.5,0.2,2.7,0.5,3.7s0.8,1.8,1.3,2.3s1.3,0.8,2.1,0.8C1120.1,688.1,1120.8,687.8,1121.3,687.3z"/>
	<path class="st2" d="M1140.6,690.2h-2.7V675h-0.1l-4.3,2.8v-2.6l4.4-2.9h2.7V690.2z"/>
	<path class="st2" d="M1151.5,690.2h-2.7V675h-0.1l-4.3,2.8v-2.6l4.4-2.9h2.7V690.2z"/>
	<path class="st2" d="M1158.2,689.3c-1-0.7-1.7-1.8-2.2-3.1c-0.5-1.4-0.8-3-0.8-5c0-1.9,0.3-3.6,0.8-5s1.3-2.4,2.3-3.2
		c1-0.7,2.2-1.1,3.5-1.1c1.4,0,2.5,0.4,3.5,1.1c1,0.7,1.7,1.8,2.3,3.2c0.5,1.4,0.8,3,0.8,5c0,1.9-0.3,3.6-0.8,5s-1.3,2.4-2.2,3.1
		s-2.2,1.1-3.5,1.1C1160.4,690.4,1159.2,690,1158.2,689.3z M1163.8,687.3c0.6-0.5,1-1.3,1.3-2.3s0.5-2.3,0.4-3.7
		c0-1.5-0.2-2.7-0.5-3.7s-0.7-1.8-1.3-2.3c-0.6-0.5-1.3-0.8-2.1-0.8c-0.8,0-1.5,0.3-2.1,0.8s-1,1.3-1.3,2.3s-0.5,2.3-0.5,3.7
		c0,1.5,0.2,2.7,0.5,3.7s0.8,1.8,1.3,2.3s1.3,0.8,2.1,0.8C1162.6,688.1,1163.2,687.8,1163.8,687.3z"/>
	<path class="st2" d="M1190.1,689.8h-20.3v-1.9h20.3V689.8z M1189.1,675.1h-18.2v-1.9h18.2V675.1z M1183.9,677
		c1.1,0.3,2,0.8,2.6,1.4c0.6,0.6,0.9,1.4,0.9,2.3s-0.3,1.7-0.9,2.3s-1.4,1.1-2.6,1.5c-1.1,0.3-2.4,0.5-3.9,0.5s-2.8-0.2-3.9-0.5
		s-2-0.8-2.6-1.5s-0.9-1.4-0.9-2.3s0.3-1.6,0.9-2.3c0.6-0.6,1.4-1.1,2.6-1.4c1.1-0.3,2.4-0.5,3.9-0.5S1182.8,676.6,1183.9,677z
		 M1177.3,678.6c-0.7,0.2-1.3,0.5-1.7,0.8c-0.4,0.4-0.6,0.8-0.6,1.3s0.2,0.9,0.6,1.3c0.4,0.4,1,0.6,1.7,0.8s1.6,0.3,2.7,0.3
		c1,0,1.9-0.1,2.7-0.3c0.7-0.2,1.3-0.5,1.7-0.8c0.4-0.4,0.6-0.8,0.6-1.3s-0.2-0.9-0.6-1.3c-0.4-0.3-1-0.6-1.7-0.8
		c-0.8-0.2-1.6-0.3-2.7-0.3S1178,678.4,1177.3,678.6z M1181.1,674.4h-2.3v-4h2.3V674.4z M1181.1,688.6h-2.3v-4.1h2.3V688.6z"/>
	<path class="st2" d="M781.1,731.5h-2.7v-17.9h2.7V731.5z"/>
	<path class="st2" d="M786.7,731.5H784v-13.4h2.5v2.2h0.2c0.3-0.7,0.8-1.3,1.5-1.7s1.5-0.6,2.5-0.6c0.9,0,1.7,0.2,2.4,0.6
		c0.7,0.4,1.2,1,1.6,1.7s0.6,1.7,0.6,2.8v8.5h-2.6v-8.2c0-0.6-0.1-1.2-0.3-1.7s-0.5-0.8-1-1.1s-0.9-0.4-1.5-0.4s-1.1,0.1-1.6,0.4
		c-0.5,0.3-0.8,0.6-1.1,1.1s-0.4,1.1-0.4,1.8v8H786.7z"/>
	<path class="st2" d="M804.7,720.4c-0.4-0.3-1-0.5-1.7-0.5c-0.5,0-0.9,0.1-1.3,0.2c-0.4,0.2-0.7,0.4-0.9,0.6
		c-0.2,0.3-0.3,0.6-0.3,0.9c0,0.4,0.2,0.7,0.5,1s0.9,0.5,1.6,0.7l2.1,0.5c1.2,0.3,2.2,0.7,2.8,1.3s0.9,1.4,0.9,2.3
		c0,0.8-0.2,1.5-0.7,2.2c-0.4,0.6-1.1,1.1-1.9,1.5c-0.8,0.4-1.8,0.5-2.9,0.5c-1.1,0-2-0.2-2.8-0.5s-1.4-0.8-1.8-1.3
		s-0.7-1.3-0.9-2.1h2.7c0.1,0.6,0.4,1,0.9,1.3s1.1,0.5,1.9,0.5c0.6,0,1.1-0.1,1.5-0.2c0.4-0.1,0.8-0.4,1-0.6c0.2-0.3,0.4-0.6,0.4-1
		s-0.2-0.8-0.5-1.1s-0.9-0.5-1.6-0.7l-2.1-0.5c-1.2-0.3-2.1-0.7-2.8-1.3c-0.6-0.6-0.9-1.4-0.9-2.3c0-0.8,0.2-1.5,0.6-2.1
		c0.4-0.6,1-1.1,1.8-1.4c0.8-0.3,1.7-0.5,2.7-0.5s1.8,0.2,2.6,0.5s1.3,0.8,1.8,1.3c0.4,0.6,0.7,1.2,0.8,2h-2.5
		C805.4,721.2,805.1,720.7,804.7,720.4z"/>
	<path class="st2" d="M816.6,720.2h-7.3v-2.1h7.3V720.2z M813.9,714.9v12.7c0,0.5,0.1,0.8,0.2,1.1c0.1,0.3,0.3,0.4,0.6,0.5
		c0.2,0.1,0.5,0.1,0.8,0.1c0.4,0,0.8,0,1.3,0v2.3c-0.5,0.1-1,0.1-1.6,0.1c-0.7,0-1.4-0.1-2-0.4s-1.1-0.7-1.4-1.2
		c-0.4-0.5-0.5-1.2-0.5-2v-13.2L813.9,714.9L813.9,714.9z"/>
	<path class="st2" d="M824.8,725.5l-1.3,0.1c-0.9,0.1-1.6,0.3-2.1,0.6s-0.7,0.8-0.7,1.5c0,0.4,0.1,0.8,0.3,1.1s0.5,0.5,0.9,0.7
		s0.8,0.2,1.3,0.2c0.7,0,1.3-0.1,1.8-0.4c0.5-0.3,0.9-0.6,1.2-1.1s0.4-1,0.4-1.5v-4.2c0-0.5-0.1-0.9-0.3-1.3
		c-0.2-0.4-0.5-0.6-0.9-0.8s-0.9-0.3-1.5-0.3c-0.8,0-1.4,0.2-1.8,0.5c-0.5,0.3-0.8,0.7-0.9,1.2h-2.6c0.1-0.7,0.4-1.4,0.8-2
		c0.5-0.6,1.1-1,1.9-1.4c0.8-0.3,1.7-0.5,2.7-0.5c0.9,0,1.7,0.1,2.5,0.4c0.8,0.3,1.4,0.7,2,1.4c0.5,0.7,0.8,1.6,0.8,2.9v8.9h-2.6
		v-1.8h-0.1c-0.2,0.4-0.4,0.7-0.8,1c-0.3,0.3-0.8,0.6-1.3,0.8s-1.2,0.3-1.9,0.3c-0.9,0-1.6-0.2-2.3-0.5s-1.2-0.8-1.6-1.4
		c-0.4-0.6-0.6-1.3-0.6-2.2c0-1.4,0.5-2.4,1.4-3s2.1-0.9,3.6-1c0.2,0,1-0.1,2.3-0.1h1.3v1.9C826.6,725.4,825.9,725.5,824.8,725.5z"
		/>
	<path class="st2" d="M831.9,718.1h2.5v2.2h0.1c0.2-0.7,0.7-1.3,1.3-1.7s1.3-0.6,2.1-0.6c0.4,0,0.8,0,1.1,0.1v2.5
		c-0.1,0-0.3-0.1-0.6-0.1s-0.5-0.1-0.8-0.1c-0.6,0-1.1,0.1-1.6,0.4c-0.5,0.3-0.9,0.6-1.1,1.1c-0.3,0.5-0.4,1-0.4,1.6v8.2h-2.6V718.1
		z"/>
	<path class="st2" d="M847.1,721.7c-0.3-0.2-0.5-0.4-0.6-0.6s-0.2-0.6-0.2-0.9c0-0.3,0.1-0.6,0.2-0.9c0.2-0.3,0.4-0.5,0.6-0.6
		s0.6-0.2,0.9-0.2c0.3,0,0.6,0.1,0.9,0.2s0.5,0.4,0.6,0.6c0.2,0.3,0.2,0.6,0.2,0.9c0,0.3-0.1,0.6-0.2,0.9s-0.4,0.5-0.6,0.6
		c-0.3,0.2-0.6,0.2-0.9,0.2C847.7,721.9,847.4,721.8,847.1,721.7z M847.1,731.4c-0.3-0.2-0.5-0.4-0.6-0.6s-0.2-0.6-0.2-0.9
		c0-0.3,0.1-0.6,0.2-0.9s0.4-0.5,0.6-0.6c0.3-0.2,0.6-0.2,0.9-0.2c0.3,0,0.6,0.1,0.9,0.2c0.3,0.2,0.5,0.4,0.6,0.6s0.2,0.6,0.2,0.9
		c0,0.3-0.1,0.6-0.2,0.9s-0.4,0.5-0.6,0.6s-0.6,0.2-0.9,0.2C847.7,731.7,847.4,731.6,847.1,731.4z"/>
	<path class="st2" d="M860.8,731.5h-2.6v-17.9h2.6v6.7h0.2c0.3-0.7,0.8-1.3,1.5-1.7s1.5-0.6,2.5-0.6c0.9,0,1.8,0.2,2.4,0.6
		c0.7,0.4,1.2,1,1.6,1.7c0.4,0.8,0.6,1.7,0.6,2.8v8.5H867v-8.2c0-0.6-0.1-1.2-0.3-1.7s-0.6-0.8-1-1.1c-0.4-0.2-0.9-0.4-1.5-0.4
		s-1.2,0.1-1.6,0.4c-0.5,0.3-0.9,0.6-1.1,1.1c-0.3,0.5-0.4,1.1-0.4,1.8v8H860.8z"/>
	<path class="st2" d="M871.1,718.1h2.7l2.6,9.8h0.1l2.6-9.8h2.7l2.6,9.8h0.1l2.6-9.8h2.7l-3.9,13.4h-2.7l-2.7-9.7h-0.2l-2.7,9.7
		h-2.7L871.1,718.1z"/>
	<path class="st2" d="M897.8,725.5l-1.3,0.1c-0.9,0.1-1.6,0.3-2.1,0.6s-0.7,0.8-0.7,1.5c0,0.4,0.1,0.8,0.3,1.1s0.5,0.5,0.9,0.7
		s0.8,0.2,1.3,0.2c0.7,0,1.3-0.1,1.8-0.4c0.5-0.3,0.9-0.6,1.2-1.1s0.4-1,0.4-1.5v-4.2c0-0.5-0.1-0.9-0.3-1.3
		c-0.2-0.4-0.5-0.6-0.9-0.8s-0.9-0.3-1.5-0.3c-0.8,0-1.4,0.2-1.8,0.5c-0.5,0.3-0.8,0.7-0.9,1.2h-2.6c0.1-0.7,0.4-1.4,0.8-2
		c0.5-0.6,1.1-1,1.9-1.4c0.8-0.3,1.7-0.5,2.7-0.5c0.9,0,1.7,0.1,2.5,0.4c0.8,0.3,1.4,0.7,2,1.4c0.5,0.7,0.8,1.6,0.8,2.9v8.9h-2.6
		v-1.8h-0.1c-0.2,0.4-0.4,0.7-0.8,1c-0.3,0.3-0.8,0.6-1.3,0.8s-1.2,0.3-1.9,0.3c-0.9,0-1.6-0.2-2.3-0.5s-1.2-0.8-1.6-1.4
		c-0.4-0.6-0.6-1.3-0.6-2.2c0-1.4,0.5-2.4,1.4-3s2.1-0.9,3.6-1c0.2,0,1-0.1,2.3-0.1h1.3v1.9C899.6,725.4,898.9,725.5,897.8,725.5z"
		/>
	<path class="st2" d="M907.5,731.5h-2.6v-13.4h2.5v2.2h0.2c0.3-0.7,0.8-1.3,1.5-1.7s1.5-0.6,2.5-0.6c0.9,0,1.7,0.2,2.4,0.6
		c0.7,0.4,1.2,1,1.6,1.7s0.6,1.7,0.6,2.8v8.5h-2.6v-8.2c0-0.6-0.1-1.2-0.3-1.7s-0.5-0.8-1-1.1s-0.9-0.4-1.5-0.4s-1.1,0.1-1.6,0.4
		c-0.5,0.3-0.8,0.6-1.1,1.1s-0.4,1.1-0.4,1.8v8H907.5z"/>
	<path class="st2" d="M921.5,736.3c-0.9-0.3-1.5-0.8-2-1.4c-0.5-0.6-0.8-1.3-0.9-2.2h2.7c0.1,0.6,0.5,1.1,1,1.4
		c0.6,0.3,1.3,0.5,2.2,0.5c1.1,0,1.9-0.2,2.5-0.7s0.9-1.2,0.9-2.3V729h-0.2c-0.2,0.4-0.5,0.8-0.8,1.1s-0.7,0.6-1.2,0.8
		s-1.2,0.4-1.9,0.4c-1.1,0-2-0.3-2.9-0.8s-1.5-1.3-2-2.3s-0.7-2.2-0.7-3.6c0-1.4,0.2-2.6,0.7-3.6s1.2-1.8,2-2.3s1.8-0.8,2.9-0.8
		c0.8,0,1.4,0.1,1.9,0.4c0.5,0.2,0.9,0.5,1.1,0.8s0.5,0.7,0.8,1.2h0.2v-2.2h2.6v13.7c0,1.1-0.3,2-0.8,2.8s-1.2,1.3-2.1,1.7
		c-0.9,0.4-2,0.5-3.2,0.5C923.3,736.8,922.4,736.6,921.5,736.3z M926.3,728.6c0.5-0.4,0.9-0.9,1.2-1.5c0.3-0.7,0.4-1.4,0.4-2.4
		c0-0.9-0.1-1.7-0.4-2.4c-0.3-0.7-0.7-1.2-1.2-1.6s-1.2-0.6-1.9-0.6s-1.4,0.2-1.9,0.6c-0.5,0.4-0.9,0.9-1.2,1.6
		c-0.3,0.7-0.4,1.5-0.4,2.3c0,0.9,0.1,1.7,0.4,2.3c0.3,0.7,0.7,1.2,1.2,1.5s1.2,0.5,1.9,0.5C925.2,729.1,925.8,728.9,926.3,728.6z"
		/>
	<path class="st2" d="M935.9,731.5h-2.6v-17.9h2.6v6.7h0.2c0.3-0.7,0.8-1.3,1.5-1.7s1.5-0.6,2.5-0.6c0.9,0,1.8,0.2,2.4,0.6
		c0.7,0.4,1.2,1,1.6,1.7c0.4,0.8,0.6,1.7,0.6,2.8v8.5h-2.6v-8.2c0-0.6-0.1-1.2-0.3-1.7s-0.6-0.8-1-1.1c-0.4-0.2-0.9-0.4-1.5-0.4
		s-1.2,0.1-1.6,0.4c-0.5,0.3-0.9,0.6-1.1,1.1c-0.3,0.5-0.4,1.1-0.4,1.8v8H935.9z"/>
	<path class="st2" d="M947,736.5v-2.2h0.5c0.2,0,0.4,0,0.7,0s0.6,0,0.8-0.1s0.4-0.2,0.7-0.5c0.2-0.3,0.4-0.7,0.6-1.2l0.3-0.9
		l-4.9-13.6h2.8l3.4,10.4h0.1l3.4-10.4h2.8l-5.5,15.2c-0.4,1.1-1,1.9-1.7,2.4c-0.7,0.6-1.6,0.8-2.7,0.8
		C947.9,736.5,947.4,736.5,947,736.5z"/>
	<path class="st2" d="M961.9,730.9c-1-0.6-1.7-1.4-2.2-2.4s-0.8-2.2-0.8-3.6s0.3-2.6,0.8-3.7s1.2-1.9,2.2-2.5c0.9-0.6,2-0.9,3.2-0.9
		c1.1,0,2.1,0.2,3,0.7s1.6,1.2,2.2,2.2c0.5,1,0.8,2.3,0.8,3.8v0.9h-10.7v-2h8.1c0-0.7-0.1-1.3-0.4-1.8c-0.3-0.5-0.7-0.9-1.2-1.3
		s-1.1-0.5-1.8-0.5s-1.3,0.2-1.9,0.5c-0.5,0.3-1,0.8-1.3,1.4s-0.5,1.2-0.5,1.9v1.5c0,0.9,0.2,1.6,0.5,2.3c0.3,0.6,0.8,1.1,1.3,1.4
		s1.2,0.5,2,0.5c0.5,0,0.9-0.1,1.3-0.2c0.4-0.1,0.7-0.3,1-0.5s0.5-0.5,0.6-0.7h2.7c-0.2,0.7-0.6,1.4-1.1,1.9s-1.2,1-1.9,1.3
		s-1.6,0.5-2.6,0.5C964,731.8,962.8,731.5,961.9,730.9z"/>
	<path class="st2" d="M975.8,718.1v14.3c0,0.9-0.2,1.7-0.5,2.3s-0.8,1.1-1.4,1.4c-0.6,0.3-1.4,0.5-2.4,0.5c-0.1,0-0.3,0-0.5,0v-2.3
		c0.1,0,0.3,0,0.4,0c0.4,0,0.7-0.1,1-0.2c0.3-0.1,0.4-0.4,0.6-0.6c0.1-0.3,0.2-0.6,0.2-1v-14.3h2.6V718.1z M973.6,715.8
		c-0.3-0.1-0.5-0.3-0.6-0.6c-0.1-0.2-0.2-0.5-0.2-0.8s0.1-0.5,0.2-0.8c0.1-0.2,0.3-0.4,0.6-0.6c0.3-0.1,0.5-0.2,0.8-0.2
		s0.6,0.1,0.9,0.2c0.3,0.1,0.5,0.3,0.6,0.6c0.1,0.2,0.2,0.5,0.2,0.8s-0.1,0.5-0.2,0.8c-0.1,0.2-0.3,0.4-0.6,0.6
		c-0.3,0.1-0.5,0.2-0.9,0.2C974.1,716,973.9,715.9,973.6,715.8z"/>
	<path class="st2" d="M979,715.8c-0.3-0.1-0.5-0.3-0.6-0.6c-0.1-0.2-0.2-0.5-0.2-0.8s0.1-0.5,0.2-0.8c0.1-0.2,0.3-0.4,0.6-0.6
		c0.3-0.1,0.5-0.2,0.8-0.2s0.6,0.1,0.9,0.2c0.3,0.1,0.5,0.3,0.6,0.6c0.1,0.2,0.2,0.5,0.2,0.8s-0.1,0.5-0.2,0.8
		c-0.1,0.2-0.3,0.4-0.6,0.6c-0.3,0.1-0.5,0.2-0.9,0.2C979.5,716,979.2,715.9,979,715.8z M978.5,718.1h2.6v13.4h-2.6V718.1z"/>
	<path class="st2" d="M986.5,731.5h-2.6v-13.4h2.5v2.2h0.2c0.3-0.7,0.8-1.3,1.5-1.7s1.5-0.6,2.5-0.6c0.9,0,1.7,0.2,2.4,0.6
		c0.7,0.4,1.2,1,1.6,1.7s0.6,1.7,0.6,2.8v8.5h-2.6v-8.2c0-0.6-0.1-1.2-0.3-1.7s-0.5-0.8-1-1.1s-0.9-0.4-1.5-0.4s-1.1,0.1-1.6,0.4
		c-0.5,0.3-0.8,0.6-1.1,1.1s-0.4,1.1-0.4,1.8v8H986.5z"/>
	<path class="st2" d="M1006.3,716.1L1006.3,716.1l-9.2-0.1v-2.3h12v2.4l-8,15.5h-2.8L1006.3,716.1z"/>
	<path class="st2" d="M1009.6,725.8l7.9-12.2h1.7v3.2h-1.1l-5.6,8.7v0.1h10.8v2.3h-13.7L1009.6,725.8L1009.6,725.8z M1018.2,727.3
		v-1v-12.7h2.6v17.9h-2.6V727.3z"/>
	<path class="st2" d="M1028.6,730.9c-1-0.5-1.8-1.5-2.5-2.7c-0.6-1.3-1-3-1-5c0-2.1,0.3-3.8,0.9-5.3s1.4-2.6,2.4-3.4
		c1-0.8,2.3-1.1,3.7-1.1c1.1,0,2.1,0.2,2.9,0.6c0.9,0.4,1.5,1,2.1,1.7c0.5,0.7,0.9,1.6,1,2.5h-2.7c-0.1-0.5-0.3-0.9-0.6-1.3
		c-0.3-0.4-0.7-0.7-1.1-0.9s-1-0.3-1.6-0.3c-0.9,0-1.7,0.3-2.3,0.8c-0.7,0.5-1.1,1.2-1.5,2.2c-0.3,1-0.5,2.1-0.5,3.5h0.2
		c0.3-0.5,0.7-0.9,1.2-1.3c0.5-0.4,1-0.6,1.6-0.8s1.2-0.3,1.8-0.3c1.1,0,2,0.3,2.9,0.8s1.6,1.2,2.1,2.1s0.8,1.9,0.8,3
		c0,1.2-0.3,2.2-0.8,3.1c-0.5,0.9-1.3,1.7-2.3,2.2s-2.1,0.8-3.3,0.8C1030.8,731.7,1029.7,731.4,1028.6,730.9z M1033.9,729
		c0.6-0.3,1-0.8,1.4-1.4c0.3-0.6,0.5-1.2,0.5-1.9s-0.2-1.3-0.5-1.9s-0.8-1-1.3-1.3c-0.6-0.3-1.2-0.5-1.9-0.5c-0.7,0-1.3,0.2-1.9,0.5
		s-1,0.8-1.4,1.4c-0.3,0.6-0.5,1.2-0.5,1.9s0.2,1.3,0.5,1.8c0.3,0.6,0.8,1,1.4,1.4s1.2,0.5,1.9,0.5
		C1032.7,729.5,1033.3,729.3,1033.9,729z"/>
	<path class="st2" d="M1043.8,731.1c-0.9-0.4-1.6-1-2.2-1.8c-0.5-0.7-0.8-1.6-0.9-2.5h2.6c0.1,0.5,0.2,1,0.6,1.4s0.7,0.7,1.2,0.9
		s1,0.4,1.6,0.4c0.7,0,1.3-0.2,1.9-0.5s1-0.8,1.3-1.3c0.3-0.6,0.5-1.2,0.5-1.9s-0.2-1.4-0.5-1.9s-0.8-1-1.4-1.3s-1.3-0.5-2-0.5
		s-1.4,0.1-1.9,0.4c-0.5,0.3-0.9,0.7-1.2,1.2h-2.6l1.2-10h10.1v2.3h-7.9l-0.6,5h0.2c0.4-0.4,0.9-0.6,1.5-0.9
		c0.6-0.2,1.2-0.3,1.9-0.3c1.1,0,2.1,0.3,3,0.8s1.6,1.2,2.1,2.1s0.8,1.9,0.7,3.1c0,1.2-0.3,2.2-0.8,3.1c-0.5,0.9-1.3,1.6-2.3,2.2
		s-2.1,0.8-3.3,0.8C1045.7,731.7,1044.7,731.5,1043.8,731.1z"/>
	<path class="st2" d="M778.4,754.9h2.7v7.8h8.9v-7.8h2.7v17.9H790V765h-8.9v7.8h-2.7L778.4,754.9L778.4,754.9z"/>
	<path class="st2" d="M798,772.2c-1-0.6-1.7-1.4-2.2-2.4s-0.8-2.3-0.8-3.6c0-1.4,0.3-2.6,0.8-3.6s1.3-1.9,2.2-2.4
		c1-0.6,2.1-0.9,3.3-0.9s2.3,0.3,3.3,0.9c0.9,0.6,1.7,1.4,2.2,2.4s0.8,2.3,0.8,3.6c0,1.4-0.3,2.6-0.8,3.6s-1.2,1.9-2.2,2.4
		c-0.9,0.6-2,0.9-3.3,0.9C800.1,773.1,799,772.8,798,772.2z M803.3,770.3c0.5-0.4,0.9-1,1.2-1.7s0.4-1.5,0.4-2.4s-0.1-1.7-0.4-2.4
		c-0.3-0.7-0.7-1.3-1.2-1.7s-1.2-0.6-2-0.6s-1.5,0.2-2,0.6c-0.5,0.4-1,1-1.2,1.7c-0.3,0.7-0.4,1.5-0.4,2.4s0.1,1.7,0.4,2.4
		c0.3,0.7,0.7,1.3,1.2,1.7s1.2,0.6,2,0.6S802.8,770.7,803.3,770.3z"/>
	<path class="st2" d="M809.9,754.9h2.6v6.6h0.1c0.3-0.5,0.6-0.9,0.8-1.2s0.6-0.6,1.1-0.8s1.2-0.4,1.9-0.4c1.1,0,2.1,0.3,2.9,0.8
		s1.5,1.3,2,2.4s0.7,2.3,0.7,3.7s-0.2,2.6-0.7,3.7c-0.5,1-1.1,1.9-2,2.4c-0.8,0.6-1.8,0.8-2.9,0.8c-0.8,0-1.4-0.1-1.9-0.4
		s-0.9-0.5-1.2-0.8s-0.5-0.7-0.8-1.1h-0.2v2.1h-2.6v-17.8H809.9z M812.9,768.6c0.3,0.7,0.7,1.3,1.2,1.7s1.2,0.6,1.9,0.6
		c0.8,0,1.4-0.2,1.9-0.6c0.5-0.4,0.9-1,1.2-1.7s0.4-1.5,0.4-2.4s-0.1-1.7-0.4-2.4s-0.7-1.2-1.2-1.6c-0.5-0.4-1.2-0.6-2-0.6
		c-0.7,0-1.4,0.2-1.9,0.6s-0.9,0.9-1.2,1.6c-0.3,0.7-0.4,1.5-0.4,2.4C812.5,767,812.6,767.9,812.9,768.6z"/>
	<path class="st2" d="M824.5,754.9h2.6v6.6h0.1c0.3-0.5,0.6-0.9,0.8-1.2s0.6-0.6,1.1-0.8s1.2-0.4,1.9-0.4c1.1,0,2.1,0.3,2.9,0.8
		s1.5,1.3,2,2.4s0.7,2.3,0.7,3.7s-0.2,2.6-0.7,3.7c-0.5,1-1.1,1.9-2,2.4c-0.8,0.6-1.8,0.8-2.9,0.8c-0.8,0-1.4-0.1-1.9-0.4
		s-0.9-0.5-1.2-0.8s-0.5-0.7-0.8-1.1h-0.2v2.1h-2.6v-17.8H824.5z M827.5,768.6c0.3,0.7,0.7,1.3,1.2,1.7s1.2,0.6,1.9,0.6
		c0.8,0,1.4-0.2,1.9-0.6c0.5-0.4,0.9-1,1.2-1.7s0.4-1.5,0.4-2.4s-0.1-1.7-0.4-2.4s-0.7-1.2-1.2-1.6c-0.5-0.4-1.2-0.6-2-0.6
		c-0.7,0-1.4,0.2-1.9,0.6s-0.9,0.9-1.2,1.6c-0.3,0.7-0.4,1.5-0.4,2.4C827.1,767,827.2,767.9,827.5,768.6z"/>
	<path class="st2" d="M838.7,777.8v-2.2h0.5c0.2,0,0.4,0,0.7,0s0.6,0,0.8-0.1s0.4-0.2,0.7-0.5c0.2-0.3,0.4-0.7,0.6-1.2l0.3-0.9
		l-4.9-13.6h2.8l3.4,10.4h0.1l3.4-10.4h2.8l-5.5,15.2c-0.4,1.1-1,1.9-1.7,2.4c-0.7,0.6-1.6,0.8-2.7,0.8
		C839.5,777.9,839.1,777.9,838.7,777.8z"/>
	<path class="st2" d="M858.1,763c-0.3-0.2-0.5-0.4-0.6-0.6s-0.2-0.6-0.2-0.9c0-0.3,0.1-0.6,0.2-0.9c0.2-0.3,0.4-0.5,0.6-0.6
		s0.6-0.2,0.9-0.2c0.3,0,0.6,0.1,0.9,0.2s0.5,0.4,0.6,0.6c0.2,0.3,0.2,0.6,0.2,0.9c0,0.3-0.1,0.6-0.2,0.9s-0.4,0.5-0.6,0.6
		c-0.3,0.2-0.6,0.2-0.9,0.2C858.7,763.2,858.4,763.2,858.1,763z M858.1,772.8c-0.3-0.2-0.5-0.4-0.6-0.6s-0.2-0.6-0.2-0.9
		c0-0.3,0.1-0.6,0.2-0.9s0.4-0.5,0.6-0.6c0.3-0.2,0.6-0.2,0.9-0.2c0.3,0,0.6,0.1,0.9,0.2c0.3,0.2,0.5,0.4,0.6,0.6s0.2,0.6,0.2,0.9
		c0,0.3-0.1,0.6-0.2,0.9s-0.4,0.5-0.6,0.6s-0.6,0.2-0.9,0.2C858.7,773,858.4,772.9,858.1,772.8z"/>
	<path class="st2" d="M888.5,765.6h-20.2v-1.9h20.2V765.6z M886.1,775.1h-2.3v-5.6h-13.2v-1.9h15.5V775.1z M886,755.6h-12.9v4.8
		h-2.3v-6.7H886V755.6z M886.2,761.3h-15.4v-1.9h15.4V761.3z M879.6,764.4h-2.3V760h2.3V764.4z"/>
	<path class="st2" d="M896.4,763.3c-0.5,1.6-1.2,3-2.2,4.2c-0.9,1.2-2,2.2-3.2,2.8l-1.5-1.9c1.1-0.5,2.1-1.3,3-2.4
		c0.9-1,1.5-2.2,2-3.6c0.5-1.3,0.7-2.7,0.7-4.1v-3.8h1.9v3.8C897.2,760.1,897,761.7,896.4,763.3z M898.4,762.4
		c0.5,1.3,1.1,2.4,2,3.4s1.8,1.7,2.9,2.2l-1.4,1.9c-1.2-0.6-2.3-1.5-3.2-2.7s-1.6-2.5-2.1-4s-0.8-3.1-0.8-4.8v-3.8h1.9v3.8
		C897.7,759.8,897.9,761.1,898.4,762.4z M907,762h-6.1v-1.9h6.1V762z M908.1,775h-2.3v-22.2h2.3V775z"/>
	<path class="st2" d="M913,777.9h-2.1l1.3-6.8h2.8L913,777.9z"/>
	<path class="st2" d="M933.5,756.6h-10.9v-1.8h10.9V756.6z M930.4,757.9c0.7,0.3,1.2,0.7,1.6,1.3s0.6,1.2,0.6,1.9s-0.2,1.4-0.6,1.9
		s-0.9,1-1.6,1.3c-0.7,0.3-1.5,0.4-2.4,0.4s-1.7-0.1-2.4-0.4c-0.7-0.3-1.2-0.7-1.6-1.3s-0.6-1.2-0.6-1.9s0.2-1.4,0.6-1.9
		s0.9-1,1.6-1.3s1.5-0.5,2.4-0.5S929.7,757.6,930.4,757.9z M926.7,759.3c-0.4,0.2-0.7,0.4-0.9,0.7s-0.3,0.6-0.3,1s0.1,0.7,0.3,1
		s0.5,0.5,0.9,0.7s0.8,0.3,1.3,0.3s1-0.1,1.3-0.3c0.4-0.2,0.7-0.4,0.9-0.7s0.3-0.6,0.3-1s-0.1-0.8-0.3-1c-0.2-0.3-0.5-0.5-0.9-0.7
		s-0.8-0.2-1.3-0.2S927.1,759.1,926.7,759.3z M941.6,771.1h-12.5v2.3h-2.3v-4h12.5v-1.7h-12.5V766h14.9v5.1H941.6z M942.3,774.7
		h-15.6v-1.8h15.6V774.7z M929.2,756.2h-2.3v-3.5h2.3V756.2z M936.5,760.4H933v-1.9h3.5V760.4z M937.4,765h-2.2v-11.8h2.2V765z
		 M941.6,765.2h-2.2v-12.4h2.2V765.2z"/>
	<path class="st2" d="M964.3,772H944v-1.9h20.3V772z M953.6,760.3c-0.8,1.4-1.9,2.5-3.3,3.4c-1.4,0.9-2.9,1.6-4.5,2l-1-2
		c1.4-0.3,2.7-0.8,4-1.6s2.2-1.7,3-2.8c0.7-1.1,1.1-2.2,1.1-3.4v-1.7h2.1v1.7C954.9,757.5,954.5,758.9,953.6,760.3z M956.4,759.3
		c0.7,1.1,1.7,2,3,2.8c1.2,0.8,2.6,1.3,4,1.6l-1,2c-1.6-0.4-3.1-1-4.5-1.9s-2.5-2.1-3.3-3.4s-1.2-2.8-1.2-4.4v-1.7h2v1.7
		C955.3,757.1,955.7,758.2,956.4,759.3z"/>
</g>
<g>
	<path class="st1" d="M1306.4,458.2c-0.4-0.5-1-0.9-1.7-1.2s-1.6-0.4-2.5-0.4c-1,0-1.8,0.2-2.6,0.5c-0.7,0.3-1.3,0.7-1.7,1.3
		c-0.4,0.5-0.6,1.2-0.6,1.9c0,1,0.4,1.8,1.3,2.4c0.8,0.5,1.9,1,3.2,1.3l2.3,0.6c2,0.5,3.7,1.3,5,2.3s2,2.6,2,4.5
		c0,1.4-0.4,2.6-1.1,3.7s-1.7,1.9-3.1,2.5s-3,0.9-4.8,0.9s-3.4-0.3-4.7-0.9s-2.4-1.4-3.1-2.5c-0.8-1.1-1.2-2.3-1.2-3.8h3.7
		c0.1,0.8,0.4,1.6,0.9,2.1c0.5,0.6,1.1,1,1.9,1.3s1.7,0.4,2.6,0.4c1,0,2-0.2,2.8-0.5s1.5-0.8,1.9-1.4c0.5-0.6,0.7-1.3,0.7-2.1
		c0-0.7-0.2-1.2-0.6-1.7s-0.9-0.8-1.6-1.1c-0.7-0.3-1.5-0.6-2.5-0.8l-2.9-0.8c-2-0.6-3.6-1.4-4.7-2.4s-1.6-2.4-1.6-4
		c0-1.4,0.4-2.6,1.1-3.6c0.8-1.1,1.8-1.9,3.1-2.5c1.3-0.6,2.8-0.9,4.4-0.9s3.1,0.3,4.3,0.9c1.3,0.6,2.3,1.4,3,2.4s1.1,2.2,1.1,3.5
		h-3.6C1307.1,459.4,1306.8,458.8,1306.4,458.2z"/>
	<path class="st1" d="M1314.1,453.7h3.6V478h-3.6V453.7z M1317.3,467.5h0.6l7.2-7.7h4.3l-8.3,8.8h-0.6l-3.3,3.3L1317.3,467.5z
		 M1319.1,469.4l2.5-2.5l8.4,11.1h-4.4L1319.1,469.4z"/>
	<path class="st1" d="M1332.3,456.7c-0.3-0.2-0.6-0.4-0.8-0.8c-0.2-0.3-0.3-0.7-0.3-1.1s0.1-0.7,0.3-1.1c0.2-0.3,0.5-0.6,0.8-0.8
		s0.7-0.3,1.1-0.3s0.8,0.1,1.2,0.3s0.6,0.4,0.8,0.8c0.2,0.3,0.3,0.7,0.3,1.1s-0.1,0.7-0.3,1.1c-0.2,0.3-0.5,0.6-0.8,0.8
		s-0.7,0.3-1.2,0.3C1333,457,1332.6,456.9,1332.3,456.7z M1331.6,459.8h3.6V478h-3.6V459.8z"/>
	<path class="st1" d="M1342.4,478h-3.6v-24.3h3.6V478z"/>
	<path class="st1" d="M1349.7,478h-3.6v-24.3h3.6V478z"/>
	<path class="st1" d="M1362.5,463c-0.6-0.4-1.4-0.6-2.3-0.6c-0.7,0-1.3,0.1-1.8,0.3c-0.5,0.2-1,0.5-1.3,0.9s-0.5,0.8-0.5,1.3
		s0.2,1,0.7,1.4s1.2,0.7,2.2,0.9l2.9,0.7c1.7,0.4,2.9,1,3.8,1.8c0.8,0.8,1.2,1.9,1.2,3.1c0,1.1-0.3,2.1-0.9,2.9s-1.5,1.5-2.6,2
		s-2.5,0.7-4,0.7c-1.4,0-2.7-0.2-3.7-0.6c-1.1-0.4-1.9-1-2.5-1.8s-1-1.8-1.2-2.9h3.7c0.2,0.8,0.6,1.4,1.2,1.8s1.5,0.6,2.5,0.6
		c0.8,0,1.4-0.1,2-0.3s1-0.5,1.3-0.9s0.5-0.8,0.5-1.3c0-0.6-0.2-1.1-0.7-1.5s-1.2-0.7-2.1-0.9l-2.8-0.6c-1.6-0.4-2.9-1-3.7-1.8
		c-0.9-0.9-1.3-1.9-1.3-3.2c0-1.1,0.3-2,0.9-2.9c0.6-0.8,1.4-1.5,2.5-1.9c1.1-0.5,2.3-0.7,3.7-0.7c1.3,0,2.5,0.2,3.5,0.6
		s1.8,1,2.4,1.8s0.9,1.7,1,2.7h-3.4C1363.4,464,1363,463.4,1362.5,463z"/>
	<path class="st3" d="M1292,518.5h13.6l-0.4,2.1h-13.6L1292,518.5z M1293,512.3h13.6l-0.3,2.1h-13.6L1293,512.3z M1296.4,507.5h2.1
		l-2.9,17.9h-2.1L1296.4,507.5z M1302.7,507.5h2.1l-2.9,17.9h-2.1L1302.7,507.5z"/>
	<path class="st3" d="M1319.7,516c-0.5,1.6-1.3,3-2.2,4.2c-1,1.2-2.1,2.1-3.4,2.8l-1.5-2c1.2-0.5,2.2-1.3,3.1-2.3s1.6-2.2,2.1-3.6
		c0.5-1.3,0.8-2.7,0.8-4.1v-3.8h1.9v3.8C1320.5,512.7,1320.2,514.4,1319.7,516z M1321.7,514.9c0.5,1.3,1.2,2.4,2.1,3.4
		s1.9,1.8,3,2.3l-1.4,1.9c-1.2-0.6-2.4-1.5-3.3-2.6c-1-1.2-1.7-2.5-2.3-4.1s-0.8-3.1-0.8-4.8v-3.8h2v3.8
		C1320.9,512.3,1321.2,513.6,1321.7,514.9z M1331.1,527.5h-2.4v-22.2h2.4V527.5z"/>
	<path class="st3" d="M1344.2,511.8c-0.8,1.5-2,2.8-3.6,3.9s-3.4,1.9-5.6,2.5l-1-1.8c1.9-0.5,3.5-1.2,4.8-2s2.3-1.8,3-2.9
		s1.1-2.3,1.1-3.6v-1.1h2.5C1345.4,508.6,1345,510.3,1344.2,511.8z M1344.3,508.6h-9.2v-1.9h9.2V508.6z M1351.6,527.5h-2.3v-6.3
		H1337v-1.9h14.6L1351.6,527.5L1351.6,527.5z M1351.6,518.3h-2.3v-13h2.3V518.3z M1354.8,512.8h-3.9v-2h3.9V512.8z"/>
	<path class="st3" d="M1367.5,509.3h-8.3v11.5h-2.4v-13.5h10.6v2H1367.5z M1364.7,519.9c1.5-0.1,3.1-0.3,4.6-0.5l0.2,2
		c-1.6,0.3-3.1,0.5-4.7,0.6s-3.6,0.2-6.1,0.2h-1.8v-2h1.8C1361.2,520.1,1363.2,520,1364.7,519.9z M1373.9,527.5h-2.4v-22.2h2.4
		V527.5z"/>
	<path class="st3" d="M1383.3,516.5c-0.5,1.5-1.3,2.9-2.2,4.1s-2,2.1-3.2,2.7l-1.4-1.8c1.1-0.5,2.1-1.3,3-2.3s1.6-2.2,2.1-3.4
		c0.5-1.3,0.8-2.5,0.8-3.8v-3.3h1.9v3.3C1384.1,513.4,1383.9,515,1383.3,516.5z M1389.4,509.5h-12.1v-1.9h12.1V509.5z M1385.3,515.4
		c0.5,1.2,1.1,2.3,2,3.2c0.9,1,1.8,1.7,2.9,2.2l-1.3,1.8c-1.2-0.6-2.3-1.4-3.2-2.6s-1.7-2.4-2.2-3.9s-0.8-2.9-0.8-4.4v-3.3h1.9v3.3
		C1384.6,513,1384.9,514.2,1385.3,515.4z M1394.1,527.5h-2.3v-22.1h2.3V527.5z M1397.7,516.1h-4.1v-2h4.1V516.1z"/>
	<path class="st3" d="M1407.6,507.5c0.9,0.5,1.6,1.1,2.1,2c0.5,0.8,0.8,1.8,0.8,2.8c0,1.1-0.3,2-0.8,2.9s-1.2,1.5-2.1,2
		s-1.9,0.7-3,0.7s-2.1-0.2-3-0.7s-1.6-1.1-2.1-2c-0.5-0.8-0.8-1.8-0.8-2.9c0-1.1,0.3-2,0.8-2.8s1.2-1.5,2.1-2s1.9-0.7,3-0.7
		S1406.7,507.1,1407.6,507.5z M1402.8,509.3c-0.6,0.3-1,0.7-1.3,1.2s-0.5,1.1-0.5,1.8c0,0.7,0.2,1.3,0.5,1.8s0.7,0.9,1.3,1.2
		c0.6,0.3,1.2,0.4,1.8,0.4c0.7,0,1.3-0.1,1.8-0.4c0.5-0.3,1-0.7,1.3-1.2s0.5-1.1,0.5-1.8s-0.2-1.3-0.5-1.8s-0.7-0.9-1.3-1.2
		c-0.5-0.3-1.2-0.4-1.8-0.4C1403.9,508.9,1403.3,509,1402.8,509.3z M1404.5,525.8h-2.3v-6h2.3V525.8z M1417.3,527h-15.1v-1.9h15.1
		V527z M1416.6,521.5h-2.3v-16.1h2.3V521.5z"/>
	<path class="st3" d="M1436.4,518.5h13.6l-0.4,2.1H1436L1436.4,518.5z M1437.4,512.3h13.6l-0.3,2.1h-13.6L1437.4,512.3z
		 M1440.8,507.5h2.1l-2.9,17.9h-2.1L1440.8,507.5z M1447.1,507.5h2.1l-2.9,17.9h-2.1L1447.1,507.5z"/>
	<path class="st3" d="M1463.2,513.7c2-0.1,3.8-0.2,5.4-0.5l0.2,1.6c-1.6,0.4-3.4,0.6-5.4,0.7c-1.9,0.1-4,0.2-6.2,0.2l-0.2-1.8
		C1459.2,513.8,1461.2,513.8,1463.2,513.7z M1465.5,506.5c0.7,0.3,1.3,0.6,1.7,1.1c0.4,0.5,0.6,1.1,0.6,1.8c0,0.7-0.2,1.2-0.6,1.7
		s-1,0.9-1.7,1.2s-1.6,0.4-2.5,0.4s-1.8-0.1-2.5-0.4c-0.7-0.3-1.3-0.7-1.7-1.2c-0.4-0.5-0.6-1.1-0.6-1.7c0-0.7,0.2-1.3,0.6-1.8
		s1-0.9,1.7-1.1c0.7-0.3,1.6-0.4,2.5-0.4S1464.8,506.2,1465.5,506.5z M1461.5,508c-0.4,0.1-0.7,0.3-0.9,0.6
		c-0.2,0.2-0.3,0.5-0.3,0.9c0,0.3,0.1,0.6,0.3,0.9c0.2,0.2,0.5,0.4,0.9,0.5s0.9,0.2,1.4,0.2c0.6,0,1.1-0.1,1.5-0.2s0.7-0.3,1-0.5
		c0.2-0.2,0.3-0.5,0.3-0.9s-0.1-0.7-0.3-0.9s-0.6-0.4-1-0.6c-0.4-0.1-0.9-0.2-1.4-0.2C1462.4,507.8,1462,507.8,1461.5,508z
		 M1463.2,521.7h10.6v-1.9h2.3v7.4h-15.2v-7.4h2.3L1463.2,521.7L1463.2,521.7z M1464.2,518.9h-2.3v-4.3h2.3V518.9z M1473.8,525.3
		v-1.8h-10.6v1.8H1473.8z M1470.8,517.9h-4.7v-1.6h4.7V517.9z M1472,519h-2.2v-13.2h2.2V519z M1476.1,519h-2.2v-13.7h2.2V519z"/>
	<path class="st3" d="M1490.6,509.3h-8.3v11.5h-2.4v-13.5h10.6v2H1490.6z M1487.8,519.9c1.5-0.1,3.1-0.3,4.6-0.5l0.2,2
		c-1.6,0.3-3.1,0.5-4.7,0.6s-3.6,0.2-6.1,0.2h-1.8v-2h1.8C1484.2,520.1,1486.2,520,1487.8,519.9z M1496.9,527.5h-2.4v-22.2h2.4
		V527.5z"/>
	<path class="st3" d="M1506.4,516.5c-0.5,1.5-1.3,2.9-2.2,4.1s-2,2.1-3.2,2.7l-1.4-1.8c1.1-0.5,2.1-1.3,3-2.3s1.6-2.2,2.1-3.4
		c0.5-1.3,0.8-2.5,0.8-3.8v-3.3h1.9v3.3C1507.2,513.4,1506.9,515,1506.4,516.5z M1512.4,509.5h-12.1v-1.9h12.1V509.5z M1508.3,515.4
		c0.5,1.2,1.1,2.3,2,3.2c0.9,1,1.8,1.7,2.9,2.2l-1.3,1.8c-1.2-0.6-2.3-1.4-3.2-2.6s-1.7-2.4-2.2-3.9s-0.8-2.9-0.8-4.4v-3.3h1.9v3.3
		C1507.6,513,1507.9,514.2,1508.3,515.4z M1517.2,527.5h-2.3v-22.1h2.3V527.5z M1520.7,516.1h-4.1v-2h4.1V516.1z"/>
	<path class="st3" d="M1530.6,507.5c0.9,0.5,1.6,1.1,2.1,2c0.5,0.8,0.8,1.8,0.8,2.8c0,1.1-0.3,2-0.8,2.9s-1.2,1.5-2.1,2
		s-1.9,0.7-3,0.7s-2.1-0.2-3-0.7s-1.6-1.1-2.1-2c-0.5-0.8-0.8-1.8-0.8-2.9c0-1.1,0.3-2,0.8-2.8s1.2-1.5,2.1-2s1.9-0.7,3-0.7
		S1529.7,507.1,1530.6,507.5z M1525.8,509.3c-0.6,0.3-1,0.7-1.3,1.2s-0.5,1.1-0.5,1.8c0,0.7,0.2,1.3,0.5,1.8s0.7,0.9,1.3,1.2
		c0.6,0.3,1.2,0.4,1.8,0.4c0.7,0,1.3-0.1,1.8-0.4c0.5-0.3,1-0.7,1.3-1.2s0.5-1.1,0.5-1.8s-0.2-1.3-0.5-1.8s-0.7-0.9-1.3-1.2
		c-0.5-0.3-1.2-0.4-1.8-0.4S1526.3,509,1525.8,509.3z M1527.5,525.8h-2.3v-6h2.3V525.8z M1540.3,527h-15.1v-1.9h15.1V527z
		 M1539.6,521.5h-2.3v-16.1h2.3V521.5z"/>
	<path class="st3" d="M1559.4,518.5h13.6l-0.4,2.1H1559L1559.4,518.5z M1560.4,512.3h13.6l-0.3,2.1h-13.6L1560.4,512.3z
		 M1563.8,507.5h2.1l-2.9,17.9h-2.1L1563.8,507.5z M1570.1,507.5h2.1l-2.9,17.9h-2.1L1570.1,507.5z"/>
	<path class="st3" d="M1585.8,516.2c-0.4,1.5-1,2.9-1.7,4.1s-1.7,2.1-2.8,2.8l-1.5-1.8c1-0.6,1.9-1.4,2.6-2.5c0.7-1,1.3-2.2,1.6-3.5
		c0.4-1.3,0.5-2.6,0.5-3.9v-2.7h1.8v2.7C1586.4,513.2,1586.2,514.7,1585.8,516.2z M1590.7,509.7h-10.1v-1.9h10.1V509.7z
		 M1587.4,515.3c0.3,1.2,0.9,2.3,1.6,3.3s1.6,1.8,2.6,2.3l-1.4,1.7c-1.1-0.7-2-1.6-2.7-2.7c-0.7-1.1-1.3-2.4-1.7-3.9
		c-0.4-1.4-0.6-3-0.6-4.5v-2.7h1.7v2.7C1586.9,512.8,1587.1,514.1,1587.4,515.3z M1593.2,515.1h-4.1v-1.9h4.1V515.1z M1594.7,526.4
		h-2.2v-20.5h2.2V526.4z M1599.2,527.5h-2.2v-22.1h2.2V527.5z"/>
	<path class="st3" d="M1621.8,517.8h-20.2v-1.9h20.2V517.8z M1619.9,507.9h-16.4V506h16.4V507.9z M1619.8,514.1h-16.2v-1.9h16.2
		V514.1z M1619.3,527.2H1604v-7h15.3V527.2z M1606.3,525.3h10.7V522h-10.7V525.3z M1609,513.5h-2.3v-6.6h2.3V513.5z M1612.8,520.9
		h-2.3v-3.7h2.3V520.9z M1616.7,513.5h-2.3v-6.6h2.3V513.5z"/>
	<path class="st3" d="M1635,509.3h-8.3v11.5h-2.4v-13.5h10.6v2H1635z M1632.1,519.9c1.5-0.1,3.1-0.3,4.6-0.5l0.2,2
		c-1.6,0.3-3.1,0.5-4.7,0.6s-3.6,0.2-6.1,0.2h-1.8v-2h1.8C1628.6,520.1,1630.6,520,1632.1,519.9z M1641.3,527.5h-2.4v-22.2h2.4
		V527.5z"/>
	<path class="st3" d="M1650.7,516.5c-0.5,1.5-1.3,2.9-2.2,4.1s-2,2.1-3.2,2.7l-1.4-1.8c1.1-0.5,2.1-1.3,3-2.3s1.6-2.2,2.1-3.4
		c0.5-1.3,0.8-2.5,0.8-3.8v-3.3h1.9v3.3C1651.6,513.4,1651.3,515,1650.7,516.5z M1656.8,509.5h-12.1v-1.9h12.1V509.5z M1652.7,515.4
		c0.5,1.2,1.1,2.3,2,3.2c0.9,1,1.8,1.7,2.9,2.2l-1.3,1.8c-1.2-0.6-2.3-1.4-3.2-2.6s-1.7-2.4-2.2-3.9s-0.8-2.9-0.8-4.4v-3.3h1.9v3.3
		C1652,513,1652.3,514.2,1652.7,515.4z M1661.6,527.5h-2.3v-22.1h2.3V527.5z M1665.1,516.1h-4.1v-2h4.1V516.1z"/>
	<path class="st3" d="M1675,507.5c0.9,0.5,1.6,1.1,2.1,2c0.5,0.8,0.8,1.8,0.8,2.8c0,1.1-0.3,2-0.8,2.9s-1.2,1.5-2.1,2
		s-1.9,0.7-3,0.7s-2.1-0.2-3-0.7s-1.6-1.1-2.1-2c-0.5-0.8-0.8-1.8-0.8-2.9c0-1.1,0.3-2,0.8-2.8s1.2-1.5,2.1-2s1.9-0.7,3-0.7
		S1674.1,507.1,1675,507.5z M1670.2,509.3c-0.6,0.3-1,0.7-1.3,1.2s-0.5,1.1-0.5,1.8c0,0.7,0.2,1.3,0.5,1.8s0.7,0.9,1.3,1.2
		c0.6,0.3,1.2,0.4,1.8,0.4c0.7,0,1.3-0.1,1.8-0.4c0.5-0.3,1-0.7,1.3-1.2s0.5-1.1,0.5-1.8s-0.2-1.3-0.5-1.8s-0.7-0.9-1.3-1.2
		c-0.5-0.3-1.2-0.4-1.8-0.4C1671.3,508.9,1670.7,509,1670.2,509.3z M1671.9,525.8h-2.3v-6h2.3V525.8z M1684.7,527h-15.1v-1.9h15.1
		V527z M1684,521.5h-2.3v-16.1h2.3V521.5z"/>
</g>
<g>
	<path class="st1" d="M940.1,485.9h-3.7v-24.3h3.7V485.9z M938.3,485.9v-3.2h5.8c1.8,0,3.4-0.3,4.6-1c1.2-0.7,2.1-1.7,2.7-3
		c0.6-1.3,0.9-3,0.9-4.9s-0.3-3.5-0.9-4.8s-1.5-2.3-2.7-3s-2.7-1-4.4-1h-6.2v-3.2h6.4c2.4,0,4.4,0.5,6.2,1.4s3,2.4,3.9,4.2
		c0.9,1.8,1.4,4,1.4,6.5s-0.5,4.7-1.4,6.5s-2.3,3.2-4,4.2c-1.8,1-3.8,1.5-6.3,1.5h-6V485.9z"/>
	<path class="st1" d="M962.5,485.1c-1.3-0.8-2.3-1.9-3-3.3s-1.1-3-1.1-4.9s0.4-3.5,1.1-5c0.7-1.4,1.7-2.6,3-3.3
		c1.3-0.8,2.7-1.2,4.4-1.2c1.5,0,2.8,0.3,4,0.9s2.2,1.6,2.9,3s1.1,3.1,1.1,5.2v1.3h-14.5v-2.7h11c0-0.9-0.2-1.8-0.6-2.5
		s-0.9-1.3-1.6-1.7c-0.7-0.4-1.5-0.6-2.4-0.6c-1,0-1.8,0.2-2.6,0.7c-0.7,0.5-1.3,1.1-1.7,1.9s-0.6,1.6-0.6,2.6v2.1
		c0,1.2,0.2,2.2,0.6,3.1c0.4,0.9,1,1.5,1.8,2c0.8,0.4,1.7,0.7,2.7,0.7c0.6,0,1.2-0.1,1.8-0.3c0.5-0.2,1-0.4,1.3-0.7
		c0.4-0.3,0.7-0.6,0.9-1h3.6c-0.3,1-0.8,1.8-1.4,2.6c-0.7,0.7-1.6,1.3-2.6,1.7c-1.1,0.4-2.2,0.6-3.6,0.6
		C965.3,486.3,963.8,485.9,962.5,485.1z"/>
	<path class="st1" d="M986.9,470.9c-0.6-0.4-1.4-0.6-2.3-0.6c-0.7,0-1.3,0.1-1.8,0.3c-0.5,0.2-1,0.5-1.3,0.9s-0.5,0.8-0.5,1.3
		s0.2,1,0.7,1.4s1.2,0.7,2.2,0.9l2.9,0.7c1.7,0.4,2.9,1,3.8,1.8c0.8,0.8,1.2,1.9,1.2,3.1c0,1.1-0.3,2.1-0.9,2.9s-1.5,1.5-2.6,2
		s-2.5,0.7-4,0.7c-1.4,0-2.7-0.2-3.7-0.6c-1.1-0.4-1.9-1-2.5-1.8s-1-1.8-1.2-2.9h3.7c0.2,0.8,0.6,1.4,1.2,1.8s1.5,0.6,2.5,0.6
		c0.8,0,1.4-0.1,2-0.3s1-0.5,1.3-0.9s0.5-0.8,0.5-1.3c0-0.6-0.2-1.1-0.7-1.5s-1.2-0.7-2.1-0.9l-2.8-0.6c-1.6-0.4-2.9-1-3.7-1.8
		c-0.9-0.9-1.3-1.9-1.3-3.2c0-1.1,0.3-2,0.9-2.9c0.6-0.8,1.4-1.5,2.5-1.9c1.1-0.5,2.3-0.7,3.7-0.7c1.3,0,2.5,0.2,3.5,0.6
		s1.8,1,2.4,1.8c0.6,0.8,0.9,1.7,1,2.7H988C987.8,471.9,987.5,471.3,986.9,470.9z"/>
	<path class="st1" d="M995.3,464.6c-0.3-0.2-0.6-0.4-0.8-0.8c-0.2-0.3-0.3-0.7-0.3-1.1s0.1-0.7,0.3-1.1c0.2-0.3,0.5-0.6,0.8-0.8
		s0.7-0.3,1.1-0.3c0.4,0,0.8,0.1,1.2,0.3s0.6,0.4,0.8,0.8c0.2,0.3,0.3,0.7,0.3,1.1s-0.1,0.7-0.3,1.1c-0.2,0.3-0.5,0.6-0.8,0.8
		s-0.7,0.3-1.2,0.3C996,464.8,995.6,464.8,995.3,464.6z M994.6,467.7h3.6v18.2h-3.6V467.7z"/>
	<path class="st1" d="M1005.5,492.5c-1.2-0.4-2.1-1.1-2.8-1.9s-1.1-1.8-1.2-2.9h3.6c0.2,0.9,0.6,1.5,1.4,1.9
		c0.8,0.4,1.7,0.6,2.9,0.6c1.5,0,2.6-0.3,3.4-1c0.8-0.7,1.2-1.7,1.2-3.1v-3.6h-0.2c-0.3,0.5-0.6,1-1,1.5c-0.4,0.4-0.9,0.8-1.6,1.1
		s-1.6,0.5-2.6,0.5c-1.4,0-2.7-0.4-3.9-1.1s-2.1-1.7-2.7-3.1s-1-3-1-4.9s0.3-3.5,1-4.9s1.6-2.4,2.7-3.2c1.2-0.7,2.5-1.1,4-1.1
		c1,0,1.9,0.2,2.6,0.5c0.7,0.3,1.2,0.7,1.6,1.1s0.7,0.9,1.1,1.6h0.2v-2.9h3.5v18.6c0,1.5-0.4,2.8-1.1,3.8c-0.7,1-1.7,1.8-2.9,2.3
		s-2.7,0.7-4.3,0.7C1008,493.1,1006.7,492.9,1005.5,492.5z M1012.1,481.9c0.7-0.5,1.3-1.2,1.6-2.1s0.6-2,0.6-3.2s-0.2-2.3-0.6-3.3
		c-0.4-0.9-0.9-1.7-1.6-2.2s-1.6-0.8-2.6-0.8s-1.9,0.3-2.6,0.8c-0.7,0.5-1.3,1.3-1.6,2.2c-0.4,0.9-0.6,2-0.6,3.2s0.2,2.2,0.6,3.1
		s0.9,1.6,1.6,2.1c0.7,0.5,1.6,0.7,2.6,0.7C1010.5,482.7,1011.4,482.4,1012.1,481.9z"/>
	<path class="st1" d="M1025,485.9h-3.6v-18.2h3.4v3h0.2c0.4-1,1.1-1.8,2-2.4s2-0.8,3.4-0.8c1.3,0,2.3,0.3,3.3,0.8
		c0.9,0.5,1.6,1.3,2.1,2.3s0.8,2.3,0.8,3.8V486h-3.6v-11.2c0-0.9-0.2-1.6-0.5-2.2s-0.7-1.1-1.3-1.4c-0.6-0.3-1.3-0.5-2.1-0.5
		c-0.8,0-1.6,0.2-2.2,0.5s-1.1,0.9-1.5,1.6s-0.5,1.5-0.5,2.5L1025,485.9L1025,485.9z"/>
	<path class="st1" d="M1043.6,485.1c-1.3-0.8-2.3-1.9-3-3.3s-1.1-3-1.1-4.9s0.4-3.5,1.1-5c0.7-1.4,1.7-2.6,3-3.3
		c1.3-0.8,2.7-1.2,4.4-1.2c1.5,0,2.8,0.3,4,0.9s2.2,1.6,2.9,3c0.7,1.4,1.1,3.1,1.1,5.2v1.3h-14.5v-2.7h11c0-0.9-0.2-1.8-0.6-2.5
		s-0.9-1.3-1.6-1.7c-0.7-0.4-1.5-0.6-2.4-0.6c-1,0-1.8,0.2-2.6,0.7c-0.7,0.5-1.3,1.1-1.7,1.9s-0.6,1.6-0.6,2.6v2.1
		c0,1.2,0.2,2.2,0.6,3.1s1,1.5,1.8,2c0.8,0.4,1.7,0.7,2.7,0.7c0.6,0,1.2-0.1,1.8-0.3c0.5-0.2,1-0.4,1.3-0.7c0.4-0.3,0.7-0.6,0.9-1
		h3.6c-0.3,1-0.8,1.8-1.4,2.6c-0.7,0.7-1.6,1.3-2.6,1.7c-1.1,0.4-2.2,0.6-3.6,0.6C1046.5,486.3,1044.9,485.9,1043.6,485.1z"/>
	<path class="st1" d="M1058.9,467.7h3.5v2.9h0.2c0.3-1,0.9-1.8,1.7-2.4s1.8-0.8,2.8-0.8c0.6,0,1.1,0,1.5,0.1v3.4
		c-0.1-0.1-0.4-0.1-0.8-0.2s-0.7-0.1-1.1-0.1c-0.8,0-1.5,0.2-2.2,0.5s-1.2,0.8-1.6,1.5c-0.4,0.6-0.6,1.3-0.6,2.1v11.1h-3.6v-18.1
		H1058.9z"/>
</g>
<g>
	<g>
		<circle class="st1" cx="1328.9" cy="626" r="36.4"/>
	</g>
	<g>
		<path class="st0" d="M1311.6,637.3l8.4-23.7h5.3l8.4,23.7h-4.6l-6.3-18.9h-0.2l-6.3,18.9H1311.6z M1328.9,628v3.4h-12.5V628
			H1328.9z"/>
		<path class="st0" d="M1336.6,616.7c-0.4-0.2-0.7-0.5-0.9-0.8c-0.2-0.3-0.3-0.7-0.3-1.1c0-0.4,0.1-0.8,0.3-1.1
			c0.2-0.3,0.5-0.6,0.9-0.8s0.8-0.3,1.2-0.3c0.4,0,0.9,0.1,1.2,0.3c0.4,0.2,0.7,0.5,0.9,0.8c0.2,0.3,0.3,0.7,0.3,1.1
			c0,0.4-0.1,0.8-0.3,1.1c-0.2,0.3-0.5,0.6-0.9,0.8s-0.8,0.3-1.2,0.3S1337,616.9,1336.6,616.7z M1335.8,619.6h4.2v17.8h-4.2V619.6z"
			/>
	</g>
</g>
<g>
	<g>
		<circle class="st1" cx="1416.5" cy="626" r="36.4"/>
	</g>
	<g>
		<path class="st0" d="M1399.7,612.6h8.9c1.8,0,3.3,0.3,4.5,1s2.2,1.6,2.9,2.8c0.6,1.2,1,2.5,1,4.1c0,1.5-0.3,2.9-1,4.1
			s-1.6,2.1-2.9,2.8s-2.8,1-4.6,1h-5.9v-3.5h5.3c1,0,1.9-0.2,2.6-0.5s1.2-0.9,1.5-1.5s0.5-1.4,0.5-2.2c0-0.9-0.2-1.6-0.5-2.3
			s-0.8-1.1-1.5-1.5s-1.6-0.5-2.6-0.5h-4v20.2h-4.3L1399.7,612.6L1399.7,612.6z"/>
		<path class="st0" d="M1427.9,621.9c-0.5-0.4-1.3-0.6-2.1-0.6c-0.6,0-1.1,0.1-1.6,0.3s-0.8,0.4-1.1,0.8c-0.3,0.3-0.4,0.7-0.4,1.1
			c0,0.5,0.2,0.9,0.6,1.2s1.1,0.6,1.9,0.8l3,0.7c1.7,0.3,2.9,0.9,3.8,1.7c0.8,0.8,1.2,1.8,1.2,3.1c0,1.1-0.3,2.1-0.9,2.9
			c-0.6,0.9-1.5,1.5-2.6,2s-2.5,0.7-4,0.7s-2.8-0.2-3.9-0.6c-1.1-0.4-2-1-2.6-1.9c-0.6-0.8-1-1.8-1.2-2.9h4.2
			c0.2,0.7,0.5,1.3,1.1,1.7s1.3,0.6,2.3,0.6c0.7,0,1.3-0.1,1.8-0.3s0.9-0.4,1.2-0.7c0.3-0.3,0.4-0.7,0.4-1.1c0-0.5-0.2-1-0.6-1.3
			s-1.1-0.6-1.9-0.8l-2.9-0.6c-1.6-0.3-2.9-0.9-3.7-1.8c-0.8-0.8-1.3-1.9-1.3-3.2c0-1.1,0.3-2.1,0.9-2.9c0.6-0.8,1.4-1.5,2.5-1.9
			s2.4-0.7,3.8-0.7s2.6,0.2,3.6,0.6s1.9,1,2.5,1.8s0.9,1.7,1,2.8h-3.9C1428.8,622.9,1428.4,622.3,1427.9,621.9z"/>
	</g>
</g>
<g>
	<g>
		<circle class="st1" cx="1504" cy="626" r="36.4"/>
	</g>
	<g>
		<path class="st0" d="M1475.9,616.5h6.5c1.3,0,2.4,0.2,3.4,0.7c0.9,0.5,1.6,1.1,2.1,1.9c0.5,0.8,0.7,1.8,0.7,2.9s-0.2,2.1-0.7,2.9
			s-1.2,1.5-2.1,1.9s-2.1,0.7-3.4,0.7h-4.7v-2.6h4.2c0.8,0,1.4-0.1,1.9-0.3s0.9-0.5,1.1-1s0.4-0.9,0.4-1.6c0-0.6-0.1-1.2-0.4-1.6
			c-0.2-0.4-0.6-0.8-1.1-1s-1.2-0.3-1.9-0.3h-2.9v14.8h-3.1V616.5z M1489.2,633.9h-3.5l-4.2-7.9h3.4L1489.2,633.9z"/>
		<path class="st0" d="M1493.2,633.9h-3.1v-17.4h3v6.6h0.1c0.3-0.8,0.8-1.3,1.4-1.8c0.7-0.4,1.5-0.6,2.4-0.6s1.7,0.2,2.4,0.6
			c0.7,0.4,1.2,0.9,1.6,1.7s0.6,1.6,0.6,2.7v8.3h-3.1v-7.9c0-0.6-0.1-1.1-0.3-1.5c-0.2-0.4-0.5-0.7-0.9-1s-0.9-0.3-1.4-0.3
			c-0.6,0-1,0.1-1.5,0.3c-0.4,0.2-0.8,0.6-1,1c-0.2,0.5-0.4,1-0.4,1.6v7.7H1493.2z"/>
		<path class="st0" d="M1504.3,618.8c-0.3-0.1-0.5-0.4-0.7-0.6c-0.2-0.3-0.2-0.5-0.2-0.8s0.1-0.6,0.2-0.8c0.2-0.3,0.4-0.5,0.7-0.6
			c0.3-0.1,0.6-0.2,0.9-0.2s0.6,0.1,0.9,0.2c0.3,0.1,0.5,0.3,0.6,0.6s0.2,0.5,0.2,0.8s-0.1,0.6-0.2,0.8s-0.4,0.5-0.6,0.6
			s-0.6,0.2-0.9,0.2S1504.6,618.9,1504.3,618.8z M1503.6,620.8h3.1v13.1h-3.1V620.8z"/>
		<path class="st0" d="M1511.7,633.9h-3.1v-13.1h2.9v2.2h0.1c0.3-0.8,0.8-1.3,1.5-1.8c0.7-0.4,1.5-0.6,2.4-0.6s1.7,0.2,2.4,0.6
			c0.7,0.4,1.2,0.9,1.6,1.7s0.5,1.6,0.5,2.7v8.3h-3.1V626c0-0.6-0.1-1.1-0.3-1.5s-0.5-0.7-0.9-1s-0.8-0.3-1.4-0.3
			c-0.5,0-1,0.1-1.4,0.3s-0.7,0.6-1,1c-0.2,0.5-0.3,1-0.3,1.6v7.8H1511.7z"/>
		<path class="st0" d="M1524.5,633.3c-1-0.6-1.7-1.4-2.2-2.4s-0.8-2.2-0.8-3.5s0.3-2.5,0.8-3.5s1.2-1.8,2.2-2.4s2.1-0.8,3.3-0.8
			c1.3,0,2.4,0.3,3.3,0.8s1.7,1.3,2.2,2.4c0.5,1,0.8,2.2,0.8,3.5s-0.3,2.5-0.8,3.5s-1.2,1.8-2.2,2.4c-0.9,0.6-2,0.8-3.3,0.8
			C1526.5,634.2,1525.4,633.9,1524.5,633.3z M1529.5,631.1c0.5-0.4,0.8-0.9,1.1-1.5c0.2-0.7,0.3-1.4,0.3-2.2s-0.1-1.6-0.3-2.2
			s-0.6-1.2-1.1-1.5c-0.5-0.4-1-0.6-1.7-0.6s-1.3,0.2-1.8,0.6s-0.8,0.9-1.1,1.5s-0.4,1.4-0.4,2.2s0.1,1.6,0.4,2.2s0.6,1.2,1.1,1.5
			s1.1,0.6,1.8,0.6C1528.5,631.7,1529,631.5,1529.5,631.1z"/>
	</g>
</g>
<g>
	<g>
		<circle class="st1" cx="1591.5" cy="626" r="36.4"/>
	</g>
	<g>
		<path class="st0" d="M1571.3,605.9h3.1v8h0.2l6.8-8h3.8l-6.8,7.8l6.8,9.6h-3.8l-5.2-7.5l-1.9,2.3v5.2h-3.1L1571.3,605.9
			L1571.3,605.9z"/>
		<path class="st0" d="M1589.1,622.8c-1-0.5-1.7-1.3-2.2-2.3s-0.8-2.2-0.8-3.5s0.3-2.5,0.8-3.6c0.5-1,1.2-1.8,2.2-2.4
			c0.9-0.6,2-0.8,3.2-0.8c1.1,0,2.1,0.2,3,0.7s1.6,1.2,2.1,2.2s0.8,2.2,0.8,3.7v1h-10.7v-2.1h7.8c0-0.6-0.1-1.1-0.4-1.6
			c-0.2-0.5-0.6-0.8-1.1-1.1s-1-0.4-1.6-0.4s-1.2,0.1-1.7,0.4c-0.5,0.3-0.9,0.7-1.1,1.2c-0.3,0.5-0.4,1-0.4,1.6v1.8
			c0,0.8,0.1,1.4,0.4,2c0.3,0.5,0.7,1,1.2,1.3s1.1,0.4,1.8,0.4c0.4,0,0.8-0.1,1.2-0.2c0.3-0.1,0.6-0.3,0.9-0.5s0.4-0.4,0.6-0.7h3
			c-0.2,0.7-0.5,1.4-1,2s-1.2,1-2,1.3s-1.7,0.5-2.7,0.5C1591.2,623.6,1590.1,623.3,1589.1,622.8z"/>
		<path class="st0" d="M1601.1,628.2v-2.5h0.5c0.2,0,0.5,0,0.8,0s0.6,0,0.8-0.1c0.2-0.1,0.4-0.2,0.6-0.4s0.4-0.5,0.5-1l0.3-0.7
			l-4.7-13.3h3.2l3,9.9h0.1l3-9.9h3.3l-5.2,14.6c-0.4,1.1-0.9,1.9-1.7,2.5c-0.7,0.6-1.7,0.9-2.9,0.9
			C1602,628.3,1601.5,628.3,1601.1,628.2z"/>
		<path class="st0" d="M1575.6,633.3c-0.4-0.3-0.9-0.4-1.6-0.4c-0.4,0-0.8,0.1-1.2,0.2c-0.3,0.1-0.6,0.3-0.8,0.6
			c-0.2,0.2-0.3,0.5-0.3,0.8s0.1,0.6,0.4,0.9c0.3,0.2,0.8,0.4,1.4,0.6l2.2,0.5c1.2,0.3,2.2,0.7,2.8,1.3c0.6,0.6,0.9,1.3,0.9,2.3
			c0,0.8-0.2,1.5-0.7,2.2c-0.5,0.6-1.1,1.1-1.9,1.5s-1.8,0.5-2.9,0.5s-2-0.2-2.9-0.5c-0.8-0.3-1.4-0.8-1.9-1.4s-0.8-1.3-0.9-2.1h3.1
			c0.1,0.5,0.4,1,0.8,1.2s1,0.4,1.7,0.4c0.5,0,0.9-0.1,1.3-0.2s0.7-0.3,0.9-0.5c0.2-0.2,0.3-0.5,0.3-0.8c0-0.4-0.2-0.7-0.5-1
			c-0.3-0.2-0.8-0.4-1.4-0.6l-2.1-0.4c-1.2-0.3-2.1-0.7-2.7-1.3s-0.9-1.4-0.9-2.3c0-0.8,0.2-1.5,0.7-2.1c0.4-0.6,1.1-1.1,1.9-1.4
			c0.8-0.3,1.7-0.5,2.8-0.5c1,0,1.9,0.2,2.7,0.5c0.8,0.3,1.4,0.8,1.8,1.4c0.4,0.6,0.7,1.3,0.8,2.1h-2.9
			C1576.3,634,1576,633.6,1575.6,633.3z"/>
		<path class="st0" d="M1584,643.9h-3.1v-17.4h3v6.6h0.1c0.3-0.8,0.8-1.3,1.4-1.8c0.7-0.4,1.5-0.6,2.4-0.6s1.7,0.2,2.4,0.6
			c0.7,0.4,1.2,0.9,1.6,1.7s0.6,1.6,0.6,2.7v8.3h-3.1v-8c0-0.6-0.1-1.1-0.3-1.5c-0.2-0.4-0.5-0.7-0.9-1s-0.9-0.3-1.4-0.3
			c-0.6,0-1,0.1-1.5,0.3c-0.4,0.2-0.8,0.6-1,1c-0.2,0.5-0.4,1-0.4,1.6v7.8H1584z"/>
		<path class="st0" d="M1596.8,643.3c-1-0.6-1.7-1.4-2.2-2.4s-0.8-2.2-0.8-3.5s0.3-2.5,0.8-3.5s1.2-1.8,2.2-2.4s2.1-0.8,3.3-0.8
			c1.3,0,2.4,0.3,3.3,0.8s1.7,1.3,2.2,2.4c0.5,1,0.8,2.2,0.8,3.5s-0.3,2.5-0.8,3.5s-1.2,1.8-2.2,2.4c-0.9,0.6-2,0.8-3.3,0.8
			S1597.7,643.8,1596.8,643.3z M1601.8,641.1c0.5-0.4,0.8-0.9,1.1-1.5c0.2-0.7,0.3-1.4,0.3-2.2s-0.1-1.6-0.3-2.2s-0.6-1.2-1.1-1.5
			c-0.5-0.4-1-0.6-1.7-0.6s-1.3,0.2-1.8,0.6s-0.8,0.9-1.1,1.5s-0.4,1.4-0.4,2.2s0.1,1.6,0.4,2.2s0.6,1.2,1.1,1.5s1.1,0.6,1.8,0.6
			C1600.8,641.7,1601.4,641.5,1601.8,641.1z"/>
		<path class="st0" d="M1614.3,633.2h-7.5v-2.4h7.5V633.2z M1611.7,627.7V640c0,0.4,0.1,0.7,0.2,0.9s0.3,0.4,0.5,0.5
			s0.5,0.1,0.7,0.1c0.4,0,0.8,0,1.3-0.1v2.5c-0.5,0.1-1.1,0.1-1.7,0.1c-0.8,0-1.5-0.1-2.1-0.4c-0.6-0.3-1.1-0.7-1.5-1.2
			s-0.5-1.2-0.5-2v-12.8h3.1V627.7z"/>
	</g>
</g>
<g>
	<g>
		<circle class="st1" cx="1328.9" cy="720.8" r="36.4"/>
	</g>
	<g>
		<path class="st0" d="M1300.9,712.8h2.8v6.7h7.3v-6.7h2.8v15.7h-2.8v-6.7h-7.3v6.7h-2.8V712.8z"/>
		<path class="st0" d="M1315.6,712.8h12.5v2.4h-4.8v13.3h-2.8v-13.3h-4.9L1315.6,712.8L1315.6,712.8z"/>
		<path class="st0" d="M1333.4,712.8l4.7,11.4h0.2l4.7-11.4h3.5v15.7h-2.7v-10.8h-0.2l-4.4,10.8h-2l-4.4-10.8h-0.1v10.8h-2.7v-15.7
			H1333.4z"/>
		<path class="st0" d="M1348.9,712.8h2.8v13.3h6.9v2.4h-9.8L1348.9,712.8L1348.9,712.8z"/>
	</g>
</g>
<g>
	<g>
		<circle class="st1" cx="1416.5" cy="720.8" r="36.4"/>
	</g>
	<g>
		<path class="st0" d="M1404.3,715c-0.4-0.6-1-1-1.7-1.3s-1.4-0.4-2.2-0.4c-1.1,0-2,0.3-2.9,0.8s-1.5,1.3-1.9,2.4
			c-0.5,1-0.7,2.3-0.7,3.8s0.2,2.7,0.7,3.8s1.1,1.8,1.9,2.4c0.8,0.5,1.8,0.8,2.8,0.8c0.8,0,1.5-0.1,2.2-0.4c0.7-0.3,1.2-0.7,1.7-1.2
			c0.4-0.5,0.8-1.2,0.9-1.9h3.6c-0.2,1.3-0.6,2.4-1.4,3.4c-0.7,1-1.7,1.8-2.9,2.4c-1.2,0.6-2.6,0.9-4.1,0.9c-1.7,0-3.3-0.4-4.6-1.2
			c-1.4-0.8-2.4-2-3.2-3.5s-1.2-3.3-1.2-5.4c0-2.1,0.4-3.9,1.2-5.4c0.8-1.5,1.8-2.7,3.2-3.5c1.4-0.8,2.9-1.2,4.6-1.2
			c1.5,0,2.8,0.3,4,0.8s2.2,1.3,2.9,2.4c0.8,1,1.2,2.3,1.4,3.7h-3.6C1405,716.2,1404.7,715.6,1404.3,715z"/>
		<path class="st0" d="M1420.8,714.3c-0.3-0.4-0.7-0.7-1.3-0.9s-1.2-0.3-1.9-0.3c-0.7,0-1.4,0.1-1.9,0.3s-1,0.5-1.3,0.9
			s-0.4,0.8-0.4,1.3c0,0.7,0.3,1.3,0.9,1.7s1.4,0.7,2.4,1l1.8,0.5c1.7,0.4,3.1,1.1,4.2,1.9c1.1,0.9,1.6,2.1,1.6,3.7
			c0,1.2-0.3,2.2-0.9,3c-0.6,0.9-1.5,1.6-2.6,2.1s-2.5,0.7-4,0.7s-2.8-0.2-4-0.7c-1.1-0.5-2-1.2-2.6-2.1c-0.6-0.9-1-2-1-3.3h3.5
			c0.1,0.7,0.3,1.2,0.6,1.7c0.4,0.5,0.9,0.8,1.5,1s1.3,0.3,2,0.3c0.8,0,1.5-0.1,2.1-0.4c0.6-0.2,1.1-0.6,1.4-1s0.5-0.9,0.5-1.5
			c0-0.5-0.1-0.9-0.4-1.2s-0.7-0.6-1.2-0.8s-1.2-0.4-1.9-0.6l-2.2-0.6c-1.7-0.4-3-1.1-3.9-2s-1.4-2-1.4-3.3c0-1.1,0.3-2.2,0.9-3
			c0.6-0.9,1.5-1.6,2.6-2c1.1-0.5,2.3-0.7,3.7-0.7c1.4,0,2.6,0.2,3.7,0.7s1.9,1.1,2.5,2s0.9,1.8,0.9,2.9h-3.4
			C1421.3,715.2,1421.1,714.7,1420.8,714.3z"/>
		<path class="st0" d="M1437,714.3c-0.3-0.4-0.7-0.7-1.3-0.9s-1.2-0.3-1.9-0.3c-0.7,0-1.4,0.1-1.9,0.3s-1,0.5-1.3,0.9
			s-0.4,0.8-0.4,1.3c0,0.7,0.3,1.3,0.9,1.7s1.4,0.7,2.4,1l1.8,0.5c1.7,0.4,3.1,1.1,4.2,1.9c1.1,0.9,1.6,2.1,1.6,3.7
			c0,1.2-0.3,2.2-0.9,3c-0.6,0.9-1.5,1.6-2.6,2.1s-2.5,0.7-4,0.7s-2.8-0.2-4-0.7c-1.1-0.5-2-1.2-2.6-2.1c-0.6-0.9-1-2-1-3.3h3.5
			c0.1,0.7,0.3,1.2,0.6,1.7c0.4,0.5,0.9,0.8,1.5,1s1.3,0.3,2,0.3c0.8,0,1.5-0.1,2.1-0.4c0.6-0.2,1.1-0.6,1.4-1s0.5-0.9,0.5-1.5
			c0-0.5-0.1-0.9-0.4-1.2s-0.7-0.6-1.2-0.8s-1.2-0.4-1.9-0.6l-2.2-0.6c-1.7-0.4-3-1.1-3.9-2s-1.4-2-1.4-3.3c0-1.1,0.3-2.2,0.9-3
			c0.6-0.9,1.5-1.6,2.6-2c1.1-0.5,2.3-0.7,3.7-0.7c1.4,0,2.6,0.2,3.7,0.7s1.9,1.1,2.5,2s0.9,1.8,0.9,2.9h-3.4
			C1437.5,715.2,1437.3,714.7,1437,714.3z"/>
	</g>
</g>
<g>
	<g>
		<circle class="st1" cx="1504" cy="720.8" r="36.4"/>
	</g>
	<g>
		<path class="st0" d="M1478.6,712.6h5.7c1.1,0,2.1,0.2,2.9,0.6s1.4,1,1.8,1.7s0.6,1.6,0.6,2.6s-0.2,1.8-0.6,2.5s-1,1.3-1.8,1.7
			s-1.8,0.6-2.9,0.6h-4.1V720h3.7c0.7,0,1.3-0.1,1.7-0.3c0.4-0.2,0.8-0.5,1-0.8c0.2-0.4,0.3-0.8,0.3-1.4c0-0.6-0.1-1-0.3-1.4
			c-0.2-0.4-0.5-0.7-1-0.9c-0.4-0.2-1-0.3-1.7-0.3h-2.5v12.9h-2.7L1478.6,712.6L1478.6,712.6z M1490.2,727.7h-3.1l-3.7-6.8h3
			L1490.2,727.7z"/>
		<path class="st0" d="M1492.9,727.3c-0.8-0.5-1.5-1.2-1.9-2c-0.5-0.9-0.7-1.9-0.7-3.1c0-1.2,0.2-2.2,0.7-3.1
			c0.4-0.9,1.1-1.6,1.9-2.1s1.8-0.7,2.8-0.7s1.8,0.2,2.6,0.6c0.8,0.4,1.4,1,1.9,1.9s0.7,1.9,0.7,3.2v0.8h-9.3V721h6.7
			c0-0.5-0.1-1-0.3-1.4c-0.2-0.4-0.5-0.7-0.9-1c-0.4-0.2-0.8-0.3-1.4-0.3c-0.5,0-1,0.1-1.4,0.4s-0.7,0.6-1,1
			c-0.2,0.4-0.4,0.9-0.4,1.4v1.5c0,0.7,0.1,1.2,0.4,1.7s0.6,0.8,1,1.1s1,0.4,1.5,0.4c0.4,0,0.7-0.1,1-0.2c0.3-0.1,0.6-0.2,0.8-0.4
			s0.4-0.4,0.5-0.6h2.6c-0.2,0.6-0.5,1.2-0.9,1.7s-1,0.9-1.7,1.1c-0.7,0.3-1.5,0.4-2.3,0.4C1494.7,728,1493.8,727.7,1492.9,727.3z"
			/>
		<path class="st0" d="M1507.3,722.8l-1.1,0.1c-0.7,0.1-1.2,0.2-1.5,0.5c-0.4,0.3-0.5,0.7-0.5,1.1c0,0.3,0.1,0.6,0.2,0.8
			c0.2,0.2,0.4,0.4,0.7,0.5c0.3,0.1,0.6,0.2,1,0.2c0.5,0,1-0.1,1.4-0.3s0.7-0.5,0.9-0.9c0.2-0.4,0.3-0.7,0.3-1.2V720
			c0-0.4-0.1-0.7-0.2-1c-0.2-0.3-0.4-0.5-0.7-0.6c-0.3-0.1-0.7-0.2-1.1-0.2c-0.6,0-1,0.1-1.4,0.4c-0.4,0.2-0.6,0.6-0.7,1h-2.6
			c0.1-0.6,0.3-1.2,0.7-1.7c0.4-0.5,0.9-0.9,1.6-1.2s1.5-0.4,2.4-0.4c0.8,0,1.6,0.1,2.2,0.4s1.3,0.7,1.7,1.2s0.7,1.3,0.7,2.3v7.6
			h-2.6v-1.6h-0.1c-0.2,0.3-0.4,0.6-0.7,0.9c-0.3,0.3-0.7,0.5-1.1,0.6s-1,0.2-1.5,0.2c-0.7,0-1.4-0.1-2-0.4c-0.6-0.3-1-0.7-1.4-1.2
			c-0.3-0.5-0.5-1.1-0.5-1.9c0-1.2,0.4-2,1.2-2.6s1.8-0.8,3.1-0.9c0.2,0,0.8-0.1,2-0.1h1.1v1.8
			C1508.6,722.7,1508.1,722.8,1507.3,722.8z"/>
		<path class="st0" d="M1515.1,727.2c-0.8-0.5-1.5-1.2-1.9-2.1c-0.4-0.9-0.7-1.9-0.7-3c0-1.2,0.2-2.2,0.7-3.1s1.1-1.6,1.9-2.1
			s1.8-0.7,2.9-0.7c0.9,0,1.7,0.2,2.4,0.5c0.7,0.3,1.3,0.8,1.7,1.4c0.4,0.6,0.7,1.3,0.7,2.1h-2.5c-0.1-0.4-0.2-0.7-0.4-1
			c-0.2-0.3-0.5-0.5-0.8-0.7s-0.7-0.3-1.1-0.3c-0.6,0-1,0.1-1.5,0.4c-0.4,0.3-0.7,0.7-1,1.3c-0.2,0.6-0.4,1.2-0.4,2s0.1,1.4,0.3,2
			c0.2,0.6,0.6,1,1,1.3s0.9,0.4,1.5,0.4c0.4,0,0.8-0.1,1.1-0.2c0.3-0.1,0.6-0.4,0.8-0.7c0.2-0.3,0.4-0.6,0.4-1h2.5
			c-0.1,0.8-0.3,1.5-0.7,2.1c-0.4,0.6-1,1.1-1.7,1.4c-0.7,0.3-1.5,0.5-2.5,0.5C1516.9,728,1515.9,727.7,1515.1,727.2z"/>
		<path class="st0" d="M1529.6,718.4h-6.5v-2h6.5V718.4z M1527.4,713.7v10.7c0,0.3,0.1,0.6,0.2,0.8s0.2,0.3,0.4,0.4s0.4,0.1,0.6,0.1
			c0.3,0,0.7,0,1.2-0.1v2.2c-0.4,0.1-0.9,0.1-1.5,0.1c-0.7,0-1.3-0.1-1.8-0.4c-0.5-0.2-1-0.6-1.3-1.1s-0.5-1-0.5-1.7v-11.1
			L1527.4,713.7L1527.4,713.7z"/>
	</g>
</g>
<g>
	<g>
		<circle class="st1" cx="1591.5" cy="720.8" r="36.4"/>
	</g>
	<g>
		<path class="st0" d="M1567.8,704h5.1c1,0,1.9,0.2,2.6,0.5s1.3,0.9,1.6,1.5c0.4,0.7,0.6,1.4,0.6,2.3c0,0.9-0.2,1.6-0.6,2.3
			c-0.4,0.6-0.9,1.1-1.7,1.5c-0.7,0.4-1.6,0.5-2.6,0.5h-3.7v-2.1h3.3c0.6,0,1.1-0.1,1.5-0.3s0.7-0.4,0.9-0.7
			c0.2-0.3,0.3-0.7,0.3-1.2s-0.1-0.9-0.3-1.3c-0.2-0.3-0.5-0.6-0.9-0.8s-0.9-0.3-1.5-0.3h-2.3v11.6h-2.5V704H1567.8z M1578.2,717.7
			h-2.8l-3.3-6.2h2.7L1578.2,717.7z"/>
		<path class="st0" d="M1581.1,717.2c-0.7-0.4-1.3-1-1.7-1.8c-0.4-0.8-0.6-1.7-0.6-2.8c0-1,0.2-2,0.6-2.8s1-1.4,1.7-1.9
			c0.7-0.4,1.6-0.7,2.5-0.7s1.7,0.2,2.4,0.6s1.3,0.9,1.7,1.7s0.6,1.7,0.6,2.9v0.8h-8.4v-1.6h6.1c0-0.5-0.1-0.9-0.3-1.2
			c-0.2-0.4-0.5-0.7-0.8-0.9c-0.4-0.2-0.8-0.3-1.2-0.3c-0.5,0-0.9,0.1-1.3,0.3s-0.7,0.5-0.9,0.9c-0.2,0.4-0.3,0.8-0.3,1.3v1.4
			c0,0.6,0.1,1.1,0.3,1.5s0.5,0.8,0.9,1s0.9,0.3,1.4,0.3c0.3,0,0.6,0,0.9-0.1s0.5-0.2,0.7-0.4s0.3-0.3,0.4-0.6h2.4
			c-0.1,0.6-0.4,1.1-0.8,1.5s-0.9,0.8-1.5,1s-1.3,0.4-2.1,0.4C1582.7,717.9,1581.8,717.7,1581.1,717.2z"/>
		<path class="st0" d="M1594.4,713.2l-1,0.1c-0.6,0.1-1,0.2-1.4,0.4s-0.5,0.6-0.5,1c0,0.3,0.1,0.5,0.2,0.7s0.4,0.4,0.6,0.5
			c0.3,0.1,0.6,0.2,0.9,0.2c0.5,0,0.9-0.1,1.3-0.3s0.6-0.4,0.8-0.8c0.2-0.3,0.3-0.7,0.3-1.1v-3.3c0-0.3-0.1-0.6-0.2-0.9
			c-0.1-0.2-0.3-0.4-0.6-0.5c-0.3-0.1-0.6-0.2-1-0.2c-0.5,0-0.9,0.1-1.3,0.3c-0.3,0.2-0.5,0.5-0.6,0.9h-2.3c0.1-0.6,0.3-1.1,0.6-1.6
			s0.9-0.8,1.5-1.1s1.4-0.4,2.2-0.4c0.7,0,1.4,0.1,2,0.3s1.1,0.6,1.5,1.1s0.6,1.2,0.6,2.1v6.9h-2.3v-1.4h-0.1
			c-0.2,0.3-0.4,0.6-0.6,0.8c-0.3,0.2-0.6,0.4-1,0.6c-0.4,0.1-0.9,0.2-1.4,0.2c-0.7,0-1.2-0.1-1.8-0.4c-0.5-0.2-0.9-0.6-1.2-1.1
			c-0.3-0.5-0.4-1-0.4-1.7c0-1.1,0.4-1.8,1.1-2.3s1.6-0.7,2.8-0.8c0.2,0,0.8-0.1,1.8-0.1h1v1.6
			C1595.6,713.1,1595.1,713.2,1594.4,713.2z"/>
		<path class="st0" d="M1601.8,717.2c-0.7-0.4-1.3-1.1-1.7-1.9c-0.4-0.8-0.6-1.7-0.6-2.7s0.2-2,0.6-2.8s1-1.4,1.7-1.9
			s1.6-0.7,2.6-0.7c0.8,0,1.6,0.1,2.2,0.4s1.2,0.7,1.5,1.3c0.4,0.6,0.6,1.2,0.6,1.9h-2.3c-0.1-0.3-0.2-0.6-0.4-0.9
			c-0.2-0.3-0.4-0.5-0.7-0.6c-0.3-0.2-0.6-0.2-1-0.2c-0.5,0-0.9,0.1-1.3,0.4c-0.4,0.3-0.7,0.6-0.9,1.1c-0.2,0.5-0.3,1.1-0.3,1.8
			s0.1,1.3,0.3,1.8c0.2,0.5,0.5,0.9,0.9,1.2s0.8,0.4,1.3,0.4c0.4,0,0.7-0.1,1-0.2c0.3-0.1,0.5-0.3,0.7-0.6s0.3-0.6,0.4-0.9h2.3
			c-0.1,0.7-0.3,1.4-0.6,1.9c-0.4,0.6-0.9,1-1.5,1.3s-1.4,0.5-2.2,0.5C1603.4,717.9,1602.6,717.6,1601.8,717.2z"/>
		<path class="st0" d="M1615.3,709.3h-5.9v-1.8h5.9V709.3z M1613.3,705v9.6c0,0.3,0,0.5,0.1,0.7s0.2,0.3,0.4,0.4
			c0.2,0.1,0.4,0.1,0.6,0.1c0.3,0,0.6,0,1,0v2c-0.4,0.1-0.8,0.1-1.4,0.1s-1.2-0.1-1.6-0.3c-0.5-0.2-0.9-0.5-1.1-0.9
			c-0.3-0.4-0.4-0.9-0.4-1.6v-10L1613.3,705L1613.3,705z"/>
		<path class="st0" d="M1568.4,735.8h-2.4v-10.2h2.3v1.7h0.1c0.3-0.6,0.6-1,1.2-1.4c0.5-0.3,1.2-0.5,1.9-0.5c0.7,0,1.3,0.1,1.9,0.4
			c0.5,0.3,0.9,0.7,1.2,1.3s0.4,1.3,0.4,2.1v6.5h-2.4v-6.2c0-0.5-0.1-0.9-0.2-1.2s-0.4-0.6-0.7-0.8c-0.3-0.2-0.7-0.3-1.1-0.3
			s-0.8,0.1-1.1,0.3s-0.6,0.4-0.8,0.8c-0.2,0.4-0.3,0.8-0.3,1.3V735.8z"/>
		<path class="st0" d="M1581.5,731.4l-1,0.1c-0.6,0.1-1,0.2-1.4,0.4s-0.5,0.6-0.5,1c0,0.3,0.1,0.5,0.2,0.7s0.4,0.4,0.6,0.5
			c0.3,0.1,0.6,0.2,0.9,0.2c0.5,0,0.9-0.1,1.3-0.3s0.6-0.4,0.8-0.8c0.2-0.3,0.3-0.7,0.3-1.1v-3.3c0-0.3-0.1-0.6-0.2-0.9
			c-0.1-0.2-0.3-0.4-0.6-0.5c-0.3-0.1-0.6-0.2-1-0.2c-0.5,0-0.9,0.1-1.3,0.3c-0.3,0.2-0.5,0.5-0.6,0.9h-2.3c0.1-0.6,0.3-1.1,0.6-1.6
			s0.9-0.8,1.5-1.1s1.4-0.4,2.2-0.4c0.7,0,1.4,0.1,2,0.3s1.1,0.6,1.5,1.1s0.6,1.2,0.6,2.1v6.9h-2.3v-1.4h-0.1
			c-0.2,0.3-0.4,0.6-0.6,0.8c-0.3,0.2-0.6,0.4-1,0.6c-0.4,0.1-0.9,0.2-1.4,0.2c-0.7,0-1.2-0.1-1.8-0.4c-0.5-0.2-0.9-0.6-1.2-1.1
			c-0.3-0.5-0.4-1-0.4-1.7c0-1.1,0.4-1.8,1.1-2.3s1.6-0.7,2.8-0.8c0.2,0,0.8-0.1,1.8-0.1h1v1.6
			C1582.8,731.3,1582.3,731.3,1581.5,731.4z"/>
		<path class="st0" d="M1592.2,727.5h-5.9v-1.8h5.9V727.5z M1590.2,723.2v9.6c0,0.3,0,0.5,0.1,0.7s0.2,0.3,0.4,0.4
			c0.2,0.1,0.4,0.1,0.6,0.1c0.3,0,0.6,0,1,0v2c-0.4,0.1-0.8,0.1-1.4,0.1s-1.2-0.1-1.6-0.3c-0.5-0.2-0.9-0.5-1.1-0.9
			c-0.3-0.4-0.4-0.9-0.4-1.6v-10L1590.2,723.2L1590.2,723.2z"/>
		<path class="st0" d="M1594.2,724c-0.2-0.1-0.4-0.3-0.5-0.5s-0.2-0.4-0.2-0.7c0-0.2,0.1-0.5,0.2-0.7s0.3-0.4,0.5-0.5
			s0.4-0.2,0.7-0.2c0.3,0,0.5,0.1,0.7,0.2c0.2,0.1,0.4,0.3,0.5,0.5s0.2,0.4,0.2,0.7c0,0.2-0.1,0.4-0.2,0.7s-0.3,0.4-0.5,0.5
			s-0.5,0.2-0.7,0.2C1594.6,724.1,1594.4,724.1,1594.2,724z M1593.7,725.6h2.4v10.2h-2.4V725.6z"/>
		<path class="st0" d="M1603.5,735.8h-2.7l-3.6-10.2h2.6l2.4,7.6h0.1l2.4-7.6h2.6L1603.5,735.8z"/>
		<path class="st0" d="M1609.8,735.4c-0.7-0.4-1.3-1-1.7-1.8c-0.4-0.8-0.6-1.7-0.6-2.8c0-1,0.2-2,0.6-2.8s1-1.4,1.7-1.9
			c0.7-0.4,1.6-0.7,2.5-0.7s1.7,0.2,2.4,0.6s1.3,0.9,1.7,1.7s0.6,1.7,0.6,2.9v0.8h-8.4v-1.6h6.1c0-0.5-0.1-0.9-0.3-1.2
			c-0.2-0.4-0.5-0.7-0.8-0.9c-0.4-0.2-0.8-0.3-1.2-0.3c-0.5,0-0.9,0.1-1.3,0.3s-0.7,0.5-0.9,0.9c-0.2,0.4-0.3,0.8-0.3,1.3v1.4
			c0,0.6,0.1,1.1,0.3,1.5s0.5,0.8,0.9,1s0.9,0.3,1.4,0.3c0.3,0,0.6,0,0.9-0.1s0.5-0.2,0.7-0.4s0.3-0.3,0.4-0.6h2.4
			c-0.1,0.6-0.4,1.1-0.8,1.5s-0.9,0.8-1.5,1s-1.3,0.4-2.1,0.4C1611.4,736,1610.6,735.8,1609.8,735.4z"/>
	</g>
</g>
<g>
	<circle class="st1" cx="426.4" cy="597.2" r="195.8"/>
</g>
<g>
	<g>
		<path class="st4" d="M251.1,294.6c-2.8-3.9-3.3-8.6-3.1-13.2c0.1-3.4,0.1-8.9,3.5-10.9c1.9-1.1,4.5-1.1,6.6-1.2s4.4-0.1,6.4,0.7
			c4.1,1.6,5,6.5,5.1,10.4c0.1,5.6-1.4,11-4.4,15.7c1.2-0.3,2.4-0.6,3.6-0.9c-0.1-0.1-0.1-0.1-0.2-0.2c0.3,0.3,0.6,0.6,0.9,0.9
			c0-0.1-0.1-0.1-0.1-0.2c0.1,0.4,0.2,0.9,0.4,1.3c0,0.4-0.5,0.5,0,0.3c0.4-0.2,0.7-0.5,1-0.7c0.8-0.5,1.7-0.9,2.6-1.2
			c1.8-0.6,3.7-1,5.6-1.2c3.9-0.5,8.6-1.3,12.4,0.3c3.6,1.5,4.7,4.9,3.9,8.5c-0.8,3.7-3,6.2-6.7,7.2c-4.8,1.3-9.7-0.3-14.3-1.6
			c-0.5,1.7-0.9,3.4-1.4,5.1c3.8,0.7,7.4,2.8,9.6,6.1c2.4,3.6,3,8.2,1.7,12.4c-0.6,1.9-1.7,3-3.6,3.8c-1.7,0.7-3.5,1.2-5.2,1.4
			c-3.4,0.4-7.2-0.1-9.6-2.7c-3.1-3.3-2.6-8.7-2.4-12.8c0.1-1.3-1.1-2.4-2.3-2.6c-1.4-0.2-2.4,0.6-2.9,1.9
			c-2.2,5.8-6.5,12.9-13.8,11.6c-1.8-0.3-3.7-1-5.5-1.7c-1.4-0.6-1.7-1.3-2-2.7c-0.6-2.8-0.2-5.9,0.6-8.6c1.1-3.3,3.1-6.2,5.8-8.4
			c2.1-1.7-0.2-5.1-2.6-4.4c-3.8,1.2-7.9,1.9-11.8,0.7c-2.7-0.8-5.5-2.9-6.4-5.7c-0.6-1.8-0.3-3.7,0.2-5.5c0.3-1,0.6-2.1,1-3.1
			c0.2-0.6,0.4-1.6,1-2c1.1-0.8,3.5-0.6,4.7-0.6c1.9,0,3.7,0.3,5.5,0.8c4.3,1.2,8.2,3.4,11.8,6.1c1.1,0.8,2.9,0.2,3.6-0.9
			c0.8-1.3,0.2-2.8-0.9-3.6c-3.9-2.9-8.3-5.3-13.1-6.6c-2.4-0.6-4.9-1-7.3-1c-2.3,0-5.2,0.1-7.2,1.5c-2.2,1.5-3,4.3-3.7,6.7
			c-0.8,2.6-1.3,5.4-0.9,8.1c0.7,4.3,4,8,7.9,9.9c5.4,2.6,11.5,2,17.1,0.3c-0.9-1.5-1.7-2.9-2.6-4.4c-6.3,5.2-9.3,13.9-7.8,22
			c0.4,2.2,1.5,4.2,3.4,5.5c1.9,1.2,4.3,1.9,6.4,2.4c4.6,1.2,9.2,0.6,13.1-2.2c4.3-3.1,6.7-7.9,8.6-12.7c-1.7-0.2-3.5-0.5-5.2-0.7
			c-0.3,5.1-0.4,10.9,2.8,15.2c3.1,4.2,8.2,6,13.4,5.7c5-0.3,11.5-1.9,14-6.7c2.7-5.3,2.4-11.7-0.1-17c-2.6-5.4-8-9.3-13.8-10.4
			c-3.3-0.6-4.7,4.1-1.4,5.1c5.6,1.6,11.7,3.2,17.5,1.5c5.3-1.6,9-5.7,10.1-11.2c0.6-2.9,0.5-6-0.8-8.7c-1.1-2.4-3.2-4.3-5.6-5.4
			c-5.3-2.4-11.4-1.6-17-0.8c-3,0.4-5.9,1.2-8.6,2.7c-1.3,0.7-2.8,1.6-3.5,3c-1,1.8-0.5,3.6,1.1,4.8c1.2,0.9,2.9,0.1,3.6-0.9
			c3.3-5.1,5.1-11.2,5.1-17.3c0.1-5.7-1.3-12.1-6.5-15.4c-2.5-1.6-5.5-2.1-8.3-2.1c-2.8-0.1-6,0.1-8.7,0.9
			c-6.1,1.8-7.9,7.8-8.4,13.5c-0.5,6.4-0.3,13.5,3.7,18.9c0.8,1.2,2.3,1.7,3.6,0.9C251.3,297.6,252,295.8,251.1,294.6L251.1,294.6z"
			/>
	</g>
</g>
<g>
	<g>
		<path class="st4" d="M1244,421.6c-2.8-3.9-3.3-8.6-3.1-13.2c0.1-3.4,0.1-8.9,3.5-10.9c1.9-1.1,4.5-1.1,6.6-1.2s4.4-0.1,6.4,0.7
			c4.1,1.6,5,6.5,5.1,10.4c0.1,5.6-1.4,11-4.4,15.7c1.2-0.3,2.4-0.6,3.6-0.9c-0.1-0.1-0.1-0.1-0.2-0.2c0.3,0.3,0.6,0.6,0.9,0.9
			c0-0.1-0.1-0.1-0.1-0.2c0.1,0.4,0.2,0.9,0.4,1.3c0,0.4-0.5,0.5,0,0.3c0.4-0.2,0.7-0.5,1-0.7c0.8-0.5,1.7-0.9,2.6-1.2
			c1.8-0.6,3.7-1,5.6-1.2c3.9-0.5,8.6-1.3,12.4,0.3c3.6,1.5,4.7,4.9,3.9,8.5c-0.8,3.7-3,6.2-6.7,7.2c-4.8,1.3-9.7-0.3-14.3-1.6
			c-0.5,1.7-0.9,3.4-1.4,5.1c3.8,0.7,7.4,2.8,9.6,6.1c2.4,3.6,3,8.2,1.7,12.4c-0.6,1.9-1.7,3-3.6,3.8c-1.7,0.7-3.5,1.2-5.2,1.4
			c-3.4,0.4-7.2-0.1-9.6-2.7c-3.1-3.3-2.6-8.7-2.4-12.8c0.1-1.3-1.1-2.4-2.3-2.6c-1.4-0.2-2.4,0.6-2.9,1.9
			c-2.2,5.8-6.5,12.9-13.8,11.6c-1.8-0.3-3.7-1-5.5-1.7c-1.4-0.6-1.7-1.3-2-2.7c-0.6-2.8-0.2-5.9,0.6-8.6c1.1-3.3,3.1-6.2,5.8-8.4
			c2.1-1.7-0.2-5.1-2.6-4.4c-3.8,1.2-7.9,1.9-11.8,0.7c-2.7-0.8-5.5-2.9-6.4-5.7c-0.6-1.8-0.3-3.7,0.2-5.5c0.3-1,0.6-2.1,1-3.1
			c0.2-0.6,0.4-1.6,1-2c1.1-0.8,3.5-0.6,4.7-0.6c1.9,0,3.7,0.3,5.5,0.8c4.3,1.2,8.2,3.4,11.8,6.1c1.1,0.8,2.9,0.2,3.6-0.9
			c0.8-1.3,0.2-2.8-0.9-3.6c-3.9-2.9-8.3-5.3-13.1-6.6c-2.4-0.6-4.9-1-7.3-1c-2.3,0-5.2,0.1-7.2,1.5c-2.2,1.5-3,4.3-3.7,6.7
			c-0.8,2.6-1.3,5.4-0.9,8.1c0.7,4.3,4,8,7.9,9.9c5.4,2.6,11.5,2,17.1,0.3c-0.9-1.5-1.7-2.9-2.6-4.4c-6.3,5.2-9.3,13.9-7.8,22
			c0.4,2.2,1.5,4.2,3.4,5.5c1.9,1.2,4.3,1.9,6.4,2.4c4.6,1.2,9.2,0.6,13.1-2.2c4.3-3.1,6.7-7.9,8.6-12.7c-1.7-0.2-3.5-0.5-5.2-0.7
			c-0.3,5.1-0.4,10.9,2.8,15.2c3.1,4.2,8.2,6,13.4,5.7c5-0.3,11.5-1.9,14-6.7c2.7-5.3,2.4-11.7-0.1-17c-2.6-5.4-8-9.3-13.8-10.4
			c-3.3-0.6-4.7,4.1-1.4,5.1c5.6,1.6,11.7,3.2,17.5,1.5c5.3-1.6,9-5.7,10.1-11.2c0.6-2.9,0.5-6-0.8-8.7c-1.1-2.4-3.2-4.3-5.6-5.4
			c-5.3-2.4-11.4-1.6-17-0.8c-3,0.4-5.9,1.2-8.6,2.7c-1.3,0.7-2.8,1.6-3.5,3c-1,1.8-0.5,3.6,1.1,4.8c1.2,0.9,2.9,0.1,3.6-0.9
			c3.3-5.1,5.1-11.2,5.1-17.3c0.1-5.7-1.3-12.1-6.5-15.4c-2.5-1.6-5.5-2.1-8.3-2.1c-2.8-0.1-6,0.1-8.7,0.9
			c-6.1,1.8-7.9,7.8-8.4,13.5c-0.5,6.4-0.3,13.5,3.7,18.9c0.8,1.2,2.3,1.7,3.6,0.9C1244.2,424.6,1244.8,422.8,1244,421.6L1244,421.6
			z"/>
	</g>
</g>
<g>
	<path class="st1" d="M308.6,352h-4.9v-32h4.9V352z"/>
	<path class="st1" d="M318.5,352h-4.7v-24h4.5v3.9h0.3c0.6-1.3,1.5-2.4,2.7-3.1s2.7-1.1,4.4-1.1c1.7,0,3.1,0.3,4.3,1
		c1.2,0.7,2.2,1.7,2.8,3.1c0.7,1.4,1,3,1,5V352h-4.7v-14.7c0-1.2-0.2-2.1-0.6-3c-0.4-0.8-1-1.5-1.7-1.9c-0.8-0.4-1.7-0.7-2.7-0.7
		c-1.1,0-2.1,0.2-2.9,0.7s-1.5,1.2-2,2.1s-0.7,2-0.7,3.2L318.5,352L318.5,352z"/>
	<path class="st1" d="M349.9,331.8h-13.1V328h13.1V331.8z M345.1,322.3V345c0,0.9,0.1,1.5,0.4,2s0.6,0.8,1,1s0.9,0.3,1.5,0.3
		c0.7,0,1.5,0,2.4-0.1v4.1c-0.8,0.1-1.8,0.2-2.9,0.2c-1.3,0-2.5-0.2-3.5-0.7c-1.1-0.5-1.9-1.2-2.6-2.2c-0.6-1-1-2.1-1-3.5v-23.7
		L345.1,322.3L345.1,322.3z"/>
	<path class="st1" d="M353.7,328h4.6v3.8h0.3c0.4-1.3,1.2-2.4,2.3-3.1c1.1-0.7,2.4-1.1,3.7-1.1c0.7,0,1.4,0,2,0.1v4.5
		c-0.2-0.1-0.5-0.1-1-0.2s-1-0.1-1.4-0.1c-1.1,0-2,0.2-2.9,0.7s-1.6,1.1-2.1,1.9s-0.8,1.8-0.8,2.8V352h-4.7V328z"/>
	<path class="st1" d="M372.7,351c-1.7-1-3-2.5-3.9-4.4s-1.4-4-1.4-6.5s0.5-4.7,1.4-6.5c0.9-1.9,2.2-3.3,3.9-4.4s3.7-1.5,5.9-1.5
		c2.2,0,4.2,0.5,5.9,1.5s3,2.5,3.9,4.4s1.4,4,1.4,6.5c0,2.4-0.5,4.6-1.4,6.5s-2.2,3.3-3.9,4.4c-1.7,1-3.7,1.5-5.9,1.5
		C376.4,352.5,374.4,352,372.7,351z M382.2,347.5c1-0.8,1.7-1.8,2.1-3.1s0.7-2.7,0.7-4.3c0-1.6-0.2-3-0.7-4.3s-1.2-2.3-2.1-3.1
		c-1-0.8-2.1-1.1-3.6-1.1s-2.6,0.4-3.6,1.1c-1,0.8-1.7,1.8-2.2,3.1c-0.5,1.3-0.7,2.7-0.7,4.3c0,1.6,0.2,3,0.7,4.3s1.2,2.3,2.2,3.1
		c1,0.8,2.2,1.1,3.6,1.1S381.2,348.2,382.2,347.5z"/>
	<path class="st1" d="M397.4,351c-1.5-1-2.7-2.4-3.6-4.3s-1.3-4.1-1.3-6.6c0-2.6,0.4-4.8,1.3-6.6s2.1-3.3,3.6-4.3s3.3-1.5,5.2-1.5
		c1.4,0,2.5,0.2,3.4,0.7c0.9,0.4,1.6,0.9,2.1,1.5s0.9,1.2,1.4,2h0.2V320h4.7v32h-4.6v-3.7h-0.4c-0.5,0.8-0.9,1.4-1.4,2
		s-1.2,1.1-2.1,1.5s-2.1,0.7-3.4,0.7C400.7,352.5,398.9,352,397.4,351z M407.1,347.4c0.9-0.7,1.7-1.7,2.1-3c0.5-1.3,0.7-2.8,0.7-4.4
		c0-1.7-0.2-3.1-0.7-4.4c-0.5-1.2-1.2-2.2-2.1-2.9c-1-0.7-2.1-1-3.4-1s-2.5,0.4-3.4,1.1s-1.7,1.7-2.1,2.9c-0.5,1.3-0.7,2.7-0.7,4.3
		c0,1.6,0.2,3.1,0.7,4.4s1.2,2.3,2.1,3s2.1,1.1,3.4,1.1S406.1,348.1,407.1,347.4z"/>
	<path class="st1" d="M435,328h4.7v24h-4.6v-4.2h-0.3c-0.6,1.3-1.5,2.4-2.7,3.2c-1.2,0.8-2.7,1.2-4.4,1.2c-1.6,0-2.9-0.3-4.1-1
		s-2.1-1.7-2.8-3.1c-0.7-1.4-1-3-1-4.9V328h4.7v14.7c0,1.1,0.2,2,0.6,2.8s1,1.4,1.7,1.9s1.6,0.7,2.5,0.7s1.8-0.2,2.7-0.7
		s1.6-1.1,2.1-2.1c0.6-0.9,0.8-2,0.8-3.3L435,328L435,328z"/>
	<path class="st1" d="M448.8,350.9c-1.7-1.1-3-2.5-3.9-4.4s-1.4-4-1.4-6.4s0.5-4.6,1.4-6.5s2.2-3.3,3.9-4.4c1.7-1,3.6-1.6,5.9-1.6
		c1.8,0,3.5,0.3,4.9,1s2.6,1.6,3.5,2.8c0.9,1.2,1.4,2.6,1.6,4.2H460c-0.2-0.8-0.5-1.5-0.9-2.1c-0.5-0.6-1.1-1.1-1.8-1.5
		s-1.6-0.6-2.5-0.6c-1.3,0-2.4,0.3-3.4,1s-1.7,1.6-2.3,2.9s-0.8,2.7-0.8,4.4c0,1.7,0.3,3.2,0.8,4.5s1.3,2.3,2.3,3s2.1,1,3.5,1
		c0.9,0,1.7-0.2,2.4-0.5c0.7-0.3,1.3-0.8,1.8-1.4s0.8-1.4,1-2.2h4.6c-0.2,1.6-0.7,3-1.5,4.2s-2,2.2-3.4,2.9
		c-1.4,0.7-3.1,1.1-4.9,1.1C452.5,352.5,450.5,352,448.8,350.9z"/>
	<path class="st1" d="M479.4,331.8h-13.1V328h13.1V331.8z M474.5,322.3V345c0,0.9,0.1,1.5,0.4,2s0.6,0.8,1,1s0.9,0.3,1.5,0.3
		c0.7,0,1.5,0,2.4-0.1v4.1c-0.8,0.1-1.8,0.2-2.9,0.2c-1.3,0-2.5-0.2-3.5-0.7c-1.1-0.5-1.9-1.2-2.6-2.2c-0.6-1-1-2.1-1-3.5v-23.7
		L474.5,322.3L474.5,322.3z"/>
	<path class="st1" d="M484,323.9c-0.5-0.2-0.8-0.6-1.1-1s-0.4-0.9-0.4-1.4s0.1-1,0.4-1.4s0.6-0.8,1.1-1s1-0.4,1.5-0.4
		c0.6,0,1.1,0.1,1.5,0.4s0.8,0.6,1.1,1s0.4,0.9,0.4,1.4s-0.1,1-0.4,1.4s-0.6,0.8-1.1,1s-1,0.4-1.5,0.4S484.5,324.2,484,323.9z
		 M483.1,328h4.7v24h-4.7V328z"/>
	<path class="st1" d="M496.9,351c-1.7-1-3-2.5-3.9-4.4s-1.4-4-1.4-6.5s0.5-4.7,1.4-6.5c0.9-1.9,2.2-3.3,3.9-4.4s3.7-1.5,5.9-1.5
		c2.2,0,4.2,0.5,5.9,1.5s3,2.5,3.9,4.4c0.9,1.9,1.4,4,1.4,6.5c0,2.4-0.5,4.6-1.4,6.5c-0.9,1.9-2.2,3.3-3.9,4.4
		c-1.7,1-3.7,1.5-5.9,1.5S498.6,352,496.9,351z M506.4,347.5c1-0.8,1.7-1.8,2.1-3.1s0.7-2.7,0.7-4.3c0-1.6-0.2-3-0.7-4.3
		s-1.2-2.3-2.1-3.1c-1-0.8-2.1-1.1-3.6-1.1s-2.6,0.4-3.6,1.1c-1,0.8-1.7,1.8-2.2,3.1c-0.5,1.3-0.7,2.7-0.7,4.3c0,1.6,0.2,3,0.7,4.3
		s1.2,2.3,2.2,3.1c1,0.8,2.2,1.1,3.6,1.1S505.5,348.2,506.4,347.5z"/>
	<path class="st1" d="M522.5,352h-4.7v-24h4.5v3.9h0.3c0.6-1.3,1.5-2.4,2.7-3.1s2.7-1.1,4.4-1.1c1.7,0,3.1,0.3,4.3,1
		c1.2,0.7,2.2,1.7,2.8,3.1c0.7,1.4,1,3,1,5V352h-4.7v-14.7c0-1.2-0.2-2.1-0.6-3c-0.4-0.8-1-1.5-1.7-1.9c-0.8-0.4-1.7-0.7-2.7-0.7
		c-1.1,0-2.1,0.2-2.9,0.7c-0.8,0.5-1.5,1.2-2,2.1s-0.7,2-0.7,3.2L522.5,352L522.5,352z"/>
</g>
</svg>
