<?xml version="1.0" encoding="utf-8"?>
<!-- Generator: Adobe Illustrator 24.1.2, SVG Export Plug-In . SVG Version: 6.00 Build 0)  -->
<svg version="1.1" id="Layer_1" xmlns="http://www.w3.org/2000/svg" xmlns:xlink="http://www.w3.org/1999/xlink" x="0px" y="0px"
	 viewBox="0 0 1920 1080" style="enable-background:new 0 0 1920 1080;" xml:space="preserve">
<style type="text/css">
	.st0{fill:#FEF2E3;}
	.st1{fill:#D07E5A;}
	.st2{fill:#6E6F70;}
	.st3{fill:#BBBDBF;}
	.st4{fill:#FCD2AB;}
	.st5{fill:#F29866;}
</style>
<g>
	<rect class="st0" width="1920" height="1080"/>
</g>
<g>
	<g>
		<path class="st1" d="M507.8,565.5c-3.8,0-6.7-1.1-8.9-3.4c-2.2-2.2-3-5-2.4-8.4l23.7-134.5c0.6-3.4,2.3-5.9,5-7.5
			c2.7-1.6,5.7-2.4,9-2.4c3.5,0,6.2,1.1,8.2,3.2s2.6,5.3,1.8,9.5l-8.6,49.1h55.9l9.3-53c0.4-2.6,1.8-4.8,4.2-6.4
			c2.4-1.6,5.2-2.4,8.7-2.4c3.8,0,6.7,1.1,8.8,3.2c2.1,2.1,2.8,5.1,2.2,9l-23.8,135.2c-0.4,2.4-1.9,4.5-4.2,6.2
			c-2.4,1.7-5.3,2.6-8.8,2.6c-3.9,0-6.9-1.1-8.9-3.3c-2-2.2-2.7-5-2.1-8.5l10.9-62.1H532l-11.3,64.1c-0.4,2.5-1.6,4.7-3.7,6.7
			C515,564.5,511.9,565.5,507.8,565.5z"/>
		<path class="st1" d="M648.3,637.5c-5.8,0-10.7-0.8-14.8-2.5c-4.1-1.7-7-3.1-8.8-4.4c-2.5-1.8-4-4.2-4.5-7.3c-0.4-3.1,0.3-6,2.2-9
			c1.6-2.5,3.8-4.1,6.5-4.6c2.7-0.6,5.3,0,7.9,1.6c1,0.6,2.4,1.2,4,1.9c1.7,0.6,3.6,1,5.9,1c3.1,0,6.5-1,10.2-3.1
			c3.7-2.1,7.1-5.9,10.4-11.5c3.2-5.6,5.8-13.7,7.6-24.4l4.5-25.1c-4.3,5.4-8.6,9.5-12.7,12.2c-4.2,2.8-8.2,4.2-12.1,4.2
			c-9.1,0-15.4-3.2-18.8-9.7c-3.5-6.5-4.1-16.2-1.8-29.1l6.6-38c0.4-1.8,1.7-3.6,3.8-5.5c2.1-1.9,5.3-2.8,9.7-2.8
			c3.8,0,6.6,1.2,8.4,3.7c1.8,2.5,2.5,5.2,2,8l-6.6,38.2c-0.9,4.9-0.9,8.5,0,11c0.9,2.4,2.6,3.7,5.1,3.7c2.1,0,5.1-2.3,8.9-6.8
			c3.8-4.6,8.3-11.3,13.4-20.3l4.9-27.3c0.1-1,0.6-2.2,1.5-3.8c0.9-1.6,2.3-3,4.3-4.3c2-1.3,4.7-1.9,8-1.9c3.8,0,6.6,1,8.4,3.1
			c1.8,2.1,2.4,4.9,1.8,8.4l-15,84c-3.6,20.1-9.7,35.2-18.2,45.4C672.4,632.4,661.5,637.5,648.3,637.5z"/>
		<path class="st1" d="M755.6,567c-9.1,0-15.9-2.5-20.5-7.6c-4.6-5-6.9-12.4-6.9-22.1c0-7.6,1.3-14.9,3.9-21.8
			c2.6-6.9,6.1-13,10.6-18.4c4.5-5.4,9.6-9.6,15.3-12.7c5.7-3.1,11.7-4.6,17.9-4.6c7.7,0,13.5,1.6,17.4,4.7
			c3.8,3.1,5.8,7.7,5.8,13.7c0,2.5-0.5,5-1.6,7.4c-1,2.4-2.6,4.8-4.7,7.1c-2.1,2.3-4.7,4.7-7.9,7c-3.1,2.3-6.8,4.7-11,7
			c-2.6,1.5-5.8,3.3-9.7,5.3c-3.9,2-8,4-12.5,6.2c0.1,1,0.2,1.8,0.3,2.6c0.1,0.8,0.3,1.4,0.5,2.1c0.4,1.1,1.1,2,1.9,2.8
			c0.8,0.7,1.8,1.1,2.9,1.1c2.6,0,5.1-0.6,7.7-1.8c2.5-1.2,4.8-2.9,6.7-5.3c2.5-2.9,5.3-4.8,8.2-5.6c2.9-0.8,5.6-0.4,8,1.4
			c1.2,0.8,2.2,2.1,2.9,3.8c0.8,1.7,1.1,3.6,0.8,5.8c-0.3,2.2-1.4,4.6-3.6,7.2c-3.9,4.6-8.7,8.2-14.5,10.9
			C768,565.7,762,567,755.6,567z M754.4,518.5c1.6-0.8,3.1-1.7,4.6-2.6c1.5-0.9,3.1-1.8,4.6-2.6c3.1-1.8,5.6-3.4,7.6-5
			c2-1.5,3.5-2.9,4.6-4.2c1-1.3,1.6-2.4,1.6-3.4c0-0.7-0.2-1.4-0.5-1.9c-0.3-0.6-0.8-0.8-1.6-0.8c-3.1,0-6.1,0.9-8.7,2.6
			c-2.7,1.7-5.1,4.1-7.1,7.2C757.5,510.8,755.8,514.4,754.4,518.5z"/>
		<path class="st1" d="M783.9,637.5c-5.8,0-10.1-0.6-12.9-1.8c-2.8-1.2-5.1-2.4-6.8-3.6c-2.4-1.8-3.8-4.2-4.3-7.2
			c-0.4-3,0.3-6,2.2-8.9c1.6-2.5,3.9-4.1,6.7-4.9c2.9-0.7,5.3-0.3,7.2,1.3c0.8,0.7,1.7,1.1,2.9,1.3c1.1,0.2,2.8,0.3,5,0.3
			c4.3,0,7.7-1,10.4-3.1c2.7-2.1,5-5.9,6.9-11.5s3.8-13.7,5.6-24.4l15-83.8c0.1-1,0.6-2.2,1.5-3.8c0.9-1.6,2.3-3,4.2-4.3
			c2-1.3,4.6-1.9,8-1.9c3.8,0,6.6,1,8.4,3.1c1.8,2.1,2.4,4.9,1.8,8.4l-14.9,84c-3.5,20.1-9.2,35.2-17,45.4
			C806.2,632.4,796.2,637.5,783.9,637.5z M839.8,466.2c-3.3,0-6.2-1.2-8.7-3.7c-2.5-2.5-3.8-5.5-3.8-9c0-3.4,1.2-6.4,3.7-9
			c2.5-2.5,5.4-3.8,8.8-3.8c3.4,0,6.4,1.2,9,3.7c2.7,2.4,4,5.5,4,9.1c0,3.5-1.3,6.5-3.8,9C846.5,465,843.4,466.2,839.8,466.2z"/>
		<path class="st1" d="M885.6,565.5c-4.7,0-8.6-1.1-11.9-3.2c-3.3-2.2-5.8-5-7.7-8.4c-1.9-3.5-3.2-7.2-3.8-11.2
			c-0.6-4-0.6-7.9-0.1-11.6l7.1-39.6c0.1-1,0.6-2.2,1.5-3.8c0.9-1.6,2.3-3,4.2-4.3c2-1.3,4.6-1.9,8-1.9c3.8,0,6.6,1,8.5,3.1
			c1.8,2.1,2.5,4.9,1.8,8.4l-6.6,37.4c-0.4,2.6-0.7,4.7-0.8,6.4c-0.1,1.7,0.1,2.9,0.5,3.7c0.4,0.8,0.9,1.2,1.6,1.2
			c0.9,0,1.7-0.2,2.5-0.7c0.8-0.4,1.4-0.9,1.8-1.3l3.5-5c1.1-1.6,2.4-3,3.7-4.2c1.4-1.1,2.8-1.7,4.2-1.7c2.6,0,5,0.8,7,2.4
			c2,1.6,3.1,4,3.1,7.3c0,1.5-0.2,3.4-0.7,5.7c-0.5,2.3-1.9,4.8-4.3,7.6c-3.6,4.4-7.2,7.8-10.7,10.2
			C894.5,564.3,890.4,565.5,885.6,565.5z M887.7,466.2c-3.4,0-6.3-1.2-8.8-3.7c-2.5-2.5-3.7-5.5-3.7-9c0-3.4,1.2-6.4,3.7-9
			c2.5-2.5,5.4-3.8,8.8-3.8c3.3,0,6.3,1.2,9,3.7c2.7,2.4,4,5.5,4,9.1c0,3.5-1.3,6.5-3.8,9C894.2,465,891.2,466.2,887.7,466.2z"/>
		<path class="st1" d="M945.1,565.5c-3.1,0-5.9-1-8.4-3.1c-2.4-2-3.3-4.9-2.7-8.4l7.8-44.3c0.1-0.6,0.1-1.1,0-1.6
			c-0.1-0.5-0.4-1-0.6-1.4c-0.3-0.4-0.6-0.8-1-1c-0.4-0.3-0.8-0.4-1.3-0.4c-1.2,0-2.2,0.2-2.8,0.7c-0.6,0.4-1.1,0.9-1.4,1.3l-3.6,5
			c-1.1,1.6-2.4,2.9-3.7,4.1c-1.4,1.2-2.8,1.8-4.2,1.8c-2.6,0-4.9-0.8-7-2.4c-2.1-1.6-3.1-4.1-3.1-7.3c0-1.5,0.2-3.4,0.7-5.7
			c0.5-2.3,1.9-4.8,4.3-7.6c3.6-4.4,7.2-7.8,10.7-10.2c3.5-2.4,7.6-3.6,12.4-3.6c4,0,7.8,0.7,11.5,2.1c3.7,1.4,6.8,3.4,9.3,6
			c2.5,2.6,4.2,5.7,4.8,9.4c5-5.9,9.7-10.5,14.1-13.7s8.9-4.8,13.7-4.8c6.1,0,10.9,1.5,14.5,4.5c3.6,3,5.9,7.4,6.9,13.2
			c1,5.9,0.8,13.2-0.8,22l-2.1,11.9c-0.3,2.2-0.5,4.1-0.5,5.5c0,1.4,0.2,2.5,0.6,3.2c0.4,0.7,0.9,1,1.5,1c0.9,0,1.8-0.2,2.6-0.7
			c0.8-0.4,1.4-0.9,1.7-1.3l3.5-5c1.1-1.6,2.4-3,3.8-4.2c1.4-1.1,2.8-1.7,4.2-1.7c2.6,0,5,0.8,7,2.4c2,1.6,3.1,4,3.1,7.3
			c0,1.5-0.2,3.4-0.7,5.7c-0.5,2.3-1.9,4.8-4.3,7.6c-3.6,4.4-7.2,7.8-10.7,10.2c-3.5,2.4-7.6,3.6-12.4,3.6c-4.5,0-8.4-1-11.7-3.1
			c-3.3-2.1-5.9-4.8-7.9-8.1c-2-3.3-3.3-6.9-4-10.8c-0.7-3.9-0.7-7.6-0.1-11.2l2.9-16.1c0.6-3.4,0.8-6.2,0.6-8.4
			c-0.2-2.3-0.8-4-1.8-5.2c-1-1.2-2.3-1.8-3.8-1.8c-2.9,0-6.3,2.5-10.3,7.6c-4,5.1-8.4,11.7-13.4,20l-4.8,27.1
			c-0.6,3.2-2.2,5.6-4.8,7.3C950.5,564.6,947.8,565.5,945.1,565.5z"/>
		<path class="st1" d="M1047.2,457.7c-2,0-4-0.5-6.3-1.5c-2.2-1-3.9-2.4-5.1-4.3c-1.2-1.9-1.3-4.3-0.2-7.1
			c3.1-8.1,4.5-16.1,4.3-24.1c0.7-2.9,2.3-5.2,4.7-6.9s5-2.5,7.8-2.5c3.4,0,6.1,1.2,8.2,3.5c2.1,2.3,3.2,5.5,3.4,9.6
			c0.3,8-1,15.9-4,23.9c-1.1,3-2.9,5.3-5.3,7S1049.8,457.7,1047.2,457.7z"/>
		<path class="st1" d="M1083.6,567c-3.3,0-6.9-0.5-10.9-1.5c-4-1-7.5-2.4-10.5-4.3c-4.7-3-7.6-6.1-9-9.3c-1.3-3.2-1.1-6.3,0.7-9.1
			c1.6-2.9,4.1-4.2,7.4-4c3.3,0.2,6.3,1.2,9,2.9c1,0.6,2.8,1.5,5.5,2.7c2.7,1.3,5.3,1.9,8,1.9c2.5,0,4.2-0.6,5.3-1.8
			c1.1-1.2,1.6-2.5,1.6-3.7c0-1-0.1-1.7-0.4-2.3s-0.9-1.2-1.8-2c-1.6-1.1-3.5-2.4-5.9-3.9c-2.4-1.5-4.8-3-7.5-4.6
			c-5.1-3-9-6.7-11.6-10.9c-2.6-4.2-4-9-4-14.2c0-7.3,2.7-13,8.2-17c5.4-4.1,12.9-6.1,22.4-6.1c3.2,0,6.7,0.3,10.3,0.9
			c3.6,0.6,7,1.7,10.1,3.1c4.5,2.1,7.6,4.7,9.4,7.8c1.8,3.1,1.7,6.4-0.2,10.1c-1.5,2.6-3.8,4-6.9,4c-3.2,0.1-6.3-0.7-9.4-2.4
			c-1.9-1-4.2-1.9-6.9-2.6c-2.7-0.7-5.5-1.1-8.4-1.1c-2,0-3.6,0.4-4.7,1.1c-1.1,0.7-1.7,1.7-1.7,2.8c0,1.4,0.8,2.8,2.4,4.3
			c1.6,1.5,4.2,3.3,7.8,5.6c2.4,1.6,4.9,3.2,7.6,4.9c2.6,1.7,4.6,3.2,6,4.6c2.2,2.1,4,4.4,5.5,7c1.5,2.6,2.2,6.4,2.2,11.3
			c0,5.1-1.2,9.6-3.6,13.4c-2.4,3.9-5.8,6.9-10.2,9C1094.8,565.9,1089.6,567,1083.6,567z"/>
		<path class="st1" d="M1175.5,536.6c-4.1,0-7-1.1-8.7-3.4c-1.7-2.2-2.5-4.6-2.5-7c0-2.3,0.8-4.6,2.5-6.8c1.7-2.3,4.6-3.4,8.7-3.4
			h54.4c4.1,0,7,1.1,8.7,3.4c1.6,2.3,2.4,4.6,2.4,6.8c0,2.3-0.8,4.6-2.4,6.9c-1.6,2.3-4.5,3.4-8.7,3.4H1175.5z M1181,505.2
			c-4.1,0-7-1.1-8.6-3.4c-1.7-2.3-2.5-4.6-2.5-6.9c0-2.4,0.8-4.7,2.5-6.9c1.7-2.2,4.5-3.3,8.6-3.3h54.5c4.1,0,7,1.1,8.7,3.3
			c1.6,2.2,2.4,4.5,2.4,6.9c0,2.2-0.8,4.5-2.4,6.9c-1.6,2.3-4.5,3.5-8.7,3.5H1181z"/>
	</g>
	<g>
		<path class="st2" d="M473.6,772.7c-4.3,0-7.6-1.2-9.9-3.6c-2.3-2.4-3.1-5.4-2.5-9l26-147.7c0.7-3.7,2.2-6.5,4.6-8.2
			c2.4-1.7,5.6-2.6,9.5-2.6c21.5,0,39.6,1.5,54.1,4.5c14.6,3,25.4,7.8,32.3,14.3c7,6.6,9.7,15.2,8.2,26c-1.4,9.8-4.9,17.7-10.6,23.6
			c-5.7,5.9-12.9,10.4-21.8,13.4c-8.8,3-18.7,5.1-29.6,6.2c-10.9,1.1-22.2,1.8-33.9,2.1l-12.4,70.8c-0.5,2.9-1.9,5.3-4.1,7.3
			C481.5,771.7,478.1,772.7,473.6,772.7z M504.2,669.4c8.8-0.3,17.1-1,24.9-1.9c7.8-1,14.7-2.4,20.8-4.3c6.1-1.9,10.9-4.3,14.6-7.3
			c3.6-3,5.6-6.6,6-10.8c0.3-3.1-0.1-6-1.2-8.5c-1.1-2.5-3.7-4.7-7.6-6.5c-3.9-1.8-9.8-3.1-17.7-4.1c-7.9-0.9-18.5-1.4-31.8-1.4
			L504.2,669.4z"/>
		<path class="st2" d="M600.3,773.8c-9.6,0-17.2-3.7-22.8-11.2c-5.5-7.4-8.3-17.5-8.3-30.1c0-11.1,1.8-20.6,5.3-28.5
			c3.5-8,8.5-14.1,15-18.3c6.5-4.2,14.1-6.4,23-6.4c1.7,0,3.6,0.2,5.9,0.5c2.3,0.3,4.5,0.7,6.6,1.1c2.1,0.4,3.7,0.7,4.7,0.9
			c0.4,0.1,1,0.2,1.9,0.3c0.9,0.2,2.8,0.5,5.8,1c2.9,0.5,7.5,1.4,13.8,2.6c3.9,0.8,6.8,2.3,8.8,4.7c2,2.3,2.9,4.9,2.9,7.8
			c0,4.5-1.5,8-4.5,10.2c-3,2.3-6.8,3.3-11.3,3l-1.1-0.1c0.1,0.4,0.1,0.9,0.1,1.4c0,0.5,0,1,0,1.5c0,7.9-1.2,15.4-3.7,22.5
			c-2.5,7.2-5.9,13.5-10.1,19.1c-4.3,5.6-9.1,10-14.6,13.2C611.9,772.2,606.2,773.8,600.3,773.8z M602.6,750.8
			c3.3,0,6.4-1.7,9.2-5.2c2.8-3.4,5.1-8,6.9-13.5c1.8-5.6,2.6-11.6,2.6-18.1c0-4-1-7-2.9-8.9c-1.9-1.9-4.5-2.9-7.8-2.9
			c-3.6,0-6.7,1.2-9.4,3.6c-2.7,2.4-4.7,6-6.2,10.6c-1.4,4.6-2.2,10.2-2.2,16.8c0,5.4,0.9,9.7,2.6,12.8S599.6,750.8,602.6,750.8z"/>
		<path class="st2" d="M700.3,772.7c-3.4,0-6.5-1.1-9.2-3.4c-2.7-2.2-3.7-5.3-3-9.3l8.6-48.6c0.1-0.6,0.1-1.2,0-1.8
			c-0.2-0.6-0.4-1.1-0.7-1.6c-0.3-0.5-0.7-0.8-1.1-1.1c-0.4-0.3-0.9-0.4-1.4-0.4c-1.4,0-2.4,0.2-3,0.7c-0.7,0.5-1.2,1-1.6,1.5
			l-4,5.5c-1.2,1.7-2.6,3.2-4.1,4.5c-1.5,1.3-3.1,1.9-4.7,1.9c-2.8,0-5.4-0.9-7.6-2.7c-2.3-1.8-3.4-4.5-3.4-8c0-1.7,0.3-3.7,0.8-6.3
			c0.5-2.5,2.1-5.3,4.7-8.3c4-4.8,7.9-8.5,11.8-11.2c3.8-2.6,8.4-4,13.6-4c4.4,0,8.6,0.8,12.6,2.3c4,1.6,7.4,3.8,10.3,6.6
			c2.8,2.9,4.6,6.3,5.3,10.3c4.7-6.6,8.8-11.6,12.5-15.1c3.7-3.5,6.9-5.3,9.8-5.3c2.9,0,4.9,0.5,6.2,1.6c1.2,1,2.2,2.1,3,3.2
			c0.8,1.1,2,1.6,3.6,1.6c1.8,0,3.6-0.6,5.4-1.8c1.8-1.2,3.2-2.1,4.2-2.7c1.7-1.2,4-1.8,6.8-1.8c2.8-0.1,5.3,0.7,7.6,2.3
			c2.2,1.6,3.4,4.3,3.4,8c0,2.6-0.6,4.8-1.9,6.4c-1.3,1.6-2.8,2.9-4.5,3.9c-1.7,1-3.3,1.8-4.7,2.6c-2.5,1.3-5.3,2.7-8.7,4.3
			c-3.3,1.6-6.1,2.3-8.2,2.3c-2.5,0-4.8-0.4-6.7-1.3c-2-0.9-3.8-1.8-5.4-2.7c-1.6-0.9-3.2-1.3-4.7-1.3c-1,0-2.6,1-4.6,2.9
			c-2,1.9-4.5,5-7.5,9.3c-2.9,4.3-6.3,9.9-10.1,17l-5.1,28.8c-0.6,3.5-2.4,6.2-5.3,8C706.3,771.8,703.3,772.7,700.3,772.7z"/>
		<path class="st2" d="M830.7,772.7c-5,0-9.3-1.2-12.9-3.5c-3.6-2.3-6.4-5.4-8.5-9.1c-2.1-3.7-3.5-7.7-4.2-12.1
			c-0.7-4.3-0.7-8.5,0-12.5l5.7-32.7h-11.3c-4.2,0-7.4-1-9.6-3.1c-2.2-2.1-3.4-4.7-3.4-7.9c0-3.3,1.1-6,3.4-8.1
			c2.2-2.1,5.5-3.2,9.6-3.2h15.3l8.4-47.9c0.5-2.9,2.1-5.3,4.7-7c2.6-1.7,5.4-2.5,8.2-2.5c2.4,0,4.7,0.4,7,1.1c2.2,0.7,4,2,5.3,3.7
			c1.3,1.7,1.6,4.1,1.1,7.2l-8,45.4h13.5c4.2,0,7.5,1.1,9.8,3.2c2.3,2.2,3.4,4.9,3.4,8.1c0,3.2-1.1,5.8-3.4,7.9
			c-2.3,2.1-5.5,3.1-9.8,3.1h-17.4l-5.7,32.7c-0.4,1.9-0.6,3.5-0.6,4.9c-0.1,1.4,0,2.5,0.1,3.4c0.2,0.9,0.4,1.6,0.7,2
			c0.3,0.4,0.8,0.6,1.3,0.6c1,0,2-0.2,2.9-0.7c0.9-0.5,1.5-1,1.8-1.5l4-5.5c1.2-1.8,2.6-3.3,4.1-4.6c1.5-1.3,3-1.9,4.6-1.9
			c2.9,0,5.5,0.9,7.7,2.6c2.2,1.8,3.4,4.4,3.4,8c0,1.7-0.2,3.7-0.7,6.3c-0.5,2.5-2.1,5.3-4.8,8.4c-4,4.8-7.9,8.5-11.7,11.2
			C840.5,771.4,835.9,772.7,830.7,772.7z"/>
		<path class="st2" d="M884.6,851.4c-3.4,0-6-0.8-7.9-2.5c-1.9-1.7-3.2-3.7-3.8-6.1s-0.8-4.6-0.4-6.7l21.9-133.3H887
			c-3.9,0-7.1-1-9.6-3.1c-2.5-2.1-3.7-4.7-3.7-7.9c0-3.1,1-5.6,3-7.7c2-2.1,5-3.1,9-3.1H898l7.6-47.1c1.4-8.4,4-14.9,7.9-19.6
			c3.9-4.7,8.5-8,13.8-9.9c5.3-1.9,10.8-2.9,16.4-2.9c4.4,0,8.3,0.6,11.9,1.7s7.1,2.9,10.6,5.2c2.3,1.5,3.8,3.6,4.4,6.1
			c0.6,2.5,0,5.4-1.8,8.7c-2.1,3.6-4.5,5.7-7.3,6.3c-2.8,0.6-5,0.4-6.6-0.7c-1.1-0.7-2.6-1.4-4.4-2.2c-1.8-0.8-4.1-1.2-6.8-1.2
			c-2.4,0-4.8,1.2-7.3,3.5c-2.5,2.3-4.2,5.9-5,10.9l-6.7,41.1h9.4c4.2,0,7.5,1,10,3.1c2.5,2.1,3.7,4.6,3.7,7.7
			c0,3.4-1.1,6.1-3.3,8.1c-2.2,2-5.3,3-9.1,3H921l-22.7,137c-0.4,3.1-1.9,5.8-4.5,8.1S888.1,851.4,884.6,851.4z"/>
		<path class="st2" d="M977.6,773.8c-9.6,0-17.2-3.7-22.8-11.2c-5.5-7.4-8.3-17.5-8.3-30.1c0-11.1,1.8-20.6,5.3-28.5
			c3.5-8,8.5-14.1,15-18.3s14.1-6.4,23-6.4c1.7,0,3.6,0.2,5.9,0.5c2.3,0.3,4.5,0.7,6.6,1.1c2.1,0.4,3.7,0.7,4.7,0.9
			c0.4,0.1,1,0.2,1.9,0.3c0.9,0.2,2.8,0.5,5.8,1c2.9,0.5,7.5,1.4,13.8,2.6c3.9,0.8,6.8,2.3,8.8,4.7c2,2.3,2.9,4.9,2.9,7.8
			c0,4.5-1.5,8-4.5,10.2c-3,2.3-6.8,3.3-11.3,3l-1.1-0.1c0.1,0.4,0.1,0.9,0.1,1.4c0,0.5,0,1,0,1.5c0,7.9-1.2,15.4-3.7,22.5
			c-2.5,7.2-5.9,13.5-10.1,19.1c-4.3,5.6-9.1,10-14.6,13.2C989.3,772.2,983.6,773.8,977.6,773.8z M980,750.8c3.3,0,6.4-1.7,9.2-5.2
			c2.8-3.4,5.1-8,6.9-13.5c1.8-5.6,2.6-11.6,2.6-18.1c0-4-1-7-2.9-8.9c-1.9-1.9-4.5-2.9-7.8-2.9c-3.6,0-6.7,1.2-9.4,3.6
			c-2.7,2.4-4.7,6-6.2,10.6c-1.4,4.6-2.2,10.2-2.2,16.8c0,5.4,0.9,9.7,2.6,12.8C974.7,749.2,977,750.8,980,750.8z"/>
		<path class="st2" d="M1070,772.7c-5.2,0-9.5-1.2-13.1-3.6c-3.6-2.4-6.4-5.6-8.4-9.4c-2.1-3.8-3.4-8-4.1-12.4
			c-0.6-4.4-0.6-8.7,0-12.7l21.7-123c0.7-3.7,2.3-6.3,4.9-7.7c2.6-1.5,5.3-2.2,8.1-2.2c3.6,0,6.9,1.2,9.7,3.5
			c2.9,2.3,3.9,5.6,3.2,9.8l-21,119.3c-0.4,2.2-0.6,4-0.7,5.6c-0.1,1.6-0.1,2.8,0,3.8c0.2,1,0.4,1.7,0.8,2.2
			c0.4,0.5,0.8,0.7,1.4,0.7c1,0,1.9-0.2,2.8-0.7c0.9-0.5,1.5-1,1.9-1.5l3.9-5.5c1.2-1.8,2.6-3.3,4.1-4.6c1.5-1.3,3.1-1.9,4.7-1.9
			c2.9,0,5.5,0.9,7.7,2.6c2.2,1.8,3.4,4.4,3.4,8c0,1.7-0.3,3.7-0.8,6.3c-0.5,2.5-2.1,5.3-4.7,8.4c-4,4.8-7.9,8.5-11.7,11.2
			C1079.8,771.4,1075.3,772.7,1070,772.7z"/>
		<path class="st2" d="M1136.6,772.7c-5.1,0-9.4-1.2-13-3.5c-3.6-2.4-6.4-5.5-8.5-9.3c-2.1-3.8-3.5-7.9-4.1-12.3
			c-0.7-4.4-0.7-8.6-0.1-12.7l7.7-43.4c0.1-1,0.7-2.4,1.6-4.2c1-1.8,2.5-3.3,4.7-4.7c2.2-1.4,5.1-2.1,8.8-2.1c4.2,0,7.3,1.1,9.3,3.4
			c2,2.3,2.7,5.3,2,9.2l-7.3,41c-0.5,2.8-0.8,5.2-0.8,7c-0.1,1.8,0.1,3.2,0.5,4.1c0.4,0.9,1,1.3,1.7,1.3c1,0,1.9-0.2,2.8-0.7
			c0.9-0.5,1.5-1,1.9-1.5l3.9-5.5c1.2-1.8,2.6-3.3,4.1-4.6c1.5-1.3,3.1-1.9,4.7-1.9c2.9,0,5.5,0.9,7.7,2.6c2.2,1.8,3.4,4.4,3.4,8
			c0,1.7-0.3,3.7-0.8,6.3c-0.5,2.5-2.1,5.3-4.7,8.4c-4,4.8-7.9,8.5-11.7,11.2C1146.4,771.4,1141.9,772.7,1136.6,772.7z
			 M1138.9,663.9c-3.7,0-6.9-1.4-9.6-4.1c-2.7-2.7-4.1-6-4.1-9.9c0-3.7,1.4-7,4.1-9.8c2.7-2.8,5.9-4.2,9.7-4.2c3.6,0,6.9,1.3,9.8,4
			c2.9,2.7,4.4,6,4.4,10c0,3.9-1.4,7.2-4.2,9.9C1146.1,662.5,1142.8,663.9,1138.9,663.9z"/>
		<path class="st2" d="M1207.1,773.8c-9.6,0-17.2-3.7-22.8-11.2c-5.5-7.4-8.3-17.5-8.3-30.1c0-11.1,1.8-20.6,5.3-28.5
			c3.5-8,8.5-14.1,15-18.3c6.5-4.2,14.1-6.4,23-6.4c1.7,0,3.6,0.2,5.9,0.5c2.3,0.3,4.5,0.7,6.6,1.1c2.1,0.4,3.7,0.7,4.7,0.9
			c0.4,0.1,1,0.2,1.9,0.3c0.9,0.2,2.8,0.5,5.8,1c2.9,0.5,7.5,1.4,13.8,2.6c3.9,0.8,6.8,2.3,8.8,4.7c2,2.3,2.9,4.9,2.9,7.8
			c0,4.5-1.5,8-4.5,10.2c-3,2.3-6.8,3.3-11.3,3l-1.1-0.1c0.1,0.4,0.1,0.9,0.1,1.4c0,0.5,0,1,0,1.5c0,7.9-1.2,15.4-3.7,22.5
			c-2.5,7.2-5.9,13.5-10.1,19.1c-4.3,5.6-9.1,10-14.6,13.2C1218.8,772.2,1213.1,773.8,1207.1,773.8z M1209.4,750.8
			c3.3,0,6.4-1.7,9.2-5.2c2.8-3.4,5.1-8,6.9-13.5c1.8-5.6,2.6-11.6,2.6-18.1c0-4-1-7-2.9-8.9c-1.9-1.9-4.5-2.9-7.8-2.9
			c-3.6,0-6.7,1.2-9.4,3.6c-2.7,2.4-4.7,6-6.2,10.6c-1.4,4.6-2.2,10.2-2.2,16.8c0,5.4,0.9,9.7,2.6,12.8S1206.5,750.8,1209.4,750.8z"
			/>
		<path class="st2" d="M1338.3,804.2c-2.7,2-6,2.5-9.9,1.7c-3.9-0.9-6.9-3.1-8.9-6.7c-7.8-15.7-13.8-31.5-18-47.4
			c-4.2-15.9-6.8-30.9-7.8-45.2c-1-14.3-0.6-26.9,1.2-37.8c1.2-7.2,3.7-15.3,7.3-24.3c3.6-9,8.3-18.4,14-28.2
			c5.7-9.8,12.2-19.5,19.5-29.1c7.3-9.6,15.3-18.6,24-26.9c4.1-3.6,8.1-5.5,12.1-5.7c3.9-0.2,6.9,0.7,8.8,2.7c1.9,2,2.9,4.5,2.9,7.5
			c0.1,3-1.9,6.6-6,10.6c-10.4,10.4-19.3,20.9-26.8,31.4c-7.5,10.6-13.6,21.1-18.3,31.7c-4.7,10.6-8,21.1-9.9,31.6
			c-2.2,11.8-3.1,24-2.9,36.5c0.2,12.6,2,25.6,5.4,39.2c3.3,13.6,8.6,27.8,15.6,42.7c1.6,4.1,2.1,7.3,1.5,9.8
			S1340.3,802.8,1338.3,804.2z"/>
		<path class="st2" d="M1361.3,797c-2-2.3-2.5-5-1.5-7.9c1-2.9,2.8-5.6,5.4-7.8c8.7-8.7,16.2-17.3,22.6-26
			c6.4-8.7,11.9-17.3,16.4-25.9c4.5-8.6,8.2-17.3,11.1-25.9c2.9-8.7,5.1-17.3,6.6-26c1.9-10.6,2.5-21.8,1.7-33.5
			c-0.8-11.7-2.9-23.8-6.4-36.4c-3.5-12.6-8.4-25.7-14.7-39.1c-2.2-5.1-2.8-9.1-1.7-11.9c1.1-2.8,2.8-4.8,5.2-6
			c2.9-1.4,6.1-1.4,9.5,0.1c3.5,1.5,6.6,4.7,9.4,9.7c5.3,10.7,9.7,21.8,13.3,33.2c3.6,11.4,6.3,22.6,8.3,33.6c2,11,3.1,21.3,3.5,31
			c0.3,9.6-0.1,18.1-1.4,25.3c-1.4,8-3.9,16.7-7.5,26.2c-3.6,9.5-8.3,19.3-14,29.4c-5.7,10.1-12.5,20.2-20.3,30.3
			c-7.8,10-16.5,19.7-26.2,28.9c-2.6,2.5-6,3.6-10,3.5C1366.6,801.5,1363.5,800,1361.3,797z"/>
		<path class="st2" d="M1472.5,793.5c-2.3,0-4.6-0.5-6.9-1.6c-2.3-1.1-4.1-2.8-5.3-5.2c-1.2-2.4-1.3-5.6-0.3-9.6l6.9-27.3
			c1-4.2,2.7-7.1,5.3-8.7c2.5-1.6,5.5-2.4,8.8-2.4c2.4,0,4.8,0.5,7.1,1.5c2.3,1,4.1,2.7,5.3,5.1c1.2,2.4,1.3,5.6,0.3,9.6l-6.9,27.4
			c-1,4.1-2.8,7-5.3,8.7C1479,792.7,1476,793.5,1472.5,793.5z M1492.2,711.3c-4.7,0-8.6-1.7-11.7-5.1c-3.1-3.4-4.7-7.4-4.7-12.1
			c0-4.3,1.6-8,4.7-11.2c3.1-3.2,7-4.7,11.7-4.7c4.4,0,8.2,1.6,11.6,4.7c3.4,3.2,5.1,6.9,5.1,11.2c0,4.7-1.7,8.7-5.1,12.1
			C1500.5,709.7,1496.6,711.3,1492.2,711.3z"/>
	</g>
</g>
<g>
	<path class="st3" d="M683.1,422.9c-6.4,0-11.3-2.1-14.6-6.3c-3.3-4.2-4.5-9.8-3.7-16.9c0.7-6.7,2.1-12.7,4-18
		c2-5.3,4.5-9.8,7.5-13.6c3-3.7,6.5-6.6,10.5-8.6c3.9-2,8.2-3,12.9-3c3.2,0,6.1,0.2,8.6,0.5c2.5,0.3,4.7,0.9,6.6,1.8
		c0.8,0.3,1.7,0.9,2.7,1.7c1,0.8,1.8,2,2.2,3.4c0.4,1.4,0.2,3.2-0.8,5.3c-1,2.1-2.4,3.5-4.3,4.3c-1.9,0.8-3.9,0.7-6-0.1
		c-1.7-0.7-3.3-1.2-4.8-1.5c-1.5-0.3-2.9-0.5-4.3-0.5c-3.1,0-5.9,1.1-8.4,3.4c-2.5,2.3-4.6,5.6-6.2,9.8c-1.7,4.3-2.8,9.4-3.5,15.4
		c-0.3,2-0.1,3.6,0.6,4.9c0.7,1.3,1.6,1.9,2.8,1.9c2.1,0,4.4-1.3,7-3.9c2.6-2.6,5.1-6.3,7.4-10.9c0.7-1.4,2.1-2.2,4.2-2.7
		c2.1-0.4,4.4,0,6.7,1.2c2.4,1.1,3.8,2.7,4.1,4.8c0.4,2,0.3,3.5-0.3,4.5c-3.9,7.1-8.6,12.6-14.1,16.7
		C694.5,420.8,688.9,422.9,683.1,422.9z"/>
	<path class="st3" d="M748.2,422.5c-6.7,0-11.9-2.6-15.8-7.7c-3.8-5.2-5.7-12.1-5.7-20.9c0-7.7,1.2-14.3,3.6-19.8
		c2.4-5.5,5.9-9.7,10.4-12.7c4.5-2.9,9.8-4.4,15.9-4.4c1.1,0,2.5,0.1,4.1,0.3c1.6,0.2,3.1,0.5,4.6,0.7c1.5,0.3,2.5,0.5,3.2,0.6
		c0.3,0,0.7,0.1,1.3,0.2c0.6,0.1,2,0.3,4,0.7c2,0.4,5.2,1,9.6,1.8c2.7,0.6,4.7,1.6,6.1,3.2c1.4,1.6,2,3.4,2,5.4c0,3.2-1,5.5-3.1,7.1
		c-2.1,1.6-4.7,2.3-7.9,2.1l-0.8-0.1c0,0.3,0.1,0.6,0.1,1c0,0.3,0,0.7,0,1c0,5.5-0.9,10.7-2.6,15.6c-1.7,5-4.1,9.4-7,13.2
		c-3,3.9-6.3,6.9-10.1,9.1C756.3,421.4,752.4,422.5,748.2,422.5z M749.8,406.5c2.3,0,4.4-1.2,6.4-3.6c2-2.4,3.5-5.5,4.8-9.4
		c1.2-3.9,1.8-8,1.8-12.5c0-2.8-0.7-4.8-2-6.2c-1.3-1.3-3.1-2-5.4-2c-2.5,0-4.6,0.8-6.5,2.5c-1.9,1.7-3.3,4.1-4.3,7.3
		c-1,3.2-1.5,7.1-1.5,11.7c0,3.7,0.6,6.7,1.8,8.9C746.2,405.4,747.8,406.5,749.8,406.5z"/>
	<path class="st3" d="M820.1,421.7c-2.4,0-4.5-0.8-6.4-2.3c-1.9-1.6-2.5-3.7-2.1-6.4l5.9-33.7c0.1-0.4,0.1-0.8,0-1.2
		c-0.1-0.4-0.3-0.8-0.5-1.1c-0.2-0.3-0.5-0.6-0.8-0.8c-0.3-0.2-0.6-0.3-1-0.3c-0.9,0-1.6,0.2-2.1,0.5c-0.5,0.3-0.8,0.7-1.1,1
		l-2.7,3.8c-0.9,1.2-1.8,2.2-2.8,3.1c-1,0.9-2.1,1.3-3.2,1.3c-2,0-3.7-0.6-5.3-1.9c-1.6-1.2-2.4-3.1-2.4-5.6c0-1.1,0.2-2.6,0.5-4.3
		c0.4-1.7,1.5-3.7,3.3-5.7c2.8-3.3,5.5-5.9,8.1-7.7c2.7-1.8,5.8-2.7,9.4-2.7c3,0,5.9,0.5,8.7,1.6c2.8,1.1,5.2,2.6,7.1,4.6
		c1.9,2,3.2,4.4,3.7,7.1c3.8-4.5,7.4-8,10.7-10.4c3.3-2.4,6.8-3.6,10.4-3.6c4.6,0,8.3,1.1,11,3.4c2.7,2.3,4.5,5.6,5.2,10.1
		c0.8,4.5,0.6,10-0.6,16.7l-1.6,9.1c-0.3,1.7-0.4,3.1-0.4,4.2c0,1.1,0.2,1.9,0.4,2.4c0.3,0.5,0.6,0.8,1.1,0.8c0.7,0,1.3-0.2,1.9-0.5
		c0.6-0.3,1.1-0.7,1.3-1l2.7-3.8c0.9-1.2,1.8-2.3,2.9-3.2c1.1-0.9,2.1-1.3,3.2-1.3c2,0,3.8,0.6,5.3,1.8c1.6,1.2,2.3,3.1,2.3,5.5
		c0,1.1-0.2,2.6-0.5,4.3c-0.4,1.7-1.5,3.7-3.3,5.8c-2.8,3.3-5.5,5.9-8.1,7.7c-2.6,1.8-5.8,2.7-9.5,2.7c-3.4,0-6.4-0.8-8.9-2.4
		c-2.5-1.6-4.5-3.6-6-6.1c-1.5-2.5-2.5-5.2-3.1-8.2c-0.5-2.9-0.6-5.8-0.1-8.5l2.2-12.2c0.5-2.6,0.6-4.7,0.4-6.4
		c-0.2-1.7-0.6-3-1.4-3.9c-0.7-0.9-1.7-1.3-2.9-1.3c-2.2,0-4.8,1.9-7.8,5.8c-3,3.9-6.4,8.9-10.2,15.2l-3.6,20.6
		c-0.4,2.4-1.7,4.3-3.7,5.6C824.2,421.1,822.2,421.7,820.1,421.7z"/>
	<path class="st3" d="M921.7,422.9c-2.5,0-5.2-0.4-8.3-1.1c-3-0.7-5.7-1.8-8-3.3c-3.5-2.3-5.8-4.6-6.8-7.1c-1-2.5-0.9-4.8,0.5-6.9
		c1.2-2.2,3.1-3.2,5.7-3c2.5,0.2,4.8,0.9,6.8,2.2c0.8,0.4,2.2,1.1,4.2,2.1c2,1,4.1,1.4,6.1,1.4c1.9,0,3.2-0.5,4.1-1.4
		c0.8-0.9,1.2-1.9,1.2-2.8c0-0.7-0.1-1.3-0.3-1.8c-0.2-0.4-0.7-0.9-1.4-1.5c-1.2-0.9-2.7-1.8-4.5-3c-1.8-1.1-3.7-2.3-5.7-3.5
		c-3.9-2.3-6.8-5.1-8.8-8.3c-2-3.2-3-6.8-3-10.8c0-5.5,2.1-9.8,6.2-12.9c4.1-3.1,9.8-4.6,17-4.6c2.5,0,5.1,0.2,7.9,0.7
		c2.8,0.5,5.3,1.3,7.7,2.4c3.4,1.6,5.8,3.6,7.1,5.9c1.3,2.3,1.3,4.9-0.2,7.7c-1.1,2-2.9,3-5.3,3.1c-2.4,0-4.8-0.6-7.1-1.8
		c-1.4-0.8-3.2-1.4-5.3-2c-2.1-0.6-4.2-0.8-6.4-0.8c-1.5,0-2.7,0.3-3.6,0.8c-0.9,0.6-1.3,1.3-1.3,2.1c0,1.1,0.6,2.2,1.8,3.3
		c1.2,1.1,3.2,2.5,5.9,4.3c1.8,1.2,3.7,2.4,5.7,3.7c2,1.3,3.5,2.5,4.5,3.5c1.7,1.6,3,3.4,4.2,5.3c1.1,2,1.7,4.8,1.7,8.6
		c0,3.9-0.9,7.3-2.7,10.2c-1.8,2.9-4.4,5.2-7.7,6.8C930.2,422.1,926.3,422.9,921.7,422.9z"/>
	<path class="st3" d="M985.6,421.7c-3.5,0-6.5-0.8-8.9-2.4c-2.5-1.6-4.4-3.7-5.9-6.3c-1.5-2.6-2.4-5.4-2.9-8.4c-0.5-3-0.5-5.9,0-8.7
		l4-22.7h-7.9c-2.9,0-5.1-0.7-6.7-2.2c-1.6-1.4-2.3-3.3-2.3-5.5c0-2.3,0.8-4.1,2.3-5.6c1.6-1.5,3.8-2.2,6.7-2.2h10.6l5.8-33.2
		c0.3-2,1.4-3.7,3.3-4.8c1.8-1.2,3.7-1.8,5.7-1.8c1.7,0,3.3,0.3,4.8,0.8c1.6,0.5,2.8,1.4,3.6,2.6c0.9,1.2,1.1,2.9,0.7,5l-5.6,31.5
		h9.4c2.9,0,5.2,0.7,6.8,2.2c1.6,1.5,2.4,3.4,2.4,5.6c0,2.2-0.8,4-2.4,5.5c-1.6,1.4-3.8,2.2-6.8,2.2h-12.1l-4,22.7
		c-0.3,1.3-0.4,2.5-0.4,3.4c0,1,0,1.7,0.1,2.4c0.1,0.6,0.3,1.1,0.5,1.4c0.2,0.3,0.5,0.4,0.9,0.4c0.7,0,1.4-0.2,2-0.5
		c0.6-0.3,1-0.7,1.3-1l2.7-3.8c0.9-1.2,1.8-2.3,2.8-3.2c1-0.9,2.1-1.3,3.2-1.3c2,0,3.8,0.6,5.3,1.8s2.3,3.1,2.3,5.5
		c0,1.1-0.2,2.6-0.5,4.3c-0.3,1.7-1.4,3.7-3.3,5.8c-2.8,3.3-5.5,5.9-8.1,7.7C992.4,420.8,989.2,421.7,985.6,421.7z"/>
</g>
<g>
	<g>
		<path class="st4" d="M1656.4,835.7c-0.4-0.3-1.9-1.8-0.6-0.4c-0.4-0.4-1-0.8-1.4-1.2c-1-0.8-2-1.7-3-2.6c-1.9-1.8-3.7-3.6-5.4-5.6
			c-0.9-1-1.7-2-2.5-3c-0.5-0.6,0.4,0.5,0.4,0.5c-0.1-0.3-0.4-0.6-0.6-0.8c-0.5-0.6-0.9-1.3-1.4-1.9c-1.5-2.1-2.9-4.4-4.2-6.6
			c-1.3-2.3-2.6-4.6-3.7-7c-0.6-1.2-1.1-2.4-1.7-3.6c-0.3-0.6-0.5-1.1-0.7-1.7c-0.3-0.8,0.2,0.5,0.2,0.6c-0.1-0.4-0.3-0.8-0.5-1.2
			c-2-5-3.8-10.1-5.3-15.2c-1.6-5.2-2.9-10.5-4.2-15.8c-0.6-2.6-1.2-5.3-1.7-7.9c-0.2-1.3-0.5-2.5-0.7-3.8c-0.1-0.7-0.2-1.5-0.3-2.2
			c0,0,0.2,1.5,0.1,0.6c0-0.5-0.1-0.9-0.2-1.4c-0.3-2.7-0.5-5.4-0.5-8.2c0-1.3,0-2.5,0.1-3.8c0-0.7,0.1-1.4,0.2-2.1
			c0-0.4,0.1-0.7,0.1-1.1c0.1-1,0.1,0-0.1,0.4c0.4-1.2,0.4-2.6,0.7-3.8c0.3-1.3,0.7-2.5,1.1-3.7c0.2-0.6,0.6-1.3,0.7-1.9
			c0,0-0.6,1.3-0.2,0.6c0.2-0.3,0.3-0.6,0.4-0.9c0.6-1.2,1.2-2.3,1.9-3.4c0.3-0.4,1.1-1.3,1.2-1.7c0,0.2-1.1,1.3-0.2,0.2
			c0.2-0.2,0.4-0.4,0.5-0.6c1-1.1,2-2.1,3.1-3.1c0.5-0.4,0.9-0.9,1.5-1.2c-0.2,0.1-1.3,1-0.2,0.2c0.2-0.2,0.4-0.3,0.7-0.5
			c1.2-0.8,2.5-1.6,3.7-2.4c2.4-1.4,4.9-2.6,7.5-3.8c0.6-0.3,1.2-0.5,1.8-0.8c1.3-0.5,0,0-0.2,0.1c0.3-0.2,0.7-0.3,1-0.4
			c1.4-0.6,2.7-1.1,4.1-1.7c6-2.4,12.1-4.5,18.3-6.1c3-0.8,6.1-1.6,9.2-1.9c-1.5,0.1,0.2,0,0.8-0.1c0.7-0.1,1.4-0.1,2.1-0.2
			c1.6-0.1,3.3-0.1,4.9-0.1c1.4,0,2.8,0.2,4.2,0.3c0.4,0,1.4,0-0.2,0c0.4,0,0.9,0.1,1.2,0.2c0.8,0.1,1.6,0.3,2.4,0.5
			c1.4,0.3,2.8,0.7,4.1,1.2c0.4,0.1,0.8,0.3,1.2,0.4c0.8,0.3,0.5,0.6-0.2-0.1c0.4,0.4,1.4,0.6,1.9,0.9c1.1,0.6,2.2,1.2,3.2,1.8
			c0.6,0.4,1.2,0.8,1.8,1.2c0.2,0.1,0.4,0.3,0.6,0.5c0.8,0.6,0.7,0.4,0-0.1c2.2,1.4,4.1,3.5,5.8,5.4c0.9,1,1.8,2,2.6,3
			c0.2,0.2,0.3,0.4,0.5,0.6c0.8,1.1,0-0.1-0.2-0.2c0.5,0.5,0.9,1.2,1.3,1.7c1.6,2.2,3,4.5,4.3,6.9c1.4,2.4,2.6,4.9,3.8,7.5
			c0.3,0.6,0.5,1.1,0.8,1.7c0.2,0.4,0.3,0.8,0.5,1.1c0-0.1-0.5-1.2-0.2-0.4c0.6,1.5,1.2,3,1.8,4.6c2.1,5.8,3.9,11.7,5.2,17.7
			c0.7,3,1.2,6,1.7,9.1c0.1,0.4,0.1,0.8,0.2,1.2c0.1,0.9,0-0.4-0.1-0.5c0.2,0.8,0.2,1.6,0.3,2.4c0.2,1.6,0.3,3.3,0.5,4.9
			c0.5,6.1,0.5,12.3,0.2,18.4c-0.2,3.1-0.5,6.1-0.8,9.2c0,0.4,0,1.4,0-0.2c0,0.3-0.1,0.6-0.1,0.9c-0.1,0.7-0.2,1.4-0.3,2.1
			c-0.3,1.6-0.6,3.2-0.9,4.8c-0.6,3-1.3,6-2.1,9c3.1-1.7,6.2-3.5,9.2-5.2c-0.4-0.1-0.6-0.3,0.2,0.2c0.2,0.1,2,1.5,1.5,1
			c-0.5-0.5,0.8,1,0.7,0.9c-0.1-0.1,0.6,1.7,0.5,1c-0.2-0.7,0.1,1.2,0.1,1.1c0-0.2,0-0.6,0-0.7c0-0.3,0.1-1-0.1,0.2
			c-0.2,1.3,0,0.3,0,0c0.1-0.3,0.4-1.1,0.4-1.4c0,0-0.7,1.4-0.4,0.8c0.1-0.2,0.2-0.4,0.3-0.5c0.6-1,1.3-2,2-2.9
			c0.2-0.2,0.3-0.4,0.5-0.6c0.5-0.7-0.3,0.4-0.3,0.4c0.3-0.1,1-1.2,1.2-1.5c0.8-1,1.6-1.9,2.5-2.8c1.7-1.8,3.4-3.4,5.2-5
			c0.9-0.8,1.8-1.5,2.7-2.2c0.1-0.1,0.6-0.4,0.6-0.5c0,0-1.1,0.9-0.4,0.3c0.6-0.4,1.2-0.9,1.7-1.3c2-1.4,4-2.8,6.1-4.1
			c4.2-2.6,8.6-5,13-7.2c4.4-2.2,8.8-4.2,13.3-6.1c1.1-0.5,2.2-1,3.4-1.4c0.4-0.2,0.8-0.3,1.2-0.5c0.1,0,1.1-0.5,0.3-0.1
			c-0.8,0.3,0.2-0.1,0.3-0.1c0.4-0.2,0.8-0.3,1.2-0.5c2.7-1.1,5.4-2.2,8.2-3.2c5.5-2,11-3.8,16.7-4.9c1.3-0.3,2.8-0.7,4.1-0.7
			c-1.3,0,0,0,0.6-0.1c0.7-0.1,1.5-0.1,2.2-0.2c2.5-0.2,5-0.2,7.5-0.1c0.6,0,1.1,0.1,1.7,0.1c0.3,0,1.7,0.4,1.9,0.2
			c0,0-1.5-0.2-0.6-0.1c0.3,0,0.6,0.1,0.8,0.1c0.7,0.1,1.5,0.3,2.2,0.4c2.4,0.5,4.8,1.2,7.2,2.1c0.1,0,0.7,0.3,0.8,0.3
			c0,0-1.3-0.6-0.5-0.2c0.6,0.3,1.2,0.5,1.7,0.8c1.1,0.6,2.3,1.2,3.3,1.9c0.5,0.3,0.9,0.6,1.4,0.9c0.2,0.2,0.4,0.3,0.7,0.5
			c0.9,0.6-1-0.8-0.2-0.2c1,0.8,1.9,1.6,2.8,2.5c0.8,0.8,1.6,1.7,2.3,2.6c0.9,1.1-0.7-1,0.1,0.2c0.4,0.6,0.8,1.2,1.2,1.8
			c1.3,1.9,2.4,4,3.4,6.1c0.6,1.2-0.1-0.1-0.1-0.3c0,0.2,0.2,0.5,0.3,0.8c0.2,0.5,0.4,1,0.6,1.5c0.4,1.2,0.8,2.4,1.2,3.6
			c0.7,2.4,1.2,4.8,1.6,7.2c0.1,0.3,0.1,0.8,0.2,1.1c0,0-0.2-1.5-0.1-0.6c0.1,0.5,0.1,1.1,0.2,1.6c0.1,1.3,0.2,2.6,0.3,3.9
			c0.1,2.9,0.1,5.8-0.1,8.6c-0.1,0.7-0.2,1.5-0.2,2.2c-0.1,0.9,0.1-0.3,0.1-0.4c0,0.3-0.1,0.6-0.1,0.9c-0.2,1.5-0.5,2.9-0.9,4.4
			c-0.3,1.3-0.7,2.7-1.2,4c-0.2,0.5-0.4,1-0.5,1.5c-0.5,1.2,0.1-0.2,0.2-0.4c-0.2,0.3-0.3,0.6-0.4,0.9c-1,2.1-2.1,4.1-3.3,6
			c-0.6,0.9-1.5,1.8-1.9,2.7c0,0,0.9-1.1,0.4-0.5c-0.2,0.2-0.3,0.4-0.5,0.6c-0.4,0.5-0.9,1.1-1.3,1.6c-1.5,1.7-3.2,3.4-4.9,4.9
			c-0.8,0.7-1.7,1.7-2.6,2.2c0,0,1.2-0.9,0.5-0.4c-0.2,0.2-0.4,0.3-0.6,0.5c-0.6,0.4-1.1,0.8-1.7,1.2c-3.9,2.7-8.1,5-12.4,6.9
			c-1.3,0.6,1.2-0.5-0.1,0.1c-0.5,0.2-1,0.4-1.5,0.6c-1.2,0.4-2.4,0.9-3.6,1.3c-2.8,0.9-5.6,1.7-8.5,2.3c-2.9,0.7-5.7,1.2-8.6,1.6
			c-0.4,0.1-0.9,0.1-1.3,0.2c-0.1,0-1.2,0.2-0.3,0s-0.2,0-0.3,0c-0.3,0-0.6,0.1-1,0.1c-1.5,0.2-3,0.3-4.5,0.5
			c-5.9,0.5-11.8,0.8-17.7,1c-2.9,0.1-5.9,0.1-8.8,0.2c0,5,0,10,0,15c5.3-0.7,10.6-0.8,15.9-0.4c1.1,0.1,2.5,0.5,3.6,0.4
			c-0.2,0-1.7-0.3-0.3,0c0.3,0,0.6,0.1,0.8,0.1c0.7,0.1,1.5,0.2,2.2,0.4c2.6,0.5,5.1,1.1,7.6,1.8c2.5,0.7,5,1.7,7.4,2.6
			c1,0.4-1.2-0.5-0.2-0.1c0.3,0.1,0.5,0.2,0.8,0.3c0.6,0.3,1.2,0.5,1.8,0.8c1.3,0.6,2.5,1.2,3.7,1.9c2.3,1.2,4.5,2.6,6.7,4.1
			c1,0.7,2,1.4,2.9,2.1c0.9,0.6-1-0.8-0.2-0.1c0.2,0.2,0.4,0.3,0.7,0.5c0.6,0.5,1.1,0.9,1.7,1.4c2,1.7,3.8,3.5,5.6,5.4
			c0.9,0.9,1.7,1.9,2.6,2.9c0.4,0.5,0.8,1,1.2,1.5c0.1,0.1,0.5,0.5,0.5,0.7c-0.2-0.2-0.3-0.4-0.5-0.6c0.2,0.2,0.3,0.4,0.5,0.7
			c3.1,4.1,5.7,8.6,7.9,13.3c0.3,0.6,0.5,1.2,0.8,1.8c0.6,1.2-0.5-1.3,0.2,0.5c0.5,1.2,0.9,2.4,1.4,3.6c0.9,2.5,1.6,5.1,2.2,7.7
			c0.3,1.2,0.5,2.3,0.7,3.5c0.1,0.6,0.2,1.3,0.3,1.9c0,0.3,0.1,0.5,0.1,0.8c0.2,1-0.2-1.5,0-0.1c0.3,2.6,0.5,5.1,0.5,7.7
			c0,2.7-0.1,5.5-0.4,8.2c-0.1,0.5,0.2,1.2,0-0.1c0,0.3-0.1,0.7-0.2,0.9c-0.1,0.7-0.3,1.4-0.4,2.1c-0.3,1.4-0.8,2.8-1.2,4.2
			c-0.5,1.4,0,0.2,0.1-0.1c-0.1,0.3-0.3,0.6-0.4,0.8c-0.3,0.6-0.6,1.3-1,1.9c-0.3,0.6-0.7,1.2-1.1,1.7c-0.2,0.2-0.3,0.5-0.5,0.7
			c-0.8,1.2,0.5-0.6-0.1,0.1c-1.9,2.1-3.7,4.1-5.8,5.9c-1,0.9-2.1,1.8-3.2,2.7c-0.4,0.3-0.8,0.7-1.3,1c-0.8,0.6,1.1-0.8,0.2-0.2
			c-0.3,0.2-0.6,0.4-0.9,0.6c-2.1,1.6-4.3,3.1-6.5,4.5c-4.3,2.7-8.8,5.2-13.5,7.2c-0.3,0.1-0.5,0.2-0.8,0.3c-1,0.4,1.3-0.5,0.3-0.1
			c-0.6,0.2-1.2,0.5-1.8,0.7c-1.2,0.5-2.4,0.9-3.6,1.3c-2.4,0.8-4.8,1.5-7.2,2.1c-1.2,0.3-2.4,0.5-3.6,0.8c-0.6,0.1-1.2,0.2-1.8,0.3
			c-0.2,0-0.5,0-0.8,0.1c0.7-0.2,1.3-0.2,0.2,0c-2.4,0.3-4.8,0.4-7.3,0.4c-1.1,0-2.2,0-3.3-0.1c-0.6,0-1.2-0.1-1.8-0.1
			c-0.3,0-0.7-0.1-1-0.1c-0.2,0-1.4-0.2-0.3,0c1.2,0.2-0.7-0.1-1-0.2c-0.6-0.1-1.2-0.2-1.8-0.3c-1.2-0.3-2.5-0.6-3.7-1
			c-1.1-0.3-2.1-0.7-3.2-1.1c-0.2-0.1-0.5-0.2-0.7-0.3c-1.3-0.5,0.2,0,0.4,0.2c-0.5-0.4-1.3-0.6-1.9-0.9c-2.2-1.1-4.2-2.3-6.2-3.7
			c-0.2-0.2-1.8-1.3-0.8-0.6c0.9,0.7-0.6-0.5-0.8-0.7c-0.9-0.7-1.7-1.5-2.6-2.3c-1.7-1.6-3.2-3.3-4.6-5.1c-0.8-1,0.8,1.1-0.2-0.2
			c-0.3-0.5-0.7-0.9-1-1.4c-0.7-1-1.4-2.1-2.1-3.1c-1.2-2-2.4-4.1-3.4-6.2c-0.5-1-1-2-1.4-3c-0.2-0.5-0.5-1.1-0.7-1.6
			c-0.1-0.3-0.6-1.3-0.1-0.3c0.4,1,0-0.1-0.1-0.3c-0.9-2.2-1.8-4.5-2.5-6.8c-1.6-4.7-3-9.4-4.3-14.2c-0.6-2.3-1.2-4.6-1.8-6.9
			c-0.9-3.6-4.6-5.9-8.2-5.4c-3.8,0.5-6.3,3.6-6.5,7.4c-0.3,4.7-0.6,9.4-1.2,14c-0.1,0.6-0.1,1.3-0.2,1.9c0-0.3,0.2-1.5,0-0.1
			c-0.2,1.2-0.3,2.3-0.5,3.5c-0.4,2.4-0.9,4.8-1.4,7.2c-1,4.3-2.3,8.6-3.8,12.8c-0.2,0.6-0.5,1.2-0.7,1.8c-0.8,2,0.6-1.4-0.2,0.6
			c-0.4,0.8-0.8,1.7-1.2,2.5c-0.8,1.7-1.8,3.5-2.7,5.1c-0.9,1.6-1.9,3.2-3,4.7c-0.6,0.8-1.1,1.6-1.7,2.4c1.1-1.3,0.4-0.6,0.2-0.3
			c-0.5,0.5-0.9,1.1-1.4,1.6c-2.5,2.9-5.2,5.4-8.1,7.8c-0.9,0.7,1.5-1.1,0.1-0.1c-0.4,0.3-0.8,0.6-1.3,0.9c-0.7,0.5-1.4,1-2.2,1.4
			c-1.6,1-3.3,1.9-5.1,2.8c-0.5,0.2-1,0.5-1.4,0.6c1.6-0.5,0.7-0.3,0.3-0.2c-1.1,0.4-2.3,0.8-3.4,1.2c-2.2,0.7-4.5,1.2-6.8,1.6
			c-0.5,0.1-1.1,0.2-1.6,0.3c-1.3,0.2,1.8-0.2-0.2,0c-1.1,0.1-2.1,0.2-3.2,0.3c-2.5,0.2-4.9,0.3-7.4,0.3c-4.6,0-9.2-0.1-13.8-0.3
			c-1.1,0-2.2-0.1-3.3-0.2c-0.5,0-1-0.1-1.5-0.1c-0.4,0-2.3,0-0.3,0c-0.9,0-2-0.3-2.9-0.6c-0.5-0.1-0.9-0.2-1.4-0.4
			c-0.4-0.1-2.5-0.6-0.6-0.2c-0.8-0.2-1.8-0.9-2.5-1.4c-0.1-0.1-0.3-0.2-0.4-0.3c-0.7-0.5-0.6-0.4,0.2,0.2c0,0-0.7-0.6-0.8-0.7
			c-0.7-0.7-1.4-1.4-2.1-2.1c-0.3-0.3-1.2-1.2,0,0c-0.5-0.5-0.9-1.2-1.3-1.8c-2.1-3.2-3.8-6.7-5.4-10.2c-0.8-1.7,0.6,1.5-0.1-0.2
			c-0.2-0.4-0.3-0.9-0.5-1.3c-0.4-0.9-0.7-1.9-1-2.8c-0.7-1.9-1.3-3.8-1.8-5.8c-1-3.8-2.2-7.9-2.4-11.8c0,0.2,0.2,1.7,0.1,0.4
			c-0.1-0.5-0.1-1.1-0.2-1.6c-0.1-0.9-0.2-1.8-0.2-2.7c-0.2-2-0.2-4-0.3-6c0-2.3,0-4.6,0.2-6.9c0.1-1.1,0.2-2.2,0.3-3.3
			c0-0.5,0.1-0.9,0.1-1.4c0-0.4,0.3-2.9,0.1-0.7c0.4-4.3,1.5-8.7,2.7-12.9c0.6-2.1,1.3-4.2,2-6.3c0.4-1,0.8-2.1,1.2-3.1
			c0.1-0.2,0.1-0.3,0.2-0.5c0.3-0.8,0.3-0.7-0.1,0.3c0.2-0.1,0.6-1.3,0.7-1.5c1.9-4.2,4.1-8.2,6.6-12c1.7-2.7,1.2-6.9-1.2-9.1
			c-2.3-2.1-6.3-3.1-9.1-1.2c-4.1,2.9-8.4,5.6-12.7,8c-2.1,1.2-4.2,2.3-6.4,3.4c-1.1,0.5-2.2,1-3.3,1.5c-0.5,0.2-1.1,0.5-1.6,0.7
			c-0.8,0.3-0.7,0.3,0.1,0c-0.4,0.2-0.7,0.3-1.1,0.5c-4.6,1.9-9.4,3.4-14.2,4.5c-1.2,0.3-2.3,0.5-3.5,0.7c-0.6,0.1-1.2,0.2-1.8,0.3
			c-0.4,0.1-2.3,0.5-0.4,0.1c-2.4,0.5-5.1,0.5-7.5,0.5c-2,0-4.1,0-6.1-0.2c-0.5,0-1-0.1-1.5-0.1c-0.2,0-0.3,0-0.5-0.1
			c-0.8-0.1-0.7-0.1,0.5,0.1c-0.6,0.3-2.9-0.5-3.5-0.6c-2-0.4-4-0.9-5.9-1.5c-1-0.3-1.9-0.6-2.9-1c-0.5-0.2-1-0.4-1.4-0.5
			c-0.3-0.1-0.6-0.2-0.9-0.4c1,0.4,1.1,0.5,0.4,0.2c-3.7-1.7-7.1-3.7-10.4-6c-1.4-1,1.3,1.1,0,0c-0.4-0.3-0.8-0.6-1.1-1
			c-0.7-0.6-1.5-1.3-2.2-2c-0.7-0.7-1.4-1.4-2-2.1c-0.3-0.4-0.7-0.7-1-1.1c-0.2-0.3-0.4-0.5-0.6-0.8c0.7,0.9,0.8,1,0.3,0.3
			c-1.1-1.6-2.2-3.3-3.2-5c-0.6-1-1.1-2.1-1.6-3.2c0.7,1.8,0-0.1-0.1-0.4c-0.3-0.7-0.5-1.5-0.8-2.2c-0.7-2.3-1.3-4.6-1.7-6.9
			c-0.1-0.6-0.2-1.2-0.3-1.8c-0.1-0.3-0.4-2.3-0.1-0.4c-0.2-1.4-0.3-2.8-0.4-4.2c-0.4-5-0.4-10.1-0.3-15.2c0.1-2.4,0.1-4.8,0.2-7.2
			c0.1-1.2,0-2.4,0.3-3.6c-0.4,2,0,0,0.1-0.3c0.2-0.8,0.4-1.5,0.6-2.3c0.4-1.8-0.8,1.2,0.1-0.4c0.3-0.5,0.6-1,0.8-1.5
			c0.8-1.5-1.1,1,0.1-0.2c0.4-0.4,0.7-0.8,1.1-1.2c0.3-0.3,0.8-0.9,1.2-1.1c-0.2,0.2-0.4,0.3-0.7,0.5c0.3-0.2,0.6-0.4,0.9-0.6
			c1.1-0.7,2.2-1.4,3.3-2c2-1.1,4.1-2.1,6.2-3c1.8-0.8-1.5,0.6,0.4-0.2c0.4-0.1,0.7-0.3,1.1-0.4c1.3-0.5,2.6-1,3.9-1.4
			c4.6-1.6,9.3-2.9,14.1-3.8c1.2-0.2,2.3-0.4,3.5-0.6c0.6-0.1,1.2-0.2,1.7-0.3c0.3-0.1,2.3-0.4,0.3-0.1c2.5-0.5,5.1-0.6,7.6-0.7
			c5.5-0.4,11.1-0.4,16.6-0.1c2.8,0.2,5.6,0.4,8.3,0.7c0.6,0.1,1.2,0.1,1.8,0.2c0.4,0,3,0.3,1,0.1c1.4,0.1,2.8,0.4,4.2,0.6
			c11.1,1.8,21.9,4.7,32.5,8.4c3.7,1.3,8.4-1.5,9.2-5.2c1-4.2-1.3-7.8-5.2-9.2c-20.2-7-41.8-11.3-63.3-10.7
			c-10.7,0.3-21.5,1.8-31.8,4.8c-5.4,1.6-10.7,3.7-15.8,6.1c-4.7,2.2-9.6,4.9-13,9c-4.3,5.2-5.7,11.2-6.1,17.8
			c-0.3,5.3-0.4,10.7-0.3,16c0.2,11.4,1.8,22.9,7.1,33.1c9.2,17.9,28.8,27.5,48.1,29.6c21.5,2.2,43-6.3,60.8-17.6
			c2.2-1.4,4.4-2.8,6.5-4.3c-3.4-3.4-6.8-6.8-10.3-10.3c-19.7,30-21.4,71-4,102.4c2.2,4,4.9,8,8.5,10.9c4.1,3.4,8.9,5.6,14.2,6.4
			c5.1,0.8,10.2,0.9,15.4,1.1c4.9,0.1,9.9,0.2,14.8-0.2c10-0.8,19.8-3.2,28.5-8.4c7.8-4.7,14.1-11.1,19.5-18.4
			c13.1-18,16.7-40.9,17.9-62.6c-4.9,0.7-9.8,1.3-14.7,2c5.1,20.2,11.4,42.2,27.3,56.7c8.8,8,19.4,12.6,31.1,14.1
			c10.9,1.4,22.2-0.4,32.5-4c10.7-3.7,20.7-9.1,29.7-15.9c5.4-4.1,10.4-8.4,14.5-13.8c4.4-5.7,6.4-12.4,7.3-19.5
			c3-23.4-6-48-21.8-65.2c-16-17.5-39.9-27.3-63.5-26.9c-2.8,0-5.6,0.3-8.4,0.6c-2.1,0.3-3.8,0.7-5.3,2.2c-1.3,1.3-2.3,3.4-2.2,5.3
			c0.2,4,3.3,7.6,7.5,7.5c24.7-0.5,50.9-1.4,72.7-14.6c9.3-5.6,17.6-13.4,23.1-22.9c6.3-11,8.1-23.9,6.9-36.4
			c-1.1-12-4.7-23.6-12.3-33.2c-7.2-9.1-18.2-14.7-29.5-16.4c-12.8-1.9-25.4,0-37.6,4c-11.5,3.8-22.8,8.8-33.8,14.1
			c-10,4.8-19.5,10.3-28,17.5c-4.4,3.7-8.3,7.9-11.8,12.5c-3.5,4.6-6.3,10.1-4.6,16c1,3.6,3.9,6.7,7.6,7.4c4,0.8,8.1-1.1,9.2-5.2
			c7.1-26.1,6.7-54.3-1.2-80.2c-7.2-23.4-21.2-49.7-47.3-55.3c-13.9-3-28.2-0.2-41.5,4.4c-6.5,2.2-12.9,4.8-19.1,7.6
			c-5.8,2.6-11.4,5.8-16.2,10.1c-19.8,17.6-14.1,46.8-8.3,69.4c5.8,22.3,14.7,45.3,32.1,61.2c2.4,2.2,5,4.2,7.6,6.1
			c3.2,2.3,8.5,0.7,10.3-2.7C1661.2,842.1,1659.8,838.2,1656.4,835.7L1656.4,835.7z"/>
	</g>
</g>
<g>
	<g>
		<path class="st4" d="M253.7,295.4c2.7-1.8,5.4-3.4,8.3-4.9c1.4-0.7,2.9-1.4,4.3-2c1-0.5-1.1,0.4,0,0c0.3-0.1,0.6-0.2,0.9-0.4
			c0.9-0.3,1.8-0.7,2.7-1c6.1-2.2,12.5-3.7,19-4.6c0.3,0,0.6-0.1,1-0.1c1.2-0.2-1.2,0.1-0.1,0c0.8-0.1,1.5-0.2,2.3-0.3
			c1.7-0.2,3.5-0.3,5.2-0.5c3.3-0.2,6.6-0.3,9.8-0.4c6.7,0,13.4,0.3,20.1,0.9c3.3,0.3,6.5,0.6,9.8,1c1.5,0.2,3.1,0.3,4.6,0.6
			c-1.6-0.2-0.1,0,0.6,0.1c0.9,0.1,1.7,0.3,2.6,0.4c5.7,0.9,11.5,2.1,17,3.9c1.4,0.4,2.7,0.9,4.1,1.4c0.6,0.2,1.3,0.4,1.9,0.7
			c-1.6-0.8,0.6,0.3,1,0.5c2.5,1.2,4.9,2.5,7.2,4.1c0,0,1.6,1.1,1.6,1.1c-0.1,0.1-1.1-0.9-0.2-0.2c0.3,0.2,0.6,0.5,0.8,0.7
			c1,0.9,2,1.8,3,2.8c0.5,0.5,1,1.1,1.5,1.6c0.1,0.1,0.5,0.6,0.5,0.6c0-0.1-0.8-1.1-0.2-0.2c0.9,1.3,1.8,2.7,2.5,4.1
			c0.4,0.7,0.7,1.4,1,2.1c0.4,0.8,0-0.1-0.1-0.3c0.2,0.4,0.3,0.8,0.5,1.2c0.6,1.7,1.1,3.4,1.6,5.1c0.4,1.5,0.7,3.1,0.9,4.6
			c0.1,0.4,0.4,3,0.2,1.4c0.1,0.9,0.2,1.8,0.3,2.7c0.6,6.5,0.8,13.2,0.8,19.7c0,3.1-0.1,6.2-0.2,9.4c-0.1,1.6-0.2,3.1-0.3,4.7
			c-0.1,0.7-0.1,1.4-0.2,2.2c0,0.4-0.1,0.8-0.1,1.2c-0.1,1.2,0.3-1.8,0,0.1c-0.5,3-1,6-1.8,9c-0.4,1.5-0.8,2.9-1.3,4.3
			c-0.2,0.7-0.5,1.3-0.7,2c-0.2,0.6-1,2.4-0.4,1c-1.3,2.8-2.7,5.5-4.4,8.1c-0.4,0.6-0.8,1.1-1.2,1.7c0.9-1.2-0.2,0.2-0.5,0.6
			c-1.1,1.2-2.2,2.4-3.4,3.5c-0.5,0.5-1,1-1.6,1.4c-0.3,0.2-2.2,1.7-0.8,0.7c-1.3,0.9-2.6,1.9-4,2.7c-1.2,0.7-2.4,1.4-3.7,2.1
			c-0.6,0.3-1.3,0.6-1.9,0.9c-0.4,0.2-0.7,0.3-1.1,0.5c-1,0.5,1.7-0.6-0.2,0.1c-5.8,2.2-11.8,3.8-17.9,4.7c-0.4,0.1-0.8,0.1-1.2,0.2
			c0.3,0,1.6-0.2,0.1,0c-0.7,0.1-1.4,0.2-2.2,0.2c-1.6,0.2-3.3,0.3-4.9,0.4c-3.4,0.2-6.8,0.3-10.2,0.3c-3.5,0-7-0.2-10.5-0.4
			c-1.6-0.1-3.2-0.3-4.7-0.4c-0.8-0.1-1.6-0.2-2.4-0.3c-0.2,0-1.6-0.2-0.7-0.1c1,0.1-0.8-0.1-1-0.1c-6.7-1-13.4-2.4-19.9-4.3
			c-3.4-1-6.7-2-10-3.2c-1.6-0.6-3.2-1.2-4.8-1.8c-0.7-0.3-1.5-0.6-2.2-0.9c-0.8-0.3,0.1,0.1,0.2,0.1c-0.5-0.2-1-0.4-1.6-0.7
			c-6.3-2.8-12.5-6-18.4-9.6c-2.9-1.8-5.7-3.6-8.5-5.6c0.9,3.4,1.8,6.8,2.7,10.3c-0.5,0.9-1.6,1.6-2.7,1.9c0.1,0-1.8,0.1-1,0.1
			c0.7,0-0.9-0.1-0.9-0.2c0-0.1,0.9,0.3,0.9,0.3c-0.1,0.1-1.3-0.8-0.7-0.3c0.3,0.3,1.3,0.5,1.5,0.9c0,0.1-1-1.1-0.5-0.4
			c0.1,0.2,0.4,0.4,0.6,0.5c0.5,0.5,0.8,1.1,0.2,0.1c0.8,1.3,1.7,2.5,2.5,3.8c1.5,2.4,2.8,4.8,4,7.4c0.3,0.6,0.6,1.2,0.8,1.8
			c0.2,0.5,0.8,1.8,0.3,0.6c0.6,1.4,1.1,2.8,1.6,4.2c1.9,5.3,3.3,10.8,4.4,16.4c0.5,2.8,1,5.6,1.4,8.5c0.2,1.5-0.1-0.9,0.1,0.6
			c0.1,0.7,0.2,1.3,0.2,2c0.2,1.5,0.3,3.1,0.5,4.6c1.2,12.1,2,24.3,1.8,36.5c-0.1,3.2-0.2,6.5-0.5,9.7c-0.1,0.9-0.2,1.7-0.3,2.6
			c0,0-0.2,1.3-0.1,0.5s-0.1,0.4-0.1,0.5c-0.2,1.6-0.5,3.2-0.9,4.8c-0.6,2.7-1.3,5.4-2.2,8.1c-0.4,1.3-0.9,2.5-1.4,3.7
			c-0.5,1.4,0.4-0.9-0.2,0.5c-0.3,0.6-0.6,1.3-0.9,1.9c-1.2,2.4-2.5,4.6-3.9,6.8c-0.3,0.5-0.7,1-1,1.5c-0.1,0.2-0.9,1.2-0.3,0.4
			c0.6-0.7-0.1,0.1-0.2,0.2c-0.8,1-1.7,2-2.6,2.9c-0.9,0.9-1.8,1.8-2.8,2.7c-0.4,0.4-0.9,0.8-1.4,1.2c-0.1,0.1-0.9,0.7-0.2,0.1
			c0.8-0.5-0.3,0.2-0.4,0.3c-1.1,0.8-2.2,1.5-3.3,2.1c-0.6,0.3-1.1,0.6-1.7,0.9c-0.3,0.1-0.6,0.3-0.9,0.4c-0.1,0.1-1.4,0.6-0.6,0.3
			c0.8-0.3-0.2,0.1-0.3,0.1c-0.3,0.1-0.6,0.2-0.9,0.3c-0.7,0.3-1.4,0.5-2.2,0.7c-1.4,0.4-2.7,0.8-4.1,1c-0.6,0.1-1.3,0.2-1.9,0.4
			c-0.3,0.1-0.6,0.1-1,0.1c0.1,0,1.2-0.1,0.4-0.1c-1.5,0.1-3.1,0.3-4.6,0.3c-2.9,0.1-5.8-0.1-8.7-0.4c-0.3,0-0.7-0.1-1-0.1
			c0.1,0,1.2,0.2,0.3,0c-0.7-0.1-1.3-0.2-2-0.3c-1.5-0.3-3.1-0.6-4.6-1c-2.8-0.7-5.7-1.5-8.4-2.5c-0.6-0.2-1.3-0.5-1.9-0.7
			c-0.3-0.1-0.6-0.2-1-0.4c-0.1,0-1.1-0.4-0.4-0.1c0.8,0.3-0.3-0.1-0.4-0.2c-0.4-0.2-0.8-0.4-1.2-0.6c-0.7-0.3-1.4-0.7-2.1-1
			c-2.6-1.3-5.2-2.9-7.6-4.6c-0.3-0.2-0.5-0.4-0.8-0.6c0.1,0.1,0.8,0.7,0.2,0.1c-0.5-0.4-1-0.8-1.4-1.2c-1.1-0.9-2.1-1.9-3-2.9
			c-0.8-0.8-1.6-1.7-2.4-2.6c-0.4-0.5-0.8-0.9-1.1-1.4c-0.5-0.6,0.2,0.3,0.3,0.3c-0.3-0.4-0.6-0.8-0.9-1.2c-1.5-2.1-2.8-4.3-4-6.6
			c-0.6-1.1-1.1-2.1-1.6-3.2c-0.1-0.3-0.8-1.9-0.5-1c0.4,0.9,0-0.1-0.1-0.2c-0.2-0.5-0.4-0.9-0.5-1.4c-0.9-2.4-1.6-4.8-2.3-7.2
			c-0.7-2.5-1.2-5.1-1.6-7.7c-0.1-0.4-0.2-0.8-0.2-1.2c0,0.1,0.2,1.4,0.1,0.5c-0.1-0.6-0.1-1.2-0.2-1.8c-0.1-1.3-0.2-2.6-0.3-3.9
			c-0.3-5.9,0-11.9,0.8-17.8c-0.1,1.2,0.1-0.6,0.1-1c0.1-0.9,0.3-1.7,0.4-2.6c0.3-1.6,0.6-3.2,0.9-4.8c0.7-3.2,1.4-6.3,2.2-9.5
			c1.7-6.3,3.6-12.5,5.7-18.7c1-3.1,2.1-6.2,3.1-9.3c-4.8-1.3-9.6-2.7-14.5-4c-0.6,2.7-1.4,5.4-2.2,8.1c-0.4,1.3-0.9,2.7-1.4,4
			c-0.1,0.3-0.9,2.2-0.5,1.3c0.4-0.9,0,0.1-0.1,0.2c-0.2,0.5-0.4,0.9-0.6,1.4c-2.3,5.1-5.2,10-8.4,14.5c-0.4,0.6-0.8,1.1-1.2,1.7
			c-0.2,0.3-0.9,1.1,0.1-0.1c-0.2,0.2-0.4,0.5-0.6,0.7c-0.9,1.2-1.9,2.3-2.9,3.4c-1.9,2.1-3.8,4.1-5.9,6c-1,1-2.1,1.9-3.2,2.8
			c-0.5,0.4-0.9,0.8-1.4,1.1c-0.3,0.3-0.6,0.5-0.9,0.7c0.5-0.4,0.7-0.5,0.1-0.1c-2.3,1.7-4.6,3.2-7,4.7c-2.6,1.6-5.3,3-8.1,4.3
			c-0.3,0.2-2.3,1-1,0.4c-0.6,0.3-1.2,0.5-1.9,0.7c-1.6,0.6-3.1,1.2-4.7,1.7c-3,1-6,1.7-9,2.4c-1.5,0.3-3.1,0.6-4.6,0.8
			c-0.3,0-0.7,0.1-1,0.1c1.5-0.2,0.3,0,0,0c-0.9,0.1-1.8,0.2-2.7,0.3c-6.2,0.5-12.4,0.4-18.6-0.4c1.5,0.2-0.5-0.1-1-0.2
			c-0.8-0.1-1.5-0.3-2.3-0.4c-1.5-0.3-3-0.6-4.6-1c-3.1-0.8-6.2-1.7-9.2-2.9c-0.7-0.3-1.4-0.6-2.2-0.8c1.2,0.5-0.2-0.1-0.6-0.3
			c-1.5-0.7-3-1.4-4.4-2.2c-1.3-0.7-2.6-1.5-3.9-2.4c-0.3-0.2-0.5-0.4-0.8-0.6c0.2,0.2,1.1,0.9,0,0c-0.6-0.5-1.2-1-1.7-1.5
			c-0.6-0.5-1.1-1.1-1.6-1.6c-0.3-0.3-0.6-0.7-0.9-1c-0.1-0.1-0.7-0.9-0.2-0.3c0.5,0.7-0.2-0.2-0.2-0.3c-0.2-0.4-0.5-0.7-0.7-1.1
			c-0.5-0.7-0.9-1.5-1.4-2.3c-0.7-1.3-1.4-2.5-2-3.8c-0.2-0.4-0.9-2.2-0.4-1c-0.3-0.8-0.7-1.7-1-2.5c-1.9-5.1-3.5-10.3-4.7-15.6
			c-0.6-2.6-1.1-5.2-1.5-7.8c-0.1-0.6-0.1-1.4-0.3-2c0,0,0.2,1.5,0.1,0.6c0-0.3-0.1-0.6-0.1-0.8c-0.2-1.4-0.3-2.8-0.4-4.2
			c-0.4-5.3-0.4-10.6,0-15.9c0.1-1.2,0.2-2.4,0.4-3.6c0.1-1.1-0.2,1.4,0,0.4c0-0.3,0.1-0.5,0.1-0.8c0.1-0.7,0.2-1.4,0.4-2.2
			c0.5-2.5,1-4.9,1.7-7.4c0.4-1.2,0.7-2.4,1.2-3.6c0.2-0.6,0.4-1.2,0.6-1.7c0.1-0.2,0.2-0.5,0.3-0.7c0.5-1.3-0.4,0.9,0,0.1
			c1.1-2.2,2.1-4.4,3.4-6.6c0.6-1,1.2-1.9,1.8-2.9c0.3-0.5,0.7-1,1.1-1.5c0.6-0.9-0.9,1.1-0.2,0.3c0.2-0.3,0.4-0.6,0.7-0.8
			c1.6-2,3.4-3.9,5.4-5.6c0.4-0.4,0.8-0.7,1.2-1.1c0.3-0.2,0.6-0.5,0.8-0.7c0.1-0.1,0.8-0.6,0.2-0.1c-0.7,0.5,0.1-0.1,0.2-0.2
			c0.3-0.2,0.7-0.5,1-0.7c0.7-0.5,1.4-0.9,2.1-1.4c2.4-1.5,4.9-2.8,7.5-4c-1.4,0.6,0.2-0.1,0.7-0.3c0.7-0.3,1.3-0.5,2-0.7
			c1.3-0.5,2.7-0.9,4.1-1.3c2.9-0.8,5.8-1.4,8.7-1.9c0.4-0.1,2.6-0.3,0.8-0.1c0.6-0.1,1.2-0.1,1.9-0.2c1.6-0.2,3.1-0.3,4.7-0.4
			c3-0.2,5.9-0.3,8.9-0.3c6.1,0,12.2,0.4,18.2,0.9c2.9,0.2,5.9,0.5,8.8,0.8c3.1,0.3,6.6-2.5,7.2-5.5c0.7-3-0.4-7.1-3.4-8.5
			c-9.2-3.9-18.3-8.3-26.8-13.6c-1.9-1.2-3.8-2.4-5.7-3.7c-1-0.7-2-1.4-3-2.2c-0.3-0.2-1.5-1.1-0.4-0.3c-0.7-0.6-1.4-1.1-2.1-1.7
			c-3.6-3-7-6.2-10-9.6c-0.8-0.9-1.5-1.8-2.3-2.7c-0.2-0.3-1.1-1.4-0.2-0.3c-0.4-0.5-0.8-1-1.2-1.6c-1.4-1.9-2.7-3.9-3.9-5.9
			c-1.1-1.9-2.2-3.9-3.1-6c-0.2-0.5-0.4-1-0.7-1.5c0.7,1.6-0.1-0.3-0.2-0.6c-0.5-1.2-0.9-2.4-1.3-3.6c-0.7-2-1.2-4.1-1.6-6.1
			c-0.2-1-0.4-2.1-0.6-3.1c0.3,1.9,0-0.2,0-0.5c-0.1-0.7-0.1-1.5-0.2-2.2c-0.1-2.4-0.1-4.8,0.1-7.2c0-0.6,0.1-1.2,0.2-1.8
			c0-0.3,0.2-1.9,0-0.5c0.2-1.4,0.5-2.9,0.8-4.3c1.1-5.3,2.7-10.4,4.6-15.4c0.8-2.3,1.7-4.6,2.6-6.9c0.5-1.4,1.1-2.7,1.6-4.1
			c0.2-0.4,0.3-0.8,0.5-1.2c0.2-0.4,0.3-0.8,0.5-1.2c-0.3,0.8-0.3,0.8,0,0c0.9-1.9,1.8-3.9,2.9-5.7c0.5-0.9,1.1-1.8,1.8-2.6
			c-1.1,1.4,0.3-0.2,0.4-0.4c0.5-0.5,1.1-1,1.6-1.5c0.8-0.8-1.4,0.8,0.3-0.2c0.5-0.4,1.1-0.7,1.6-1c0.4-0.2,0.8-0.4,1.1-0.6
			c0.2-0.1,2.2-0.9,0.6-0.3c2.3-0.8,4.6-1.5,6.9-1.9c1.1-0.2,2.2-0.4,3.2-0.5c-1.9,0.3,0.1,0,0.4,0c0.6-0.1,1.2-0.1,1.8-0.2
			c2.2-0.2,4.4-0.3,6.6-0.4c4.4-0.1,8.8,0.1,13.1,0.5c0.4,0,0.8,0.1,1.2,0.1c0.3,0,2.4,0.2,0.4,0c1,0.1,2,0.3,3,0.5
			c2.2,0.4,4.3,0.8,6.5,1.3c4.3,1,8.5,2.3,12.6,3.8c1.1,0.4,2.2,0.8,3.4,1.3c0.3,0.1,2.1,0.9,0.4,0.2c0.5,0.2,1.1,0.5,1.6,0.7
			c2.3,1,4.5,2.1,6.7,3.3c4.3,2.3,8.5,4.9,12.4,7.8c0.3,0.2,0.6,0.5,1,0.7s0.6,0.5,1,0.7c-0.7-0.6-0.8-0.6-0.1-0.1
			c0.9,0.7,1.9,1.5,2.8,2.3c1.8,1.5,3.6,3.2,5.3,4.8c1.7,1.7,3.4,3.4,5,5.2c0.8,0.9,1.6,1.8,2.3,2.7c0.4,0.5,0.8,0.9,1.1,1.4
			c0.5,0.7,0.5,0.6-0.1-0.1c0.2,0.3,0.5,0.6,0.7,1c2.3,3,5.7,4.6,9.4,3.1c3.4-1.4,5.3-5.2,4.3-8.8c-1.5-5.7-2.8-11.4-3.8-17.2
			c-0.1-0.7-0.2-1.5-0.3-2.2c0-0.1-0.3-2.5-0.1-0.9c-0.2-1.5-0.4-2.9-0.5-4.4c-0.3-2.9-0.5-5.8-0.5-8.8c-0.1-2.9,0-5.8,0.1-8.7
			c0.1-1.2,0.2-2.4,0.3-3.6c0.1-0.7,0.2-1.4,0.2-2.2c0.1-0.9,0.1-1,0-0.2c0.1-0.5,0.1-1,0.2-1.4c0.9-5.4,2.2-10.7,4.2-15.8
			c0.2-0.5,0.4-1.1,0.6-1.6c-0.7,1.8,0,0,0.2-0.3c0.4-0.9,0.8-1.7,1.3-2.6c1.1-2.2,2.4-4.4,3.8-6.5c0.6-1,1.3-1.9,2-2.9
			c0.2-0.3,0.5-0.6,0.7-0.9c1.2-1.6-1,1.2,0.2-0.3c1.6-1.9,3.2-3.8,5-5.5c1.5-1.5,3.1-2.8,4.7-4.2c1.5-1.2-1.3,0.9,0.3-0.2
			c0.5-0.3,0.9-0.7,1.4-1c1.1-0.8,2.2-1.5,3.3-2.1c1.7-1,3.6-2.3,5.5-2.8c-1.8,0.5-0.1,0,0.3-0.1c0.5-0.2,1.1-0.4,1.6-0.6
			c1.2-0.4,2.3-0.8,3.5-1.1c1-0.3,2-0.5,3.1-0.7c0.6-0.1,1.1-0.2,1.7-0.3c-1.9,0.3,0.6-0.1,0.8-0.1c2.9-0.3,5.9-0.3,8.9-0.1
			c0.7,0.1,1.5,0.1,2.2,0.2c0.1,0,2.5,0.4,0.9,0.1c1.5,0.2,2.9,0.5,4.4,0.8c2.9,0.6,5.8,1.4,8.7,2.3c5.8,1.8,11.4,4,17,6.2
			c1.3,0.5,2.5,1,3.8,1.5c-1.6-0.7,0.4,0.2,0.6,0.3c0.6,0.3,1.2,0.5,1.7,0.8c0.9,0.5,1.9,1,2.7,1.6c0.2,0.2,1.7,1.5,0.5,0.3
			c0.6,0.6,1.2,1.2,1.8,1.8c1.3,1.3-0.5-1.1,0.4,0.5c0.3,0.5,0.6,1.1,0.9,1.6c1,1.7-0.4-1.4,0.3,0.5c0.1,0.4,0.3,0.8,0.4,1.2
			c0.4,1.2,0.7,2.5,0.9,3.7c0.1,0.6,0.2,1.3,0.3,1.9c0.1,0.9,0.1,0.8,0-0.1c0.1,0.4,0.1,0.9,0.2,1.3c0.6,5.3,0.8,10.7,0.6,16
			c-0.1,2.4-0.3,4.9-0.5,7.3c-0.1,0.7-0.1,1.3-0.2,2c0,0.2-0.3,2.4-0.1,0.6c-0.2,1.5-0.5,3.1-0.7,4.6c-0.9,5.1-2.2,10.2-3.7,15.2
			c-0.9,2.9-1.8,5.7-2.9,8.6c-0.5,1.5-1.1,2.9-1.7,4.4c-0.2,0.4-0.3,0.8-0.5,1.2c-0.3,0.8-0.3,0.8,0,0.1c-0.2,0.4-0.4,0.8-0.5,1.2
			c-2.4,5.6-5.2,11-8.2,16.3c-3,5.3-6.3,10.5-9.8,15.6c-1.7,2.4-3.4,4.8-5.2,7.2c-0.4,0.5-0.8,1.1-1.2,1.6c-0.5,0.7-0.5,0.7-0.1,0.1
			c-0.3,0.4-0.6,0.7-0.8,1.1c-1,1.2-2,2.5-3,3.7c-2.5,3-3.2,7.7,0,10.6c2.7,2.5,8,3.2,10.6,0c15.1-18.5,27.8-39,35.7-61.6
			c3.9-11.1,6.4-22.7,7.4-34.4c0.5-5.5,0.5-11.1,0.2-16.6c-0.4-5.9-0.9-12.1-3.1-17.5c-2.6-6.4-7-11.2-13.2-14.4
			c-5.6-2.9-11.8-5.1-17.7-7.3c-12.2-4.5-25.3-8.2-38.4-6.8c-21.8,2.2-40.1,16.8-50.1,35.9c-11.8,22.6-11.3,49.1-6,73.4
			c0.7,3,1.4,6,2.2,8.9c4.6-1.9,9.1-3.9,13.7-5.8c-23.3-31-62.8-49.3-101.7-44.9c-5.9,0.7-11.6,1.6-17,4c-5.4,2.3-9.6,6.2-12.9,11
			c-3.1,4.5-5,9.8-7.1,14.9c-2.2,5.3-4.3,10.7-6,16.2c-3.5,11.2-4.8,22.7-2.8,34.3c1.7,10,6.1,19.8,12,28.1
			c14.1,20.2,35.7,32.6,57.9,42.1c1.3-4.7,2.5-9.3,3.8-14c-25.1-2.5-53.6-4.5-75.5,10.4c-10.3,7-17.8,16.7-22.5,28.1
			c-4.4,10.5-6,22.1-5.9,33.4c0.1,11.6,2.1,23.3,5.5,34.4c2,6.4,4.4,13,7.9,18.7c4,6.4,9.5,11.4,16,15c24.9,13.8,56.5,13.5,82.1,2
			c23.3-10.4,41.3-31.4,49.4-55.4c1-2.9,1.8-5.8,2.4-8.7c0.9-3.8-1.2-8.3-5.2-9.2c-4.2-0.9-7.9,1.3-9.2,5.2
			c-8.9,26-17.5,53.2-12.1,81c2.3,11.9,7.3,23.1,15,32.5c8.5,10.3,20.6,16.7,33.2,20.5c12.7,3.8,26.9,5.1,39.7,1.2
			c12.6-3.8,22.7-12.5,29.4-23.7c7-11.6,9.8-25.1,10.6-38.5c0.8-13.3-0.2-26.8-1.4-40.1c-1.1-12.7-3-25.6-7.2-37.8
			c-2.2-6.2-4.9-12.2-8.4-17.8c-3.7-6-8.4-11.6-15.9-12.2c-4.1-0.3-7.8,1.9-9.9,5.4c-2.2,3.7-0.6,8,2.7,10.3
			c24.4,17.2,53.7,27.2,83.5,29c27.5,1.7,60-2.9,76.4-27.7c7.6-11.5,10.3-25.7,11-39.2c0.4-6.6,0.3-13.3,0-19.9
			c-0.3-7.6-0.8-15.4-2.7-22.8c-3.6-13.8-12.9-24.7-25.6-30.9c-11.9-5.9-25-8.2-38.1-9.8c-28-3.4-58-4-83.9,8.9
			c-3.1,1.5-6,3.3-8.9,5.2c-3.3,2.2-5,6.7-2.7,10.3C245.6,296,250.2,297.8,253.7,295.4L253.7,295.4z"/>
	</g>
</g>
<g>
	<g>
		<path class="st4" d="M1413.8,284.9c1.7-3.8,3.9-7.1,6.2-10.5c-1.4,2-0.4,0.5,0,0c0.3-0.4,0.6-0.8,1-1.2c0.7-0.8,1.3-1.5,2-2.3
			c1.4-1.5,2.9-2.9,4.4-4.3c0.7-0.6,1.5-1.3,2.2-1.9c0.4-0.3,0.8-0.7,1.2-1c0.2-0.2,1-0.8,0,0c-1.1,0.8,0,0,0.2-0.1
			c1.7-1.3,3.4-2.4,5.1-3.6c3.5-2.3,7.1-4.4,10.8-6.4c4.3-2.3,8.7-4.5,13.2-6.4c-0.6,0.3-1.2,0.5-1.8,0.8c4.9-2.1,10-3.8,15.3-4.5
			c-0.7,0.1-1.3,0.2-2,0.3c2.8-0.4,5.6-0.4,8.5-0.1c-0.7-0.1-1.3-0.2-2-0.3c2.1,0.3,4.1,0.9,6.1,1.7c-0.6-0.3-1.2-0.5-1.8-0.8
			c1.6,0.7,3.1,1.5,4.5,2.5c1.3,1-0.8-0.7-0.2-0.2c0.3,0.3,0.6,0.5,0.9,0.8c0.6,0.5,1.2,1.1,1.8,1.7c1.2,1.2,2.3,2.5,3.4,3.8
			c0.9,1.1-1-1.4-0.2-0.2c0.2,0.3,0.5,0.7,0.7,1c0.5,0.7,1,1.3,1.4,2c4.2,6,8.2,12.1,11.1,18.9c-0.3-0.6-0.5-1.2-0.8-1.8
			c1.5,3.6,2.7,7.4,3.2,11.4c-0.1-0.7-0.2-1.3-0.3-2c0.3,2.7,0.4,5.5,0,8.2c0.1-0.7,0.2-1.3,0.3-2c-0.4,2.5-1,4.9-2,7.2
			c0.3-0.6,0.5-1.2,0.8-1.8c-0.8,1.8-1.7,3.5-2.7,5.2c-0.5,0.8-1,1.5-1.5,2.3c-0.2,0.2-0.3,0.4-0.5,0.6c0.8-1,0.9-1.2,0.4-0.6
			c-0.3,0.4-0.7,0.8-1,1.2c-2.5,2.9-5.4,5.5-8.4,7.9c-0.6,0.5-0.4,0.3,0.6-0.4c-0.2,0.2-0.4,0.3-0.6,0.5c-0.3,0.2-0.6,0.5-1,0.7
			c-0.9,0.7-1.9,1.3-2.8,2c-1.7,1.1-3.4,2.2-5.1,3.2c-3.7,2.2-7.6,4.1-11.5,5.8c0.6-0.3,1.2-0.5,1.8-0.8c-8.1,3.4-16.6,5.7-25.2,6.9
			c0.7-0.1,1.3-0.2,2-0.3c-6,0.8-12,1.1-18,0.8c2.5,2.5,5,5,7.5,7.5c0-0.2,0-0.3,0-0.5c-0.1,0.7-0.2,1.3-0.3,2
			c0-0.2,0.1-0.3,0.1-0.4c-0.3,0.6-0.5,1.2-0.8,1.8c0.4-0.9-1.4,1.5-0.6,0.8c-0.2,0.2-1.8,1.2-0.7,0.7c-0.6,0.3-1.2,0.5-1.8,0.8
			c0.3-0.1,0.7-0.2,1-0.3c-0.7,0.1-1.3,0.2-2,0.3c0.7-0.1,1.4-0.1,2,0c-0.7-0.1-1.3-0.2-2-0.3c1,0.1,1.9,0.5,2.8,0.9
			c-0.6-0.3-1.2-0.5-1.8-0.8c2,0.8,3.9,1.8,5.7,2.9c0.9,0.5,1.8,1.1,2.7,1.7c0.4,0.3,0.9,0.6,1.3,0.9c0.2,0.1,0.3,0.2,0.5,0.4
			c1,0.7,0-0.1-0.4-0.3c0.9,0.5,1.7,1.4,2.5,2c0.8,0.7,1.6,1.4,2.4,2.2c1.6,1.5,3.2,3.1,4.7,4.8c1.5,1.6,2.9,3.3,4.2,5
			c0.6,0.8,1.3,1.6,1.9,2.4c-1.5-1.8-0.2-0.3,0.1,0.1c0.4,0.5,0.7,1,1.1,1.5c2.7,3.7,5.4,7.4,8,11.2c3.1,4.5,5.9,9.3,8.1,14.3
			c-0.3-0.6-0.5-1.2-0.8-1.8c1.6,3.8,2.7,7.6,3.3,11.7c-0.1-0.7-0.2-1.3-0.3-2c0.4,3.2,0.5,6.5,0.1,9.7c0.1-0.7,0.2-1.3,0.3-2
			c-0.4,2.5-1,4.9-2,7.3c0.3-0.6,0.5-1.2,0.8-1.8c-0.9,2-2,3.7-3.2,5.5c1.3-2,0.4-0.5,0,0c-0.3,0.3-0.5,0.6-0.8,0.8
			c-0.7,0.7-1.4,1.4-2.2,2.1c-0.4,0.3-0.8,0.6-1.2,1c1.8-1.6,0.5-0.4,0,0c-0.7,0.5-1.5,1-2.3,1.5c-1.8,1.1-3.6,2-5.5,2.8
			c0.6-0.3,1.2-0.5,1.8-0.8c-4.1,1.7-8.4,2.9-12.8,3.5c0.7-0.1,1.3-0.2,2-0.3c-3.3,0.4-6.6,0.5-9.8,0.1c0.7,0.1,1.3,0.2,2,0.3
			c-3-0.4-5.9-1.2-8.7-2.4c0.6,0.3,1.2,0.5,1.8,0.8c-2.8-1.2-5.5-2.8-8-4.6c-1.3-1,0.9,0.7,0.3,0.2c-0.3-0.3-0.7-0.6-1-0.8
			c-0.6-0.5-1.2-1-1.7-1.5c-1.1-1.1-2.2-2.2-3.2-3.3c-0.5-0.6-1-1.2-1.5-1.8c-0.2-0.3-0.5-0.6-0.7-0.9c1.5,1.8,0.5,0.7,0.2,0.3
			c-0.9-1.2-1.8-2.5-2.6-3.8c-1.9-3.1-3.6-6.4-5-9.8c0.3,0.6,0.5,1.2,0.8,1.8c-3.7-8.9-6-18.2-8.3-27.5c-4.8,1.3-9.6,2.7-14.5,4
			c1.3,3.7,2.2,7.5,2.8,11.4c-0.1-0.7-0.2-1.3-0.3-2c0.6,5,0.6,10.1-0.1,15.1c0.1-0.7,0.2-1.3,0.3-2c-0.7,4.9-2,9.6-3.9,14.2
			c0.3-0.6,0.5-1.2,0.8-1.8c-1.4,3.3-3.2,6.5-5.3,9.5c-0.2,0.3-0.4,0.6-0.7,0.9c-0.2,0.2-1.2,1.6-0.3,0.5c0.9-1.1-0.2,0.2-0.4,0.4
			c-0.2,0.3-0.5,0.6-0.7,0.9c-1.1,1.3-2.3,2.6-3.5,3.8c-1.2,1.2-2.5,2.3-3.9,3.4c-0.4,0.3-1.6,1.1,0.3-0.2c-0.3,0.2-0.6,0.5-0.9,0.7
			c-0.7,0.5-1.5,1-2.2,1.5c-2.9,1.9-5.9,3.5-9.1,4.9c0.6-0.3,1.2-0.5,1.8-0.8c-4.2,1.8-8.6,3-13.2,3.7c0.7-0.1,1.3-0.2,2-0.3
			c-2.6,0.4-5.3,0.5-7.9,0.1c0.7,0.1,1.3,0.2,2,0.3c-1.8-0.3-3.5-0.7-5.2-1.4c0.6,0.3,1.2,0.5,1.8,0.8c-1.9-0.8-3.7-1.8-5.4-3
			c-0.7-0.5-1.4-1.1-2.2-1.6c1.8,1.3,0.4,0.3,0,0c-0.4-0.3-0.7-0.6-1.1-0.9c-2.7-2.2-5.3-4.7-7.7-7.3c-1.2-1.3-2.4-2.7-3.5-4.1
			c-0.8-1.1,1,1.4,0.2,0.2c-0.2-0.3-0.5-0.6-0.7-1c-0.5-0.8-1.1-1.5-1.6-2.3c-2-3-3.7-6.1-5.1-9.4c0.3,0.6,0.5,1.2,0.8,1.8
			c-1.5-3.6-2.7-7.4-3.2-11.4c0.1,0.7,0.2,1.3,0.3,2c-0.4-3.2-0.5-6.5,0-9.7c-0.1,0.7-0.2,1.3-0.3,2c0.4-2.9,1.2-5.7,2.3-8.4
			c-0.3,0.6-0.5,1.2-0.8,1.8c0.8-1.8,1.7-3.5,2.7-5.1c0.5-0.8,1.1-1.6,1.6-2.4c0.7-1-1.3,1.6-0.1,0.1c0.3-0.4,0.6-0.7,0.9-1.1
			c1.2-1.4,2.5-2.7,3.8-3.9c0.7-0.7,1.5-1.3,2.2-1.9c0.4-0.3,0.8-0.6,1.2-0.9c1-0.8-1.6,1.2,0,0c6.4-4.8,13.5-8.5,20.5-12
			c3.3-1.7,4.4-6.1,3.1-9.4c-0.6-1.4-1.6-2.8-3.1-3.6c-1.9-1-3.7-1.1-5.8-0.8c-1.8,0.3-3.5,0.6-5.3,0.8c0.7-0.1,1.3-0.2,2-0.3
			c-8.1,1.1-16.2,1.5-24.3,0.5c0.7,0.1,1.3,0.2,2,0.3c-4.8-0.7-9.5-1.9-14-3.7c0.6,0.3,1.2,0.5,1.8,0.8c-2.2-0.9-4.4-2-6.4-3.3
			c-1-0.6-2-1.4-3-2.1c-1-0.7,1.1,0.9,0.4,0.3c-0.2-0.2-0.4-0.3-0.6-0.5c-0.5-0.4-1-0.8-1.5-1.3c-0.9-0.8-1.7-1.6-2.4-2.5
			c-0.4-0.4-0.8-0.9-1.1-1.3c-0.9-1.1,0.8,1.1,0.3,0.5c-0.2-0.3-0.4-0.5-0.6-0.8c-1.6-2.2-2.8-4.6-3.9-7.1c0.3,0.6,0.5,1.2,0.8,1.8
			c-3-7.2-4.5-15.2-5.6-22.9c0.1,0.7,0.2,1.3,0.3,2c-0.3-2-0.4-4.1-0.1-6.1c-0.1,0.7-0.2,1.3-0.3,2c0.2-1.2,0.5-2.3,0.9-3.4
			c-0.3,0.6-0.5,1.2-0.8,1.8c0.5-1.1,1.1-2.1,1.8-3.1c0.8-1.2-0.9,1-0.3,0.4c0.2-0.2,0.4-0.5,0.7-0.8c0.4-0.5,0.8-0.9,1.3-1.3
			c0.9-0.8,1.8-1.6,2.7-2.4c0.3-0.2,0.5-0.4,0.8-0.6c0.8-0.7-0.5,0.3-0.6,0.5c0.3-0.4,1.1-0.9,1.6-1.2c3.9-2.8,8.1-5.1,12.6-7
			c-0.6,0.3-1.2,0.5-1.8,0.8c5.7-2.4,11.6-4,17.7-4.8c-0.7,0.1-1.3,0.2-2,0.3c6.1-0.8,12.2-0.8,18.3,0c-0.7-0.1-1.3-0.2-2-0.3
			c4.9,0.7,9.7,1.9,14.4,3.6c1.5,0.6,3.5,0.2,4.9-0.4c1.4-0.6,2.8-1.6,3.6-3.1c1.5-2.9,1.3-6.8-1.2-9.1c-2.1-2-4.2-4-6.2-6.2
			c-1-1.1-2-2.2-2.9-3.3c-0.5-0.5-0.9-1.1-1.3-1.6c-0.4-0.5-1.9-2.6-0.5-0.6c-3.4-4.8-6.5-9.5-8.8-15c0.3,0.6,0.5,1.2,0.8,1.8
			c-1.7-4-2.9-8.2-3.5-12.5c0.1,0.7,0.2,1.3,0.3,2c-0.5-3.8-0.5-7.7,0-11.5c-0.1,0.7-0.2,1.3-0.3,2c0.5-3.5,1.4-7,2.7-10.3
			c-0.3,0.6-0.5,1.2-0.8,1.8c0.8-1.8,1.7-3.6,2.8-5.3c0.3-0.5,0.6-0.9,0.9-1.3c0.1-0.2,0.4-0.4,0.4-0.6c0,0.1-1.1,1.4-0.5,0.7
			c0.7-0.8,1.3-1.6,2.1-2.3c0.7-0.7,1.4-1.4,2.2-2c0.2-0.2,1-0.8,0,0c-1,0.7-0.2,0.1,0.1,0c0.5-0.4,1-0.7,1.5-1
			c1.9-1.2,4-2.3,6.1-3.2c-0.6,0.3-1.2,0.5-1.8,0.8c7.2-3,15.1-4.6,22.8-5.7c-0.7,0.1-1.3,0.2-2,0.3c1.7-0.2,3.4-0.3,5.1-0.1
			c-0.7-0.1-1.3-0.2-2-0.3c0.9,0.2,1.7,0.4,2.6,0.7c-0.6-0.3-1.2-0.5-1.8-0.8c0.6,0.2,1.1,0.5,1.6,0.8c0.1,0.1,0.8,0.4,0.8,0.6
			c0-0.1-1.4-1.1-0.6-0.4c0.9,0.8,1.8,1.7,2.6,2.6c0.4,0.5,0.8,0.9,1.2,1.4c0.2,0.2,0.3,0.4,0.5,0.6c0.6,0.7-1.1-1.4-0.3-0.4
			c0.7,1,1.4,1.9,2.1,2.9c2.7,4,4.9,8.2,6.8,12.6c-0.3-0.6-0.5-1.2-0.8-1.8c3.2,7.7,5.3,15.8,6.4,24c-0.1-0.7-0.2-1.3-0.3-2
			c1.5,11.2,1.4,22.6,0,33.8c-0.2,1.8,1,4.1,2.2,5.3c1.3,1.3,3.4,2.3,5.3,2.2c1.9-0.1,4-0.7,5.3-2.2c1.4-1.6,1.9-3.2,2.2-5.3
			c1.8-15.1,1.4-30.5-2-45.3c-1.7-7.5-4.4-14.8-8-21.7c-1.7-3.2-3.5-6.3-5.6-9.2c-2.8-3.8-5.6-7.4-9.5-10.2
			c-4.7-3.4-10.3-3.6-15.9-2.8c-3.9,0.5-7.8,1.4-11.6,2.2c-7.9,1.8-15.8,4.6-22.2,9.6c-12.2,9.4-17.5,25.5-15.6,40.6
			c1,8.3,3.7,16.1,7.9,23.3c4,6.9,9.1,13.2,14.7,18.9c1.3,1.3,2.7,2.6,4.1,3.9c2.4-4.2,4.9-8.4,7.3-12.5
			c-12.3-4.7-25.7-5.4-38.6-3.3c-12.8,2.1-24.7,7.7-34.7,15.9c-2.8,2.3-5.3,4.9-7.3,7.9c-2.4,3.7-3.5,8.1-3.4,12.5
			c0.1,4.1,1,8.1,1.7,12.1c0.6,3.3,1.3,6.6,2.2,9.9c2,7.1,5.2,13.7,10.1,19.3c4.2,4.8,9.7,8.7,15.5,11.4c7.6,3.5,15.6,5.3,24,5.9
			c9,0.6,17.9-0.5,26.8-2c-1.9-4.6-3.9-9.1-5.8-13.7c-13.8,6.9-28.5,15.1-36.5,28.9c-4.2,7.3-6.2,16-5.4,24.3
			c0.9,8.7,3.9,16.9,8.5,24.3c4.4,7.1,10,13.5,16.5,18.9c3.6,3,7.5,6,11.8,7.9c5.2,2.3,10.8,3,16.4,2.3
			c17.5-2.2,32.9-11.6,43.3-25.7c10.7-14.5,14-34,9.8-51.4c-0.5-2-1.1-3.9-1.7-5.8c-0.7-1.9-1.7-3.5-3.4-4.5c-1.6-0.9-4-1.3-5.8-0.8
			c-4,1.3-6.2,5.1-5.2,9.2c4.2,17.2,8.9,34.9,21,48.4c5.6,6.3,12.7,11.2,20.7,14c9.1,3.2,19.1,2.5,28.2-0.2
			c8.1-2.4,16.2-6.6,21.8-13c6.4-7.2,9.5-16.6,8.9-26.2c-0.5-9.6-4-18.6-8.9-26.9c-4.5-7.6-9.9-14.8-15.3-21.7
			c-5-6.4-10.4-12.3-16.9-17.3c-3.3-2.5-6.7-4.8-10.4-6.5c-2.7-1.2-5-2.1-7.9-2.5c-2.4-0.3-5.1,0.2-7.2,1.5c-3,1.8-5,4.9-4.9,8.5
			c0.1,4.2,3.3,7.3,7.5,7.5c18.9,0.9,38.1-3.5,54.8-12.3c8.1-4.2,15.9-9.6,22.3-16.2c3.1-3.3,6-7,8.2-11c2.5-4.7,3.9-9.5,4.5-14.7
			c1.1-10.3-2.8-20.6-7.7-29.4c-2.2-4-4.8-7.9-7.4-11.7c-2.7-3.9-5.6-7.9-9.1-11.1c-3.9-3.6-8.5-6.4-13.6-7.8
			c-5.4-1.5-10.9-1.3-16.4-0.5c-9.3,1.4-18.1,5.8-26.5,10c-15.1,7.7-30.1,17.8-38.8,32.7c-1,1.7-1.9,3.5-2.7,5.3
			c-0.8,1.9-1.3,3.7-0.8,5.8c0.5,1.7,1.8,3.6,3.4,4.5c1.7,0.9,3.8,1.4,5.8,0.8C1411,287.8,1413,286.6,1413.8,284.9L1413.8,284.9z"/>
	</g>
</g>
<g>
	<g>
		<path class="st4" d="M221.8,821c-0.2-3-0.1-5.9,0.2-8.9c-0.1,0.7-0.2,1.3-0.3,2c0.7-4.9,2.1-9.7,4-14.2c-0.3,0.6-0.5,1.2-0.8,1.8
			c3.4-8,8.2-15.3,13.4-22.2c0.3-0.4,0.6-0.8,0.9-1.2c0.9-1.1-1.1,1.3-0.2,0.3c0.6-0.8,1.3-1.6,2-2.4c1.3-1.5,2.6-2.9,4-4.3
			c0.6-0.6,1.3-1.2,2-1.8c0.4-0.3,0.8-0.6,1.2-1c-1.8,1.6-0.5,0.4,0,0c1.5-1.1,3.2-2,4.9-2.7c-0.6,0.3-1.2,0.5-1.8,0.8
			c1.7-0.7,3.5-1.2,5.3-1.4c-0.7,0.1-1.3,0.2-2,0.3c1.7-0.2,3.3-0.2,5,0c-0.7-0.1-1.3-0.2-2-0.3c2.7,0.4,5.3,1.2,7.8,2.2
			c-0.6-0.3-1.2-0.5-1.8-0.8c6.1,2.6,12.1,5.9,17.5,9.7c0.6,0.4,2.5,2.1,0.6,0.4c0.6,0.5,1.2,0.9,1.7,1.4c1.2,1,2.4,2.1,3.4,3.3
			c0.5,0.5,0.9,1.1,1.4,1.7c-1.7-1.9-0.1-0.1,0.3,0.5c0.9,1.3,1.6,2.7,2.2,4.1c-0.3-0.6-0.5-1.2-0.8-1.8c0.8,1.9,1.3,3.9,1.6,5.9
			c-0.1-0.7-0.2-1.3-0.3-2c0.4,2.7,0.3,5.5,0,8.2c0.1-0.7,0.2-1.3,0.3-2c-0.6,3.9-1.7,7.7-3.3,11.4c0.3-0.6,0.5-1.2,0.8-1.8
			c-1.5,3.6-3.4,7.1-5.4,10.4c-1,1.6-2,3.1-3,4.6c-0.3,0.4-0.6,0.8-0.9,1.3c-0.1,0.2-0.2,0.3-0.4,0.5c-0.5,0.6,0.6-0.8,0.6-0.7
			c-0.4,0.8-1.3,1.6-1.8,2.3c-2.4,2.9-5.1,5.6-7.9,8.2c-1.4,1.3-2.9,2.5-4.3,3.7c-1,0.8,1.5-1.1,0.1-0.1c-0.4,0.3-0.7,0.5-1.1,0.8
			c-0.7,0.5-1.5,1.1-2.2,1.6c-3.6,2.4-7.3,4.6-11.2,6.4c3.4,0.9,6.8,1.8,10.3,2.7c0-0.1-0.1-0.2-0.1-0.3c0.3,0.6,0.5,1.2,0.8,1.8
			c-0.1-0.2-0.1-0.3-0.1-0.5c0.1,0.7,0.2,1.3,0.3,2c0-0.1,0-0.2,0-0.3c-0.1,0.7-0.2,1.3-0.3,2c0-0.2,0.1-0.3,0.1-0.5
			c-0.3,0.6-0.5,1.2-0.8,1.8c0.3-0.6,0.1-0.4-0.7,0.8c0.5-0.5,0.3-0.3-0.8,0.6c0.4-0.2,0.8-0.5,1.2-0.6c-0.6,0.3-1.2,0.5-1.8,0.8
			c0.5-0.2,1-0.3,1.6-0.4c-0.7,0.1-1.3,0.2-2,0.3c3.3-0.4,6.6-0.3,9.9,0.1c-0.7-0.1-1.3-0.2-2-0.3c6.1,0.8,11.9,2.8,17.5,5.1
			c-0.6-0.3-1.2-0.5-1.8-0.8c7.5,3.2,15,6.7,21.9,11.1c0.8,0.5,1.6,1,2.4,1.6c0.4,0.3,0.8,0.6,1.2,0.9c1.5,1.1-1.1-0.9,0,0
			c1.5,1.2,2.9,2.5,4.2,3.9c0.6,0.6,1.2,1.3,1.7,2c0.5,0.6,0.3,0.4-0.4-0.6c0.2,0.2,0.3,0.4,0.5,0.7c0.2,0.3,0.5,0.7,0.7,1
			c1,1.6,1.9,3.2,2.7,5c-0.3-0.6-0.5-1.2-0.8-1.8c0.8,2,1.4,4,1.7,6.1c-0.1-0.7-0.2-1.3-0.3-2c0.3,2,0.3,4,0,6
			c0.1-0.7,0.2-1.3,0.3-2c-0.3,2.1-0.9,4.2-1.7,6.1c0.3-0.6,0.5-1.2,0.8-1.8c-0.9,2-1.9,3.9-3.1,5.6c-0.3,0.4-0.6,1-1,1.3
			c0.2-0.1,1.1-1.3,0.4-0.6c-0.2,0.2-0.3,0.4-0.5,0.6c-0.7,0.9-1.5,1.7-2.3,2.5c-0.8,0.8-1.6,1.5-2.4,2.3c-0.4,0.4-0.9,0.7-1.3,1.1
			c-0.7,0.6,1.3-0.9,0.5-0.4c-0.2,0.2-0.4,0.3-0.7,0.5c-1.9,1.4-3.9,2.5-6,3.4c0.6-0.3,1.2-0.5,1.8-0.8c-2.3,1-4.7,1.6-7.2,1.9
			c0.7-0.1,1.3-0.2,2-0.3c-2.9,0.4-5.8,0.3-8.6-0.1c0.7,0.1,1.3,0.2,2,0.3c-3.5-0.5-6.8-1.5-10.1-2.8c0.6,0.3,1.2,0.5,1.8,0.8
			c-2.9-1.2-5.7-2.8-8.4-4.5c-0.7-0.4-1.3-0.9-2-1.4c-0.3-0.2-0.7-0.5-1-0.8c0.3,0.2,0.6,0.4,0.8,0.6c-0.2-0.2-0.5-0.4-0.7-0.5
			c-1.2-1-2.4-2-3.6-3.1c-4.9-4.4-9.2-9.3-13.6-14.2c-3.5,3.5-7.1,7.1-10.6,10.6c1.2,1.1,2.4,2.3,3.5,3.5c0.6,0.6,1.2,1.3,1.7,2
			c-0.2-0.3-0.5-0.6-0.7-0.9c0.2,0.2,0.3,0.4,0.5,0.6c0.2,0.3,0.5,0.6,0.7,1c1.9,2.7,3.5,5.6,4.8,8.7c-0.3-0.6-0.5-1.2-0.8-1.8
			c1.6,3.9,2.8,8,3.3,12.2c-0.1-0.7-0.2-1.3-0.3-2c0.5,3.9,0.5,7.9,0,11.8c0.1-0.7,0.2-1.3,0.3-2c-0.6,4-1.7,7.9-3.2,11.7
			c0.3-0.6,0.5-1.2,0.8-1.8c-0.9,2.2-2,4.4-3.3,6.4c-0.7,1.1-1.3,2.1-2.1,3.1c-0.2,0.2-0.9,1.2-0.1,0.2c0.8-1,0.1-0.2,0,0
			c-0.4,0.5-0.8,1-1.3,1.5c-1.6,1.8-3.3,3.5-5.2,5c-0.2,0.2-0.4,0.3-0.6,0.5c1.6-1.4,0.8-0.6,0.3-0.3c-0.5,0.4-1,0.7-1.6,1.1
			c-1.2,0.8-2.4,1.4-3.7,2c0.6-0.3,1.2-0.5,1.8-0.8c-1.3,0.5-2.7,0.9-4.1,1.1c0.7-0.1,1.3-0.2,2-0.3c-2.3,0.3-4.6,0.2-6.9-0.1
			c0.7,0.1,1.3,0.2,2,0.3c-5.5-0.8-10.9-2.2-16-4.4c0.6,0.3,1.2,0.5,1.8,0.8c-2.4-1-4.8-2.2-7-3.5c-1.1-0.7-2.2-1.4-3.2-2.1
			c-0.2-0.2-0.5-0.3-0.7-0.5c-1.2-0.9,1,0.8,0.4,0.3c-0.5-0.4-1-0.8-1.5-1.2c-0.9-0.8-1.9-1.7-2.7-2.6c-0.4-0.4-0.8-0.8-1.1-1.3
			c-0.5-0.5-1.8-2.5-0.3-0.3c-1.4-2.1-2.7-4.1-3.7-6.3c0.3,0.6,0.5,1.2,0.8,1.8c-0.9-2.2-1.6-4.6-1.9-6.9c0.1,0.7,0.2,1.3,0.3,2
			c-0.3-2.6-0.3-5.3,0-7.9c-0.1,0.7-0.2,1.3-0.3,2c0.5-3.6,1.6-7.1,3-10.5c-0.3,0.6-0.5,1.2-0.8,1.8c2.9-6.8,7.1-13,11.4-19
			c1.8-2.6,1.1-7-1.2-9.1c-1-0.9-2.1-1.5-3.3-1.9c-1.6-0.5-4.4-0.3-5.8,0.8c-5.9,4.5-12.2,8.7-19,11.6c0.6-0.3,1.2-0.5,1.8-0.8
			c-4,1.7-8.1,2.9-12.3,3.5c0.7-0.1,1.3-0.2,2-0.3c-3.3,0.4-6.7,0.5-10.1,0c0.7,0.1,1.3,0.2,2,0.3c-2.8-0.4-5.4-1.1-8-2.1
			c0.6,0.3,1.2,0.5,1.8,0.8c-1.2-0.5-2.4-1.1-3.5-1.8c-0.6-0.3-1.2-0.7-1.7-1.1c-0.3-0.2-0.6-0.4-0.8-0.6c-0.8-0.6,0.3,0.3,0.5,0.4
			c-1.1-0.6-2.2-1.9-3.1-2.7c-0.9-0.9-1.9-1.9-2.7-2.8c-1.8-2-3.4-4-5.1-6.1c-0.4-0.5-0.8-1-1.2-1.5c1.5,1.8,0-0.1-0.4-0.5
			c-0.8-1.2-1.5-2.4-2.1-3.7c0.3,0.6,0.5,1.2,0.8,1.8c-0.4-0.9-0.7-1.9-0.8-2.9c0.1,0.7,0.2,1.3,0.3,2c-0.2-1.2-0.1-2.4,0-3.6
			c-0.1,0.7-0.2,1.3-0.3,2c0.3-2.2,1.1-4.4,2-6.4c-0.3,0.6-0.5,1.2-0.8,1.8c1.4-3.3,3.1-6.4,5.1-9.3c0.5-0.8,1.1-1.6,1.7-2.4
			c-1.5,2.2,0.2-0.2,0.7-0.8c1.1-1.4,2.3-2.6,3.6-3.9c1.3-1.2,2.6-2.4,4-3.5c0.4-0.4,2-1.4-0.1,0c0.3-0.2,0.6-0.4,0.9-0.7
			c0.7-0.5,1.5-1.1,2.3-1.6c3-2,6.2-3.7,9.5-5.1c-0.6,0.3-1.2,0.5-1.8,0.8c4.4-1.8,9-3.1,13.7-3.7c-0.7,0.1-1.3,0.2-2,0.3
			c0.1,0,0.2,0,0.4,0c2-0.3,3.9-0.6,5.3-2.2c1.1-1.2,1.8-2.6,2.1-4.3c0.5-3.6-1.7-7.3-5.4-8.2c-4.1-1.1-8.2-2.4-12.1-4
			c0.6,0.3,1.2,0.5,1.8,0.8c-2.8-1.2-5.5-2.5-8.1-4c-1.2-0.7-2.4-1.5-3.6-2.3c-0.3-0.2-0.6-0.4-0.8-0.6c-0.5-0.4-1.3-1.3,0.2,0.2
			c-0.5-0.5-1.2-0.9-1.7-1.4c-1.1-0.9-2.1-1.9-3.1-3c-0.5-0.5-1-1.1-1.4-1.6c-0.2-0.2-0.4-0.5-0.6-0.7c1.5,1.5,0.6,0.8,0.2,0.3
			c-1.7-2.3-3.1-4.8-4.2-7.4c0.3,0.6,0.5,1.2,0.8,1.8c-1.2-2.8-2-5.8-2.4-8.9c0.1,0.7,0.2,1.3,0.3,2c-0.3-2.5-0.3-5,0-7.5
			c-0.1,0.7-0.2,1.3-0.3,2c0.3-2.3,0.9-4.5,1.8-6.6c-0.3,0.6-0.5,1.2-0.8,1.8c0.5-1.2,1.1-2.4,1.8-3.5c0.3-0.5,0.6-1,1-1.5
			c0.2-0.3,0.4-0.5,0.6-0.8c0.7-1-0.9,1.1-0.3,0.4c1.6-2,3.4-3.9,5.3-5.7c1.9-1.7,3.8-3.4,5.8-5c0.5-0.4,1-0.8,1.6-1.3
			c0.3-0.2,0.5-0.4,0.8-0.6c0.7-0.5-1.6,1.1-0.4,0.3c1.1-0.8,2.2-1.5,3.5-2c-0.6,0.3-1.2,0.5-1.8,0.8c0.8-0.3,1.5-0.5,2.4-0.6
			c-0.7,0.1-1.3,0.2-2,0.3c0.9-0.1,1.8-0.1,2.6,0c-0.7-0.1-1.3-0.2-2-0.3c1.8,0.3,3.5,0.9,5.1,1.6c-0.6-0.3-1.2-0.5-1.8-0.8
			c3.6,1.6,7.1,3.5,10.4,5.7c0.8,0.5,1.5,1.1,2.3,1.6c0.9,0.7-0.6-0.5-0.6-0.5c0.1,0.2,0.4,0.3,0.6,0.5c0.4,0.4,0.9,0.7,1.3,1.1
			c1.5,1.2,2.9,2.6,4.3,3.9c1.4,1.4,2.8,2.9,4.1,4.4c0.6,0.7,1.2,1.4,1.8,2.2c0.3,0.3,0.5,0.7,0.8,1c-1.5-1.9-0.3-0.4,0.1,0.1
			c2.4,3.2,4.6,6.6,6.6,10.1c2.3,4,4.3,8.1,6.1,12.4c-0.3-0.6-0.5-1.2-0.8-1.8c0.5,1.2,1,2.3,1.4,3.5c0.7,1.9,1.6,3.4,3.4,4.5
			c1.6,0.9,4,1.3,5.8,0.8c3.5-1.1,6.8-5.3,5.2-9.2c-4.7-12.1-10.9-23.4-19.2-33.4c-4.1-4.9-8.9-9.2-14.1-13
			c-2.3-1.7-4.7-3.2-7.3-4.6c-3.1-1.7-6.5-3.3-10-4.3c-4.8-1.3-9.6-0.8-14,1.7c-3.1,1.7-5.9,4.3-8.6,6.6c-5.2,4.3-10.2,9.1-13.6,15
			c-7.1,12.5-5.2,28.2,2.8,39.9c9,13.2,23.8,20.4,38.9,24.4c0.7-4.9,1.3-9.8,2-14.7c-5.4,0.7-10.7,1.8-15.8,3.9
			c-5,2.1-9.8,4.5-14.2,7.8c-8.6,6.4-15.9,14.5-20.3,24.3c-1.4,3.1-2.8,6.2-3.3,9.6c-0.3,1.9-0.5,3.7-0.3,5.6c0.3,2.7,1,4.9,2.2,7.4
			c1.4,2.9,3.7,5.5,5.7,8c1.7,2.1,3.4,4.2,5.2,6.2c4,4.4,8.8,8.4,14.3,10.8c6.1,2.6,12.7,3.8,19.4,3.4c14.2-1,26.6-7.9,37.7-16.4
			c-3.4-3.4-6.8-6.8-10.3-10.3c-4.2,5.9-8.3,12-11.2,18.6c-1.6,3.8-3.1,7.6-3.8,11.7c-0.8,4.6-0.8,8.9-0.1,13.6
			c2.1,13.1,12.5,23.4,23.9,29.3c5.7,2.9,11.9,5.2,18.3,6.4c4.9,1,9.6,1.4,14.5,0.6c3.9-0.6,7.8-2.6,11-4.9
			c6.1-4.5,11.3-10.1,15.1-16.7c3.8-6.7,6.1-14,6.9-21.7c1.6-14.8-3.9-30-13.7-41c-1.1-1.2-2.3-2.4-3.5-3.5c-2.9-2.6-7.8-3.1-10.6,0
			c-2.9,3.1-2.8,7.5,0,10.6c4.6,5.2,9.3,10.4,14.5,15c5.9,5.2,12.2,9.4,19.5,12.2c7.3,2.9,15.1,3.7,22.8,2.4
			c7.5-1.2,14.2-5.4,19.7-10.5c5.4-5,9.8-11.3,11.9-18.3c2.4-7.8,1.1-16-2.5-23.2c-6.7-13.3-20.8-20.3-33.6-26.4
			c-7.7-3.7-15.8-7.2-24.3-8.4c-4.9-0.7-10.2-1.2-15.1-0.2c-2.4,0.5-4.8,1.8-6.5,3.6c-3,3.1-3.5,7.6-1.5,11.3
			c0.8,1.6,2.7,3.1,4.5,3.4c2.1,0.5,3.9,0.1,5.8-0.8c13.7-6.5,25.4-16.7,34.3-28.9c4.6-6.3,8.3-13.2,10.8-20.6
			c2.8-8.1,3.7-17.7,0.4-25.8c-1.7-4.1-3.8-7.6-6.7-10.9c-2.5-2.9-5.6-5.3-8.7-7.6c-6.1-4.5-13.1-8.1-20.2-10.9
			c-4.1-1.7-8.7-2.8-13.2-2.4c-4.5,0.3-8.6,1.6-12.6,3.7c-7,3.9-12.3,10.1-17.1,16.4c-9.8,12.9-18.5,27.7-19.4,44.3
			c-0.1,1.9-0.1,3.8,0.1,5.7c0.2,2,0.7,3.8,2.2,5.3c1.3,1.3,3.4,2.3,5.3,2.2C218.1,828.4,222.1,825.2,221.8,821L221.8,821z"/>
	</g>
</g>
<g>
	<g>
		<path class="st5" d="M437.9,535c-1.4,0-2.8-0.6-3.6-1.9l-12.4-17.1L391,503.4c-5.5-2.2-9.4-7.1-10.5-12.9l-15.7-81.5
			c-0.8-4.1,0.8-8.2,4.2-10.7c3.4-2.5,7.8-2.7,11.5-0.7l72.6,40.3c5.2,2.9,8.5,8.1,8.9,14l2.5,33.2l12.4,17.1c1.5,2,1,4.8-1,6.3
			s-4.8,1-6.3-1l-13.1-18.1c-0.5-0.7-0.8-1.5-0.8-2.3l-2.6-34.5c-0.2-2.9-1.8-5.4-4.3-6.8l-72.6-40.3c-0.8-0.5-1.5-0.1-1.8,0.1
			c-0.3,0.2-0.9,0.8-0.7,1.7l15.7,81.5c0.5,2.8,2.4,5.1,5.1,6.2l32,13.2c0.8,0.3,1.4,0.8,1.9,1.5l13.1,18.1c1.5,2,1,4.8-1,6.3
			C439.7,534.8,438.8,535,437.9,535z"/>
	</g>
	<g>
		<path class="st5" d="M422.5,476.3c-1.3,0-2.6-0.6-3.4-1.7l-50.8-70.1c-1.3-1.9-0.9-4.5,0.9-5.8c1.9-1.3,4.5-0.9,5.8,0.9l50.8,70.1
			c1.3,1.9,0.9,4.5-0.9,5.8C424.2,476,423.4,476.3,422.5,476.3z"/>
	</g>
	<g>
		<circle class="st5" cx="420.8" cy="469.8" r="7.5"/>
	</g>
	<g>
		<path class="st5" d="M432.4,510.2c-1.3,0-2.7-0.6-3.5-1.8c-1.4-1.9-1-4.7,1-6.1l19.2-13.9c1.9-1.4,4.7-1,6.1,1
			c1.4,1.9,1,4.7-1,6.1L435,509.3C434.2,509.9,433.3,510.2,432.4,510.2z"/>
	</g>
</g>
</svg>
