<?xml version="1.0" encoding="utf-8"?>
<!-- Generator: Adobe Illustrator 24.1.2, SVG Export Plug-In . SVG Version: 6.00 Build 0)  -->
<svg version="1.1" id="Layer_1" xmlns="http://www.w3.org/2000/svg" xmlns:xlink="http://www.w3.org/1999/xlink" x="0px" y="0px"
	 viewBox="0 0 352.4 352.4" style="enable-background:new 0 0 352.4 352.4;" xml:space="preserve">
<style type="text/css">
	.st0{fill:#FFFFFF;}
	.st1{fill:#585857;}
	.st2{fill:url(#SVGID_1_);}
	.st3{fill:url(#SVGID_2_);}
</style>
<path class="st0" d="M339.8,352.4H12.6c-7,0-12.6-5.7-12.6-12.6V12.6C0,5.7,5.7,0,12.6,0h327.1c7,0,12.6,5.7,12.6,12.6v327.1
	C352.4,346.7,346.7,352.4,339.8,352.4z"/>
<path class="st1" d="M32.5,78.2c0,0,0-2.3,2.3-2.3h283.3c0,0,1.7,0.1,1.7,2v167.6c0,0,0,1.1-1.3,1.1s-138.2,0-138.2,0v35.8l80,4.7
	c0,0,1.1-0.1,1.1,0.9v4.3c0,0,0.1,1-1.3,1c-1.4,0-78.5-4.2-78.5-4.2h-11.5l-78.4,4.5c0,0-2.4-0.1-2.4-1.9v-3.4c0,0-0.1-1.4,1.9-1.5
	l79.2-4.5l0.8-35.9l-136.2-0.1c0,0-1.8,0.4-2-1.7L32.5,78.2z"/>
<rect x="34.2" y="77.6" class="st0" width="284.3" height="159.7"/>
<linearGradient id="SVGID_1_" gradientUnits="userSpaceOnUse" x1="180.3929" y1="286.9905" x2="232.3929" y2="286.9905">
	<stop  offset="0" style="stop-color:#231F20;stop-opacity:0.8"/>
	<stop  offset="1" style="stop-color:#1E1E1C;stop-opacity:0"/>
</linearGradient>
<polygon class="st2" points="180.4,282.3 180.4,288.9 232.3,291.7 232.4,285.3 "/>
<linearGradient id="SVGID_2_" gradientUnits="userSpaceOnUse" x1="175.6285" y1="262.9248" x2="175.6285" y2="246.285">
	<stop  offset="0" style="stop-color:#1E1E1C;stop-opacity:0"/>
	<stop  offset="1" style="stop-color:#231F20;stop-opacity:0.8"/>
</linearGradient>
<polygon class="st3" points="171.3,246.3 180.3,246.5 180.3,262.9 170.9,262.9 "/>
</svg>
